<svg width="941" height="1094" viewBox="0 0 941 1094" fill="none" xmlns="http://www.w3.org/2000/svg">
<path d="M878.982 538.811C909.183 562.164 915.664 605.147 893.689 636.366L885.678 647.747C862.987 679.985 818.459 687.724 786.221 665.032L383.588 381.629C388.987 385.43 395.377 387.574 401.975 387.801L673.769 397.132C688.726 397.645 703.143 402.847 714.983 412.002L878.982 538.811Z" fill="#3482FD"/>
<path d="M878.676 539.207C908.666 562.396 915.101 605.078 893.28 636.078L885.269 647.459C862.737 679.471 818.521 687.156 786.509 664.624L390.616 385.965C394.22 387.37 398.053 388.166 401.958 388.3L673.751 397.631C688.604 398.141 702.921 403.307 714.677 412.397L878.676 539.207Z" stroke="url(#paint0_linear_4501_19586)" stroke-opacity="0.24"/>
<rect x="466.32" y="1093.48" width="181.366" height="630.928" rx="31.2292" transform="rotate(-136.622 466.32 1093.48)" fill="#3482FD"/>
<path d="M61.719 554.915C31.5033 531.58 24.9972 488.601 46.9526 457.369L54.9568 445.982C77.6285 413.731 122.152 405.966 154.403 428.637L557.207 711.797C551.806 708 545.415 705.86 538.816 705.637L267.018 696.47C252.06 695.966 237.639 690.772 225.794 681.625L61.719 554.915Z" fill="url(#paint1_linear_4501_19586)"/>
<rect x="474.045" width="181.366" height="630.928" rx="31.2292" transform="rotate(43.3438 474.045 0)" fill="#1E63F2"/>
<defs>
<linearGradient id="paint0_linear_4501_19586" x1="903.646" y1="622.22" x2="610.938" y2="753.464" gradientUnits="userSpaceOnUse">
<stop offset="0.754145" stop-color="#666666"/>
</linearGradient>
<linearGradient id="paint1_linear_4501_19586" x1="523.427" y1="759.851" x2="232.892" y2="897.222" gradientUnits="userSpaceOnUse">
<stop offset="0.918117" stop-color="#1E63F2"/>
</linearGradient>
</defs>
</svg>
