<svg width="24" height="24" viewBox="0 0 24 24" fill="none" xmlns="http://www.w3.org/2000/svg">
<path d="M9.51408 14.7071C12.6415 14.6991 15.3007 16.135 16.2782 19.2261C14.308 20.4272 11.9889 20.8898 9.51408 20.8837C7.03921 20.8898 4.72016 20.4272 2.75 19.2261C3.72857 16.1317 6.38327 14.6991 9.51408 14.7071Z" stroke="white" stroke-width="1.5" stroke-linecap="square"/>
<path d="M16.0852 18.2321C17.975 18.2367 19.7458 17.8835 21.2502 16.9664C20.5039 14.606 18.4733 13.5095 16.0852 13.5157C14.5809 13.5118 13.2205 13.9435 12.2324 14.8529" stroke="white" stroke-width="1.5" stroke-linecap="square"/>
<circle cx="9.51421" cy="7.35406" r="4.23687" stroke="white" stroke-width="1.5" stroke-linecap="square"/>
<path d="M13.7143 5.67209C14.3046 5.05343 15.1371 4.66797 16.0597 4.66797C17.8498 4.66797 19.301 6.11914 19.301 7.90924C19.301 9.69934 17.8498 11.1505 16.0597 11.1505C14.9654 11.1505 13.9978 10.6082 13.4109 9.7777" stroke="white" stroke-width="1.5" stroke-linecap="square"/>
</svg>
