<svg width="24" height="25" viewBox="0 0 24 25" fill="none" xmlns="http://www.w3.org/2000/svg">
<path d="M12.0001 0.0820312C7.26379 0.0820312 4.00023 3.06162 4.00023 7.38495C4.00023 7.97527 4.00023 9.78275 4.00023 9.81926C4.00023 10.2112 3.78343 10.4777 3.04183 11.0364C2.9577 11.0997 2.60504 11.376 2.50025 11.4551C0.813065 12.7282 -0.0173258 13.9211 0.000273949 15.905C0.0180071 17.9109 1.80919 19.5334 4.00023 19.5565H8.23485C8.23485 19.5565 8.00018 20.3002 8.00018 20.7736C8.00018 22.7905 9.79083 24.4251 12.0001 24.4251C14.2094 24.4251 16.0001 22.7905 16.0001 20.7736C16.0001 20.3002 15.7761 19.5565 15.7761 19.5565H20C22.1867 19.5638 24.0027 17.9194 24 15.905C23.9973 13.9357 23.1653 12.7222 21.5 11.4551C21.3907 11.3711 21.004 11.1021 20.916 11.0364C20.1907 10.4838 20 10.2063 20 9.81926C20 8.29782 20 7.38495 20 7.38495C20 3.06162 16.7361 0.0820312 12.0001 0.0820312ZM12.0001 2.51634C15.2641 2.51634 17.3334 4.40536 17.3334 7.38495C17.3334 7.38495 17.3334 8.29782 17.3334 9.81926C17.3334 11.1119 17.9307 11.9274 19.208 12.8999C19.3094 12.9766 19.7374 13.2833 19.8334 13.3563C20.9507 14.2071 21.332 14.7828 21.3334 15.905C21.3347 16.5672 20.7134 17.1246 20 17.1222C19.748 17.121 15.8668 17.121 12.0001 17.1222C8.13391 17.1234 4.28356 17.1246 4.00023 17.1222C3.25597 17.1137 2.67291 16.5805 2.66691 15.905C2.65704 14.7852 3.03824 14.2083 4.16689 13.3563C4.25903 13.2869 4.65329 12.9729 4.75022 12.8999C6.0478 11.9213 6.66686 11.124 6.66686 9.81926C6.66686 9.78275 6.66686 7.97527 6.66686 7.38495C6.66686 4.40536 8.73657 2.51634 12.0001 2.51634ZM12.0001 19.5565C12.7361 19.5565 13.3335 20.1018 13.3335 20.7736C13.3335 21.4455 12.7361 21.9908 12.0001 21.9908C11.2641 21.9908 10.6668 21.4455 10.6668 20.7736C10.6668 20.1018 11.2641 19.5565 12.0001 19.5565Z" fill="#949494"/>
</svg>
