<svg width="34" height="51" viewBox="0 0 34 51" fill="none" xmlns="http://www.w3.org/2000/svg">
<path d="M26.544 32.5723C26.848 32.9983 27 33.2123 27 33.5273C27 33.8433 26.848 34.0563 26.544 34.4823C25.178 36.3983 21.689 40.5273 17 40.5273C12.31 40.5273 8.822 36.3973 7.456 34.4823C7.152 34.0563 7 33.8423 7 33.5273C7 33.2113 7.152 32.9983 7.456 32.5723C8.822 30.6563 12.311 26.5273 17 26.5273C21.69 26.5273 25.178 30.6573 26.544 32.5723Z" stroke="#5081FF" stroke-width="1.5" stroke-linecap="round" stroke-linejoin="round"/>
<path d="M20 33.5273C20 32.7317 19.6839 31.9686 19.1213 31.406C18.5587 30.8434 17.7956 30.5273 17 30.5273C16.2044 30.5273 15.4413 30.8434 14.8787 31.406C14.3161 31.9686 14 32.7317 14 33.5273C14 34.323 14.3161 35.0861 14.8787 35.6487C15.4413 36.2113 16.2044 36.5273 17 36.5273C17.7956 36.5273 18.5587 36.2113 19.1213 35.6487C19.6839 35.0861 20 34.323 20 33.5273Z" stroke="#5081FF" stroke-width="1.5" stroke-linecap="round" stroke-linejoin="round"/>
</svg>
