<svg width="208" height="54" viewBox="0 0 208 54" fill="none" xmlns="http://www.w3.org/2000/svg">
<path d="M0.5 10C0.5 4.47715 4.97715 0 10.5 0H197.5C203.023 0 207.5 4.47715 207.5 10V44C207.5 49.5228 203.023 54 197.5 54H0.5V10Z" fill="white"/>
<g clip-path="url(#clip0_3051_1318)">
<path d="M57.5 19V21H47.5V34.385L49.263 33H63.5V26H65.5V34C65.5 34.2652 65.3946 34.5196 65.2071 34.7071C65.0196 34.8946 64.7652 35 64.5 35H49.955L45.5 38.5V20C45.5 19.7348 45.6054 19.4804 45.7929 19.2929C45.9804 19.1054 46.2348 19 46.5 19H57.5ZM62.5 19V16H64.5V19H67.5V21H64.5V24H62.5V21H59.5V19H62.5Z" fill="#1A42BC"/>
</g>
<path d="M88.2102 22.3636V34H86.3352L80.8523 26.0739H80.7557V34H78.6477V22.3636H80.5341L86.0114 30.2955H86.1136V22.3636H88.2102ZM94.2798 34.1705C93.4048 34.1705 92.6491 33.9886 92.0128 33.625C91.3802 33.2576 90.8935 32.7386 90.5526 32.0682C90.2116 31.3939 90.0412 30.6004 90.0412 29.6875C90.0412 28.7898 90.2116 28.0019 90.5526 27.3239C90.8973 26.642 91.3783 26.1117 91.9957 25.733C92.6132 25.3504 93.3385 25.1591 94.1719 25.1591C94.7098 25.1591 95.2173 25.2462 95.6946 25.4205C96.1757 25.5909 96.5999 25.8561 96.9673 26.2159C97.3385 26.5758 97.6302 27.0341 97.8423 27.5909C98.0545 28.1439 98.1605 28.803 98.1605 29.5682V30.1989H91.0071V28.8125H96.1889C96.1851 28.4186 96.0999 28.0682 95.9332 27.7614C95.7666 27.4508 95.5336 27.2064 95.2344 27.0284C94.9389 26.8504 94.5942 26.7614 94.2003 26.7614C93.7798 26.7614 93.4105 26.8636 93.0923 27.0682C92.7741 27.2689 92.526 27.5341 92.348 27.8636C92.1738 28.1894 92.0848 28.5473 92.081 28.9375V30.1477C92.081 30.6553 92.1738 31.0909 92.3594 31.4545C92.545 31.8144 92.8045 32.0909 93.1378 32.2841C93.4711 32.4735 93.8613 32.5682 94.3082 32.5682C94.6075 32.5682 94.8783 32.5265 95.1207 32.4432C95.3632 32.3561 95.5734 32.2292 95.7514 32.0625C95.9295 31.8958 96.0639 31.6894 96.1548 31.4432L98.0753 31.6591C97.9541 32.1667 97.723 32.6098 97.3821 32.9886C97.045 33.3636 96.6132 33.6553 96.0866 33.8636C95.5601 34.0682 94.9579 34.1705 94.2798 34.1705ZM101.655 34L99.1889 25.2727H101.286L102.82 31.4091H102.899L104.467 25.2727H106.541L108.109 31.375H108.195L109.706 25.2727H111.808L109.337 34H107.195L105.558 28.1023H105.439L103.803 34H101.655ZM117.304 34V22.3636H121.668C122.562 22.3636 123.312 22.5303 123.918 22.8636C124.527 23.197 124.988 23.6553 125.298 24.2386C125.613 24.8182 125.77 25.4773 125.77 26.2159C125.77 26.9621 125.613 27.625 125.298 28.2045C124.984 28.7841 124.52 29.2405 123.906 29.5739C123.293 29.9034 122.537 30.0682 121.639 30.0682H118.747V28.3352H121.355C121.878 28.3352 122.306 28.2443 122.639 28.0625C122.973 27.8807 123.219 27.6307 123.378 27.3125C123.541 26.9943 123.622 26.6288 123.622 26.2159C123.622 25.803 123.541 25.4394 123.378 25.125C123.219 24.8106 122.971 24.5663 122.634 24.392C122.3 24.214 121.87 24.125 121.344 24.125H119.412V34H117.304ZM127.51 34V25.2727H129.504V26.7273H129.595C129.754 26.2235 130.027 25.8352 130.413 25.5625C130.804 25.286 131.249 25.1477 131.749 25.1477C131.862 25.1477 131.989 25.1534 132.129 25.1648C132.273 25.1723 132.393 25.1856 132.487 25.2045V27.0966C132.4 27.0663 132.262 27.0398 132.072 27.017C131.887 26.9905 131.707 26.9773 131.533 26.9773C131.158 26.9773 130.821 27.0587 130.521 27.2216C130.226 27.3807 129.993 27.6023 129.822 27.8864C129.652 28.1705 129.567 28.4981 129.567 28.8693V34H127.51ZM137.301 34.1705C136.449 34.1705 135.71 33.983 135.085 33.608C134.46 33.233 133.975 32.7083 133.631 32.0341C133.29 31.3598 133.119 30.572 133.119 29.6705C133.119 28.7689 133.29 27.9792 133.631 27.3011C133.975 26.6231 134.46 26.0966 135.085 25.7216C135.71 25.3466 136.449 25.1591 137.301 25.1591C138.153 25.1591 138.892 25.3466 139.517 25.7216C140.142 26.0966 140.625 26.6231 140.966 27.3011C141.311 27.9792 141.483 28.7689 141.483 29.6705C141.483 30.572 141.311 31.3598 140.966 32.0341C140.625 32.7083 140.142 33.233 139.517 33.608C138.892 33.983 138.153 34.1705 137.301 34.1705ZM137.312 32.5227C137.775 32.5227 138.161 32.3958 138.472 32.142C138.782 31.8845 139.013 31.5398 139.165 31.108C139.32 30.6761 139.398 30.1951 139.398 29.6648C139.398 29.1307 139.32 28.6477 139.165 28.2159C139.013 27.7803 138.782 27.4337 138.472 27.1761C138.161 26.9186 137.775 26.7898 137.312 26.7898C136.839 26.7898 136.445 26.9186 136.131 27.1761C135.82 27.4337 135.587 27.7803 135.432 28.2159C135.28 28.6477 135.205 29.1307 135.205 29.6648C135.205 30.1951 135.28 30.6761 135.432 31.108C135.587 31.5398 135.82 31.8845 136.131 32.142C136.445 32.3958 136.839 32.5227 137.312 32.5227ZM143.229 25.2727H145.286V34.5C145.286 35.1288 145.166 35.6477 144.928 36.0568C144.689 36.4659 144.344 36.7708 143.893 36.9716C143.443 37.1723 142.895 37.2727 142.251 37.2727C142.176 37.2727 142.106 37.2708 142.041 37.267C141.977 37.267 141.907 37.2652 141.831 37.2614V35.5852C141.888 35.589 141.939 35.5909 141.984 35.5909C142.03 35.5947 142.077 35.5966 142.126 35.5966C142.52 35.5966 142.803 35.5 142.973 35.3068C143.143 35.1174 143.229 34.839 143.229 34.4716V25.2727ZM144.251 24.0341C143.922 24.0341 143.64 23.9261 143.405 23.7102C143.174 23.4905 143.058 23.2273 143.058 22.9205C143.058 22.6098 143.174 22.3466 143.405 22.1307C143.64 21.911 143.922 21.8011 144.251 21.8011C144.577 21.8011 144.856 21.911 145.087 22.1307C145.321 22.3466 145.439 22.6098 145.439 22.9205C145.439 23.2273 145.321 23.4905 145.087 23.7102C144.856 23.9261 144.577 24.0341 144.251 24.0341ZM151.264 34.1705C150.389 34.1705 149.634 33.9886 148.997 33.625C148.365 33.2576 147.878 32.7386 147.537 32.0682C147.196 31.3939 147.026 30.6004 147.026 29.6875C147.026 28.7898 147.196 28.0019 147.537 27.3239C147.882 26.642 148.363 26.1117 148.98 25.733C149.598 25.3504 150.323 25.1591 151.156 25.1591C151.694 25.1591 152.202 25.2462 152.679 25.4205C153.16 25.5909 153.584 25.8561 153.952 26.2159C154.323 26.5758 154.615 27.0341 154.827 27.5909C155.039 28.1439 155.145 28.803 155.145 29.5682V30.1989H147.991V28.8125H153.173C153.17 28.4186 153.084 28.0682 152.918 27.7614C152.751 27.4508 152.518 27.2064 152.219 27.0284C151.923 26.8504 151.579 26.7614 151.185 26.7614C150.764 26.7614 150.395 26.8636 150.077 27.0682C149.759 27.2689 149.51 27.5341 149.332 27.8636C149.158 28.1894 149.069 28.5473 149.065 28.9375V30.1477C149.065 30.6553 149.158 31.0909 149.344 31.4545C149.529 31.8144 149.789 32.0909 150.122 32.2841C150.455 32.4735 150.846 32.5682 151.293 32.5682C151.592 32.5682 151.863 32.5265 152.105 32.4432C152.348 32.3561 152.558 32.2292 152.736 32.0625C152.914 31.8958 153.048 31.6894 153.139 31.4432L155.06 31.6591C154.938 32.1667 154.707 32.6098 154.366 32.9886C154.029 33.3636 153.598 33.6553 153.071 33.8636C152.545 34.0682 151.942 34.1705 151.264 34.1705ZM160.692 34.1705C159.821 34.1705 159.072 33.9792 158.447 33.5966C157.826 33.214 157.347 32.6856 157.01 32.0114C156.677 31.3333 156.51 30.553 156.51 29.6705C156.51 28.7841 156.68 28.0019 157.021 27.3239C157.362 26.642 157.843 26.1117 158.464 25.733C159.089 25.3504 159.828 25.1591 160.68 25.1591C161.389 25.1591 162.016 25.2898 162.561 25.5511C163.11 25.8087 163.548 26.1742 163.874 26.6477C164.199 27.1174 164.385 27.6667 164.43 28.2955H162.464C162.385 27.875 162.196 27.5246 161.896 27.2443C161.601 26.9602 161.205 26.8182 160.709 26.8182C160.288 26.8182 159.919 26.9318 159.601 27.1591C159.283 27.3826 159.035 27.7045 158.857 28.125C158.682 28.5455 158.595 29.0492 158.595 29.6364C158.595 30.2311 158.682 30.7424 158.857 31.1705C159.031 31.5947 159.275 31.9223 159.589 32.1534C159.908 32.3807 160.281 32.4943 160.709 32.4943C161.012 32.4943 161.283 32.4375 161.521 32.3239C161.764 32.2064 161.966 32.0379 162.129 31.8182C162.292 31.5985 162.404 31.3314 162.464 31.017H164.43C164.381 31.6345 164.199 32.1818 163.885 32.6591C163.571 33.1326 163.143 33.5038 162.601 33.7727C162.059 34.0379 161.423 34.1705 160.692 34.1705ZM170.477 25.2727V26.8636H165.46V25.2727H170.477ZM166.699 23.1818H168.756V31.375C168.756 31.6515 168.797 31.8636 168.881 32.0114C168.968 32.1553 169.081 32.2538 169.222 32.3068C169.362 32.3598 169.517 32.3864 169.688 32.3864C169.816 32.3864 169.934 32.3769 170.04 32.358C170.15 32.339 170.233 32.322 170.29 32.3068L170.636 33.9148C170.527 33.9527 170.369 33.9943 170.165 34.0398C169.964 34.0852 169.718 34.1117 169.426 34.1193C168.911 34.1345 168.447 34.0568 168.034 33.8864C167.621 33.7121 167.294 33.4432 167.051 33.0795C166.813 32.7159 166.695 32.2614 166.699 31.7159V23.1818Z" fill="#1A42BC"/>
<defs>
<clipPath id="clip0_3051_1318">
<path d="M43.5 26C43.5 20.4772 47.9772 16 53.5 16H67.5V40H43.5V26Z" fill="white"/>
</clipPath>
</defs>
</svg>
