<svg width="23" height="23" viewBox="0 0 23 23" fill="none" xmlns="http://www.w3.org/2000/svg">
<path d="M11.5 0C5.14855 0 0 5.14878 0 11.5C0 13.1491 0.367987 14.7915 1.07869 16.3156C0.135687 21.1859 0.0356567 21.6344 0.0356567 21.6344C-0.118443 22.432 0.566937 23.1151 1.36619 22.9641C1.36619 22.9641 1.80204 22.8887 6.72059 21.9579C8.20524 22.6635 9.8509 23 11.5 23C17.8514 23 23 17.8512 23 11.5C23 5.14878 17.8514 0 11.5 0ZM11.5 2.3C16.5807 2.3 20.7 6.41895 20.7 11.5C20.7 16.581 16.5807 20.7 11.5 20.7C10.0544 20.7 8.66639 20.3605 7.40369 19.7296C7.17829 19.6174 6.93106 19.5751 6.68381 19.6219C2.60131 20.3947 2.9256 20.3486 2.5875 20.4125C2.6542 20.0703 2.59669 20.4255 3.37869 16.3875C3.42699 16.1375 3.38444 15.8602 3.27059 15.6329C2.62889 14.3613 2.3 12.9577 2.3 11.5C2.3 6.41895 6.4193 2.3 11.5 2.3ZM8.26619 5.75C7.18749 5.75 5.75 7.1875 5.75 8.26562C5.75 9.65505 7.1875 12.2187 8.625 13.6562C8.78025 13.8109 9.1885 14.2203 9.34375 14.375C10.7812 15.8125 13.3446 17.25 14.7338 17.25C15.8125 17.25 17.25 15.8125 17.25 14.7344C17.25 13.6562 15.8125 12.2187 14.7338 12.2187C14.375 12.2187 13.0743 12.9622 12.9375 12.9375C11.7921 12.7307 10.3017 11.2042 10.0625 10.0625C10.0291 9.90311 10.7812 8.625 10.7812 8.26562C10.7812 7.1875 9.34374 5.75 8.26619 5.75Z" fill="#949494"/>
</svg>
