<svg width="64" height="67" viewBox="0 0 64 67" fill="none" xmlns="http://www.w3.org/2000/svg">
<rect width="63.827" height="67" rx="10" fill="#F8F8F8"/>
<g clip-path="url(#clip0_140_19669)">
<path d="M40.0315 24.6797V22.7109C40.0315 22.5305 39.8877 22.3828 39.7119 22.3828H24.3721C24.1963 22.3828 24.0525 22.5305 24.0525 22.7109V24.6797C24.0525 24.8602 24.1963 25.0078 24.3721 25.0078H39.7119C39.8877 25.0078 40.0315 24.8602 40.0315 24.6797ZM24.3721 28.2891C24.1963 28.2891 24.0525 28.4367 24.0525 28.6172V30.5859C24.0525 30.7664 24.1963 30.9141 24.3721 30.9141H31.7224C31.8982 30.9141 32.042 30.7664 32.042 30.5859V28.6172C32.042 28.4367 31.8982 28.2891 31.7224 28.2891H24.3721ZM39.3923 33.0469C34.6266 33.0469 30.7637 37.0131 30.7637 41.9062C30.7637 46.7994 34.6266 50.7656 39.3923 50.7656C44.1581 50.7656 48.021 46.7994 48.021 41.9062C48.021 37.0131 44.1581 33.0469 39.3923 33.0469ZM43.6867 46.3154C42.5402 47.4926 41.0142 48.1406 39.3923 48.1406C37.7705 48.1406 36.2445 47.4926 35.098 46.3154C33.9515 45.1383 33.3203 43.5715 33.3203 41.9062C33.3203 40.241 33.9515 38.6742 35.098 37.4971C36.2445 36.3199 37.7705 35.6719 39.3923 35.6719C41.0142 35.6719 42.5402 36.3199 43.6867 37.4971C44.8332 38.6742 45.4644 40.241 45.4644 41.9062C45.4644 43.5715 44.8332 45.1383 43.6867 46.3154ZM42.9477 38.7891H41.178C41.0741 38.7891 40.9783 38.8383 40.9183 38.9244L38.3817 42.5256L37.4589 41.2172C37.4293 41.1749 37.3903 41.1406 37.3451 41.117C37.2999 41.0935 37.2499 41.0814 37.1992 41.0818H35.4375C35.1779 41.0818 35.0261 41.3854 35.1779 41.6027L38.126 45.7904C38.2538 45.9709 38.5135 45.9709 38.6413 45.7904L43.2033 39.31C43.3591 39.0926 43.2073 38.7891 42.9477 38.7891ZM30.1245 46.8281H20.8567V17.9531H43.2273V32.0625C43.2273 32.243 43.3711 32.3906 43.5469 32.3906H45.7839C45.9597 32.3906 46.1035 32.243 46.1035 32.0625V16.3125C46.1035 15.5865 45.5323 15 44.8252 15H19.2588C18.5517 15 17.9805 15.5865 17.9805 16.3125V48.4688C17.9805 49.1947 18.5517 49.7812 19.2588 49.7812H30.1245C30.3003 49.7812 30.4441 49.6336 30.4441 49.4531V47.1562C30.4441 46.9758 30.3003 46.8281 30.1245 46.8281Z" fill="#FD5454"/>
</g>
<defs>
<clipPath id="clip0_140_19669">
<rect width="40.9062" height="42" fill="white" transform="translate(7.09375 12)"/>
</clipPath>
</defs>
</svg>
