<svg width="41" height="42" viewBox="0 0 41 42" fill="none" xmlns="http://www.w3.org/2000/svg">
<g clip-path="url(#clip0_140_19671)">
<path d="M33.0315 12.6797V10.7109C33.0315 10.5305 32.8877 10.3828 32.7119 10.3828H17.3721C17.1963 10.3828 17.0525 10.5305 17.0525 10.7109V12.6797C17.0525 12.8602 17.1963 13.0078 17.3721 13.0078H32.7119C32.8877 13.0078 33.0315 12.8602 33.0315 12.6797ZM17.3721 16.2891C17.1963 16.2891 17.0525 16.4367 17.0525 16.6172V18.5859C17.0525 18.7664 17.1963 18.9141 17.3721 18.9141H24.7224C24.8982 18.9141 25.042 18.7664 25.042 18.5859V16.6172C25.042 16.4367 24.8982 16.2891 24.7224 16.2891H17.3721ZM32.3923 21.0469C27.6266 21.0469 23.7637 25.0131 23.7637 29.9062C23.7637 34.7994 27.6266 38.7656 32.3923 38.7656C37.1581 38.7656 41.021 34.7994 41.021 29.9062C41.021 25.0131 37.1581 21.0469 32.3923 21.0469ZM36.6867 34.3154C35.5402 35.4926 34.0142 36.1406 32.3923 36.1406C30.7705 36.1406 29.2445 35.4926 28.098 34.3154C26.9515 33.1383 26.3203 31.5715 26.3203 29.9062C26.3203 28.241 26.9515 26.6742 28.098 25.4971C29.2445 24.3199 30.7705 23.6719 32.3923 23.6719C34.0142 23.6719 35.5402 24.3199 36.6867 25.4971C37.8332 26.6742 38.4644 28.241 38.4644 29.9062C38.4644 31.5715 37.8332 33.1383 36.6867 34.3154ZM35.9477 26.7891H34.178C34.0741 26.7891 33.9783 26.8383 33.9183 26.9244L31.3817 30.5256L30.4589 29.2172C30.4293 29.1749 30.3903 29.1406 30.3451 29.117C30.2999 29.0935 30.2499 29.0814 30.1992 29.0818H28.4375C28.1779 29.0818 28.0261 29.3854 28.1779 29.6027L31.126 33.7904C31.2538 33.9709 31.5135 33.9709 31.6413 33.7904L36.2033 27.31C36.3591 27.0926 36.2073 26.7891 35.9477 26.7891ZM23.1245 34.8281H13.8567V5.95312H36.2273V20.0625C36.2273 20.243 36.3711 20.3906 36.5469 20.3906H38.7839C38.9597 20.3906 39.1035 20.243 39.1035 20.0625V4.3125C39.1035 3.58652 38.5323 3 37.8252 3H12.2588C11.5517 3 10.9805 3.58652 10.9805 4.3125V36.4688C10.9805 37.1947 11.5517 37.7812 12.2588 37.7812H23.1245C23.3003 37.7812 23.4441 37.6336 23.4441 37.4531V35.1562C23.4441 34.9758 23.3003 34.8281 23.1245 34.8281Z" fill="#FD5454"/>
</g>
<defs>
<clipPath id="clip0_140_19671">
<rect width="40.9062" height="42" fill="white" transform="translate(0.09375)"/>
</clipPath>
</defs>
</svg>
