<svg width="438" height="413" viewBox="0 0 438 413" fill="none" xmlns="http://www.w3.org/2000/svg">
<path d="M218.948 393.77C327.002 393.77 414.598 348.841 414.598 293.419C414.598 237.997 327.002 193.068 218.948 193.068C110.893 193.068 23.2969 237.997 23.2969 293.419C23.2969 348.841 110.893 393.77 218.948 393.77Z" fill="#F5F5F5"/>
<path d="M218.944 288.166C235.225 288.166 248.423 280.977 248.423 272.108C248.423 263.24 235.225 256.051 218.944 256.051C202.663 256.051 189.465 263.24 189.465 272.108C189.465 280.977 202.663 288.166 218.944 288.166Z" fill="#E0E0E0"/>
<path d="M328.882 331.076C354.619 331.076 375.482 319.715 375.482 305.701C375.482 291.687 354.619 280.326 328.882 280.326C303.145 280.326 282.281 291.687 282.281 305.701C282.281 319.715 303.145 331.076 328.882 331.076Z" fill="#E0E0E0"/>
<path d="M100.206 333.818C125.943 333.818 146.807 322.457 146.807 308.443C146.807 294.429 125.943 283.068 100.206 283.068C74.4693 283.068 53.6055 294.429 53.6055 308.443C53.6055 322.457 74.4693 333.818 100.206 333.818Z" fill="#E0E0E0"/>
<path d="M398.48 287.671L389.679 284.276C388.573 277.1 387.935 269.868 387.77 262.618C387.77 249.055 396.729 232.469 408.097 235.245C419.464 238.02 404.891 253.194 402.527 264.915C400.162 276.636 398.48 287.671 398.48 287.671Z" fill="#455FF6"/>
<path opacity="0.3" d="M398.48 287.671L389.679 284.276C388.573 277.1 387.935 269.868 387.77 262.618C387.77 249.055 396.729 232.469 408.097 235.245C419.464 238.02 404.891 253.194 402.527 264.915C400.162 276.636 398.48 287.671 398.48 287.671Z" fill="black"/>
<path d="M394.217 286.622C394.313 286.61 394.4 286.562 394.46 286.489C394.519 286.417 394.545 286.325 394.532 286.234C390.337 256.498 404.516 239.978 404.656 239.838C404.719 239.766 404.749 239.675 404.74 239.583C404.731 239.49 404.684 239.405 404.608 239.346C404.533 239.287 404.435 239.259 404.338 239.267C404.24 239.276 404.15 239.32 404.087 239.392C403.947 239.557 389.558 256.275 393.797 286.325C393.803 286.371 393.819 286.415 393.844 286.455C393.869 286.494 393.901 286.529 393.941 286.557C393.98 286.585 394.024 286.605 394.072 286.616C394.119 286.627 394.169 286.629 394.217 286.622Z" fill="white"/>
<path d="M402.999 289.652L398.401 287.686C397.025 281.005 397.234 274.12 399.015 267.524C401.966 256.835 411.792 250.244 416.74 251.334C422.792 252.664 423.379 257.942 421.61 261.618C419.499 265.971 404.944 277.758 402.999 289.652Z" fill="#455FF6"/>
<path opacity="0.1" d="M402.999 289.652L398.401 287.686C397.025 281.005 397.234 274.12 399.015 267.524C401.966 256.835 411.792 250.244 416.74 251.334C422.792 252.664 423.379 257.942 421.61 261.618C419.499 265.971 404.944 277.758 402.999 289.652Z" fill="black"/>
<path d="M400.61 288.968C400.709 288.957 400.799 288.911 400.861 288.838C400.924 288.765 400.953 288.672 400.943 288.579C398.876 269.713 416.331 255.209 416.515 255.068C416.581 255.001 416.618 254.913 416.618 254.821C416.618 254.729 416.581 254.64 416.515 254.573C416.481 254.54 416.44 254.514 416.395 254.496C416.349 254.478 416.301 254.469 416.252 254.469C416.203 254.469 416.155 254.478 416.11 254.496C416.064 254.514 416.024 254.54 415.989 254.573C415.805 254.722 398.071 269.441 400.164 288.687C400.185 288.779 400.243 288.86 400.327 288.913C400.41 288.965 400.512 288.985 400.61 288.968Z" fill="white"/>
<path d="M49.0407 280.073L55.0837 276.818C55.0837 276.818 57.9738 261.777 55.8106 248.842C52.7628 230.67 39.6348 224.384 34.8705 226.193C30.1062 228.002 28.9852 233.387 37.5942 243.894C42.6738 250.089 49.2071 263.197 49.0407 280.073Z" fill="#455FF6"/>
<g opacity="0.15">
<path d="M49.0407 280.073L55.0837 276.818C55.0837 276.818 57.9738 261.777 55.8106 248.842C52.7628 230.67 39.6348 224.384 34.8705 226.193C30.1062 228.002 28.9852 233.387 37.5942 243.894C42.6738 250.089 49.2071 263.197 49.0407 280.073Z" fill="black"/>
</g>
<path d="M51.23 272.853H51.1687C51.1133 272.846 51.0599 272.829 51.0117 272.802C50.9634 272.775 50.9214 272.74 50.8879 272.698C50.8545 272.655 50.8303 272.607 50.8169 272.556C50.8035 272.505 50.801 272.451 50.8097 272.399C53.2969 255.375 46.0454 236.724 37.8831 229.208C37.8324 229.173 37.7902 229.128 37.7595 229.077C37.7287 229.025 37.71 228.968 37.7047 228.909C37.6994 228.85 37.7076 228.791 37.7287 228.735C37.7497 228.679 37.7833 228.629 37.827 228.586C37.8707 228.544 37.9236 228.511 37.982 228.489C38.0404 228.468 38.1031 228.458 38.1657 228.462C38.2283 228.465 38.2894 228.481 38.3449 228.508C38.4004 228.536 38.449 228.574 38.4874 228.621C46.7898 236.237 54.1902 255.235 51.6679 272.498C51.6531 272.598 51.6004 272.688 51.5199 272.754C51.4393 272.819 51.3363 272.854 51.23 272.853Z" fill="white"/>
<path d="M32.2973 289.199C31.3427 289.711 29.3809 288.588 28.6277 288.109C27.3358 287.269 26.2928 286.132 25.5975 284.805C24.8211 283.307 24.5578 281.618 24.8443 279.973C24.9959 279.103 25.2125 278.245 25.4924 277.404L26.2543 274.926C26.5545 274.132 26.6855 273.29 26.6397 272.448C26.412 270.738 24.8005 269.549 23.3467 268.516C21.7265 267.376 20.0538 265.873 20.0625 263.816C20.1755 262.223 20.8507 260.711 21.9805 259.521C23.0139 258.274 24.2488 257.175 25.1946 255.862C25.936 254.94 26.3166 253.805 26.2719 252.649C26.1715 251.945 25.9213 251.268 25.5362 250.658C24.6502 249.388 23.8769 248.051 23.2241 246.66C22.6899 245.223 22.7687 243.439 23.9598 242.406C24.4898 242.033 25.0937 241.763 25.7359 241.613C26.3781 241.462 27.0456 241.434 27.6994 241.531C28.9429 241.669 30.139 242.064 31.2025 242.687C34.6619 244.496 36.6324 248.362 40.302 249.758C41.7548 250.185 43.2349 250.524 44.7334 250.774C45.4856 250.905 46.2 251.184 46.8306 251.593C47.4612 252.001 47.9939 252.53 48.3942 253.144C49.7429 255.68 47.2469 258.802 48.1928 261.495C49.0686 263.874 51.4857 264.799 52.8607 266.939C53.4244 267.884 53.6515 268.976 53.5088 270.053C53.3866 271.874 52.9147 273.66 52.1163 275.322C51.2179 276.975 50.1904 278.563 49.0423 280.072C48.9898 280.13 32.4462 289.1 32.2973 289.199Z" fill="#455FF6"/>
<path d="M42.0974 284.277C42.0399 284.275 41.9834 284.262 41.9311 284.239C41.8788 284.217 41.8318 284.184 41.7928 284.145C41.7537 284.105 41.7234 284.058 41.7036 284.007C41.6837 283.956 41.6747 283.902 41.677 283.848C42.3864 267.741 34.3379 249.982 28.4877 244.778C28.408 244.702 28.3633 244.6 28.3633 244.493C28.3633 244.386 28.408 244.284 28.4877 244.208C28.5695 244.132 28.6796 244.09 28.7942 244.09C28.9088 244.09 29.0189 244.132 29.1007 244.208C35.0298 249.453 43.2534 267.542 42.5265 283.889C42.522 283.993 42.4748 284.092 42.3948 284.165C42.3148 284.237 42.2082 284.277 42.0974 284.277Z" fill="white"/>
<path d="M39.5398 265.237H39.4084C35.3619 264.187 31.207 263.553 27.016 263.346C26.8999 263.346 26.7885 263.302 26.7064 263.225C26.6243 263.147 26.5781 263.042 26.5781 262.933C26.5781 262.823 26.6243 262.718 26.7064 262.641C26.7885 262.563 26.8999 262.52 27.016 262.52C31.2813 262.729 35.5098 263.374 39.6273 264.444C39.6814 264.459 39.7318 264.484 39.7756 264.518C39.8194 264.551 39.8558 264.593 39.8826 264.64C39.9095 264.686 39.9263 264.738 39.932 264.791C39.9378 264.844 39.9325 264.897 39.9164 264.948C39.8908 265.026 39.8414 265.095 39.7744 265.146C39.7074 265.198 39.6258 265.229 39.5398 265.237Z" fill="white"/>
<path d="M351.917 300.466L343.755 299.583L341.645 284.07L351.62 286.862L351.917 300.466Z" fill="#B16668"/>
<path d="M334.035 313.121C333.917 313.426 333.869 313.752 333.893 314.076C333.917 314.401 334.013 314.717 334.175 315.004C335.051 315.962 337.31 317.086 340.393 317.292C343.345 317.49 345.972 317.119 347.697 316.086C348.447 315.72 349.09 315.185 349.567 314.527C350.043 313.87 350.34 313.111 350.43 312.319C350.596 310.742 350.43 309.214 351.209 308C351.988 306.785 353.118 305.604 353.372 304.993C353.676 303.938 353.676 302.826 353.372 301.771L334.035 313.121Z" fill="#263238"/>
<path d="M342.1 299.31C342.074 299.909 341.959 300.501 341.758 301.07C341.307 302.293 340.701 303.46 339.954 304.547C339.588 305.124 339.178 305.676 338.728 306.199C337.852 307.198 336.731 308.024 335.786 308.983C334.782 309.886 334.139 311.088 333.964 312.386C333.841 314.566 337.52 315.31 339.455 315.632C341.543 315.976 343.685 315.874 345.726 315.335C346.797 315.071 347.765 314.522 348.514 313.753C349.263 312.984 349.76 312.027 349.947 310.998C350.061 310.387 350.017 309.767 350.096 309.164C350.351 307.772 350.968 306.461 351.891 305.348C352.428 304.706 352.889 304.011 353.266 303.275C353.871 301.929 353.389 300.409 353.004 299.071C352.671 297.906 352.268 296.593 351.83 296.683C351.83 297.286 351.83 297.369 351.401 297.774C350.972 298.179 350.805 299.071 350.192 299.525C350.388 299.021 350.532 298.501 350.621 297.972C350.659 297.76 350.613 297.542 350.49 297.361C350.287 297.189 350.044 297.065 349.781 296.997C348.87 296.71 347.931 296.508 346.978 296.394C345.677 296.254 344.364 296.254 343.063 296.394C342.792 296.44 342.547 296.575 342.371 296.774C342.214 296.994 342.129 297.253 342.126 297.518C342.082 297.832 342.118 298.732 342.1 299.31Z" fill="#455A64"/>
<path d="M339.638 305.011C340.513 304.399 343.605 304.391 344.656 304.499C345.727 304.585 346.758 304.926 347.651 305.49C347.782 305.578 347.941 305.619 348.102 305.607C348.262 305.595 348.412 305.53 348.527 305.424C348.593 305.362 348.644 305.287 348.677 305.204C348.71 305.122 348.724 305.034 348.717 304.946C348.71 304.858 348.684 304.773 348.639 304.695C348.594 304.618 348.532 304.551 348.457 304.499C347.475 303.815 346.31 303.406 345.094 303.317C343.577 303.212 342.051 303.296 340.557 303.565C340.557 303.565 339.384 304.284 339.638 305.011Z" fill="#F5F5F5"/>
<path d="M337.66 307.273C338.746 306.67 342.039 306.753 343.099 306.86C344.149 306.962 345.152 307.324 346.006 307.909C346.138 307.996 346.297 308.036 346.457 308.024C346.617 308.012 346.767 307.948 346.882 307.843C346.949 307.781 347 307.707 347.033 307.624C347.066 307.542 347.079 307.453 347.072 307.366C347.066 307.278 347.039 307.192 346.994 307.115C346.949 307.038 346.887 306.971 346.812 306.918C345.376 306.216 343.808 305.784 342.197 305.646C339.569 305.473 338.93 305.968 338.93 305.968C338.629 306.083 338.358 306.26 338.139 306.485C337.919 306.711 337.755 306.98 337.66 307.273Z" fill="#F5F5F5"/>
<path d="M346.127 300.978C344.645 300.818 343.145 300.905 341.695 301.234C341.24 301.474 340.934 302.159 341.231 302.333C342.554 301.996 343.927 301.868 345.295 301.953C346.266 302.045 347.213 302.29 348.097 302.68C348.325 302.779 348.588 302.903 348.816 303.027C348.889 303.071 348.971 303.099 349.057 303.11C349.143 303.122 349.231 303.115 349.314 303.092C349.397 303.068 349.473 303.028 349.539 302.974C349.604 302.92 349.656 302.854 349.691 302.779C349.754 302.657 349.766 302.518 349.725 302.388C349.685 302.258 349.595 302.147 349.472 302.077C348.453 301.489 347.312 301.115 346.127 300.978Z" fill="#F5F5F5"/>
<path d="M321.482 293.412L313.723 291.372V276.578L323.348 276.975L321.482 293.412Z" fill="#B16668"/>
<path d="M297.33 301.334C297.112 301.972 297.152 302.664 297.444 303.276C297.733 303.837 300.877 305.514 305.116 305.241C308.256 305.029 311.279 304.031 313.874 302.35C315.485 301.343 317.167 301.153 319.269 301.045C321.371 300.938 324.121 299.939 324.585 299.013C324.821 298.185 324.797 297.31 324.515 296.494L297.33 301.334Z" fill="#263238"/>
<path d="M314.409 288.862L314.076 288.796C313.892 288.755 313.7 288.755 313.516 288.796C313.312 288.859 313.131 288.973 312.99 289.126C312.577 289.629 312.216 290.168 311.913 290.737C311.037 292.1 309.154 293.215 307.123 294.264C305.739 294.966 304.381 295.511 302.954 296.114C301.526 296.717 299.556 297.114 298.417 297.841C296.753 298.898 296.534 301.549 298.417 302.598C300.046 303.507 304.355 304.49 308.865 303.284C311.318 302.623 314.05 300.153 317.273 299.914C319.322 299.757 323.202 299.22 324.524 297.75C325.015 297.097 324.358 295.032 323.824 293.248C323.237 291.299 322.685 288.292 322.002 288.432C322.008 288.572 321.979 288.711 321.916 288.837C321.854 288.963 321.76 289.074 321.643 289.159C321.389 289.407 321.048 289.564 320.767 289.787C320.289 290.231 319.903 290.755 319.629 291.332C319.517 291.589 319.312 291.8 319.051 291.926C318.701 292.042 318.447 291.844 318.175 291.712C317.79 291.545 317.355 291.516 316.949 291.629C316.991 291.242 317.065 290.858 317.168 290.481C317.207 290.363 317.207 290.236 317.168 290.118C317.118 289.998 317.025 289.898 316.905 289.837C316.155 289.351 315.304 289.019 314.409 288.862Z" fill="#455A64"/>
<path d="M309.066 293.181C309.213 292.914 309.429 292.686 309.693 292.518C309.958 292.351 310.264 292.249 310.582 292.223C311.51 292.058 313.156 292.71 314.181 293.503C314.279 293.577 314.356 293.672 314.405 293.78C314.455 293.889 314.475 294.007 314.465 294.124C314.454 294.242 314.413 294.355 314.346 294.454C314.278 294.554 314.185 294.635 314.076 294.693C313.938 294.766 313.78 294.797 313.622 294.781C313.465 294.764 313.318 294.702 313.2 294.602C312.07 293.641 310.588 293.131 309.066 293.181Z" fill="#F5F5F5"/>
<path d="M306.168 294.71C306.371 294.439 306.64 294.218 306.953 294.066C307.265 293.913 307.612 293.834 307.963 293.834C309.403 293.894 310.786 294.382 311.913 295.23C312.005 295.302 312.078 295.395 312.124 295.499C312.17 295.604 312.189 295.717 312.178 295.83C312.168 295.943 312.129 296.051 312.065 296.147C312 296.242 311.912 296.322 311.808 296.378C311.672 296.455 311.512 296.488 311.354 296.472C311.196 296.456 311.048 296.391 310.932 296.287C310.313 295.706 309.564 295.263 308.739 294.99C307.915 294.717 307.037 294.621 306.168 294.71Z" fill="#F5F5F5"/>
<path d="M303.023 296.08C303.255 295.83 303.54 295.631 303.861 295.496C304.181 295.36 304.529 295.292 304.88 295.295C306.267 295.376 307.591 295.867 308.664 296.699C308.756 296.773 308.828 296.866 308.874 296.971C308.92 297.076 308.939 297.19 308.929 297.303C308.918 297.416 308.879 297.526 308.815 297.622C308.75 297.718 308.663 297.798 308.558 297.856C308.422 297.933 308.262 297.966 308.104 297.95C307.946 297.933 307.798 297.868 307.683 297.765C307.097 297.163 306.372 296.698 305.563 296.405C304.755 296.113 303.885 296.002 303.023 296.08Z" fill="#F5F5F5"/>
<path d="M350.13 196.894C350.664 212.15 350.699 245.19 350.699 245.19C350.865 247.09 351.04 250.46 351.189 257.3C351.408 267.212 351.916 291.686 351.916 291.686C351.916 291.686 346.898 293.908 342.283 292.099C342.283 292.099 335.872 257.688 334.558 247.875C333.411 239.309 331.213 219.221 331.213 219.221L328.182 244.72C328.182 244.72 328.182 251.328 327.771 257.159C327.429 261.702 322.753 285.103 322.753 285.103C319.698 285.868 316.472 285.768 313.478 284.814C313.478 284.814 313.058 248.891 312.97 244.72C312.874 239.978 314.17 188.717 314.17 188.717L350.13 196.894Z" fill="#455A64"/>
<path d="M331.23 219.221L330.074 210.572C326.341 209.672 322.811 208.145 319.652 206.062C319.652 206.062 321.877 208.871 328.41 211.844L329.882 219.691L328.218 244.719L331.23 219.221Z" fill="#37474F"/>
<path d="M313.759 154.083C311.395 157.007 299.23 172.751 299.23 172.751L287.993 164.54C285.366 162.599 284.587 160.055 282.94 158.296C281.294 156.536 279.49 156.115 277.642 154.645C275.794 153.174 275.084 152.059 274.454 153.315C273.823 154.57 275.864 156.759 276.205 157.288C276.547 157.817 278.658 159.08 275.873 158.94C273.088 158.799 267.728 155.801 266.432 155.248C265.135 154.694 265.1 156.206 265.713 157.197C266.327 158.188 266.02 160.947 266.738 162.723C267.456 164.499 268.717 165.589 271.283 166.787C273.674 167.91 279.49 168.612 281.381 169.736C285.533 173.75 293.362 181.242 295.341 182.63C298.065 184.538 300.701 186.297 304.87 182.514C309.039 178.731 321.116 163.888 321.116 163.888L323.612 149.771C319.513 149.631 316.614 150.556 313.759 154.083Z" fill="#B16668"/>
<path d="M299.23 172.751C300.772 173.825 302.375 176.237 302.523 177.319C302.505 176.294 302.263 175.283 301.81 174.351C301.358 173.418 300.707 172.584 299.896 171.9L299.23 172.751Z" fill="#9A4A4D"/>
<path d="M324.576 149.424C324.576 149.424 318.796 149.358 316.256 151.035C313.716 152.712 311.833 155.165 307.708 160.823C304.091 165.779 302.34 168.158 302.34 168.158C304.708 171.461 308.155 173.944 312.157 175.228L322.947 162.624L324.576 149.424Z" fill="#37474F"/>
<path d="M335.76 149.16C339.035 149.457 343.642 149.49 346.882 149.804C349.133 150.68 353.477 154.248 353.153 156.792C351.944 166.299 349.501 181.886 349.501 181.886L350.306 198.406C345.796 202.651 324.69 204.312 313.812 197.522C313.812 197.522 314.163 167.852 314.916 162.83C316.256 153.835 317.429 150.498 322.351 149.705C327.273 148.912 335.76 149.16 335.76 149.16Z" fill="#455FF6"/>
<path d="M354.308 154.323C356.672 157.247 368.846 172.991 368.846 172.991L380.091 164.78C382.718 162.831 383.498 160.287 385.144 158.536C386.791 156.785 388.595 156.355 390.443 154.885C392.291 153.415 393 152.3 393.631 153.547C394.261 154.794 392.221 156.999 391.879 157.528C391.537 158.057 389.427 159.321 392.212 159.18C394.997 159.04 400.348 156.033 401.653 155.48C402.958 154.926 402.975 156.438 402.371 157.429C401.767 158.42 402.056 161.187 401.346 162.963C400.637 164.739 399.367 165.821 396.801 167.027C394.41 168.15 388.595 168.853 386.703 169.976C382.552 173.982 374.722 181.482 372.743 182.862C370.019 184.77 367.383 186.529 363.215 182.754C359.046 178.979 349.517 167.225 349.517 167.225L344.473 150.012C348.563 149.871 351.461 150.796 354.308 154.323Z" fill="#B16668"/>
<path d="M368.848 172.99C367.306 174.064 365.704 176.476 365.555 177.558C365.572 176.531 365.814 175.519 366.266 174.585C366.718 173.651 367.37 172.815 368.182 172.131L368.848 172.99Z" fill="#9A4A4D"/>
<path d="M343.894 149.597C343.894 149.597 349.087 149.292 351.82 151.249C354.281 153.034 356.199 155.379 360.367 161.037C363.984 165.993 365.736 168.372 365.736 168.372C363.363 171.675 359.913 174.157 355.91 175.443L348.562 166.902C344.735 162.326 340.942 155.363 343.894 149.597Z" fill="#37474F"/>
<path d="M336.572 126.792C336.589 128.687 336.01 130.545 334.908 132.129C333.806 133.714 332.231 134.955 330.381 135.695C328.532 136.435 326.491 136.641 324.517 136.288C322.543 135.934 320.725 135.036 319.292 133.708C317.859 132.38 316.876 130.68 316.467 128.825C316.058 126.97 316.241 125.041 316.994 123.284C317.747 121.527 319.035 120.021 320.696 118.954C322.357 117.888 324.316 117.31 326.325 117.293C327.659 117.282 328.983 117.52 330.22 117.991C331.457 118.462 332.583 119.159 333.534 120.041C334.486 120.923 335.244 121.973 335.765 123.132C336.286 124.29 336.56 125.534 336.572 126.792Z" fill="#263238"/>
<path d="M344.043 133.549C344.043 133.549 342.458 140.859 341.81 142.057C341.379 142.8 340.661 143.359 339.805 143.618L339.866 138.48L344.043 133.549Z" fill="#263238"/>
<path d="M341.879 123.117C342.453 123.047 343.036 123.103 343.584 123.279C344.132 123.455 344.63 123.747 345.04 124.133C346.406 125.43 345.688 129.527 344.042 133.549L340.941 133.913L341.879 123.117Z" fill="#263238"/>
<path d="M340.015 133.92C340.637 134.266 341.513 133.094 342.274 132.367C343.036 131.64 345.524 130.549 346.802 133.019C348.081 135.489 345.751 138.9 343.79 139.495C340.4 140.536 339.866 138.479 339.866 138.479L339.726 150.39C335.557 155.536 323.83 155.197 328.665 149.828V146.31C327.155 146.548 325.622 146.634 324.093 146.566C321.588 146.227 320.003 144.377 319.215 141.833C317.963 137.752 317.463 134.448 318.427 126.378C319.478 117.54 330.364 117.358 336.275 120.803C342.187 124.247 340.015 133.92 340.015 133.92Z" fill="#B16668"/>
<path d="M340.023 134.903C340.329 134.903 341.503 133.036 342.274 132.367C343.333 131.434 341.88 123.116 341.88 123.116C342.243 122.378 342.363 121.554 342.222 120.751C342.082 119.948 341.687 119.203 341.091 118.615C339.611 117.103 337.544 115.261 330.888 116.054C326.133 116.624 320.975 118.069 316.78 116.17C316.406 117.458 316.448 118.821 316.901 120.087C317.353 121.352 318.195 122.461 319.319 123.273C319.319 123.273 320.843 124.182 324.828 124.603C328.502 124.831 332.191 124.734 335.845 124.314C337.001 124.157 337.255 125.206 337.903 128.089C338.473 130.608 338.972 134.895 340.023 134.903Z" fill="#263238"/>
<path d="M341.879 123.76L345.619 121.827C345.497 121.588 345.326 121.375 345.114 121.201C344.903 121.027 344.656 120.896 344.389 120.815C344.122 120.733 343.84 120.704 343.56 120.729C343.281 120.754 343.01 120.833 342.764 120.96C342.263 121.229 341.891 121.671 341.726 122.192C341.561 122.714 341.616 123.275 341.879 123.76Z" fill="#263238"/>
<path d="M328.637 146.31C328.637 146.31 334.207 145.203 336.142 144.212C337.283 143.64 338.214 142.756 338.813 141.676C338.531 142.752 338.021 143.763 337.316 144.649C335.906 146.384 328.654 147.706 328.654 147.706L328.637 146.31Z" fill="#9A4A4D"/>
<path d="M328.192 133.077C328.189 133.218 328.216 133.358 328.272 133.488C328.327 133.619 328.409 133.738 328.513 133.838C328.617 133.939 328.742 134.019 328.879 134.074C329.016 134.129 329.163 134.158 329.313 134.159C329.545 134.168 329.775 134.11 329.973 133.993C330.171 133.877 330.327 133.708 330.421 133.507C330.515 133.306 330.544 133.083 330.503 132.867C330.461 132.65 330.352 132.451 330.189 132.294C330.027 132.137 329.818 132.029 329.589 131.985C329.361 131.941 329.124 131.963 328.909 132.047C328.694 132.131 328.511 132.275 328.383 132.458C328.255 132.642 328.188 132.858 328.192 133.077Z" fill="#263238"/>
<path d="M331.512 129.452L329.025 128.387C328.88 128.708 328.872 129.069 329.003 129.395C329.133 129.721 329.392 129.987 329.725 130.138C329.89 130.207 330.067 130.243 330.247 130.246C330.427 130.249 330.606 130.217 330.773 130.153C330.94 130.089 331.091 129.994 331.218 129.874C331.345 129.753 331.445 129.61 331.512 129.452Z" fill="#263238"/>
<path d="M320.87 128.154L318.707 129.757C318.809 129.896 318.941 130.013 319.093 130.102C319.246 130.191 319.416 130.249 319.594 130.273C319.771 130.297 319.952 130.287 320.125 130.242C320.298 130.197 320.459 130.119 320.599 130.013C320.886 129.794 321.074 129.479 321.124 129.134C321.175 128.789 321.084 128.439 320.87 128.154Z" fill="#263238"/>
<path d="M319.567 132.821C319.577 133.018 319.649 133.208 319.773 133.368C319.897 133.527 320.067 133.648 320.264 133.717C320.46 133.785 320.674 133.798 320.877 133.753C321.081 133.708 321.267 133.607 321.411 133.464C321.554 133.32 321.65 133.14 321.687 132.945C321.723 132.751 321.697 132.551 321.614 132.369C321.53 132.188 321.392 132.034 321.217 131.927C321.041 131.819 320.836 131.762 320.627 131.764C320.483 131.767 320.342 131.797 320.211 131.852C320.08 131.907 319.962 131.986 319.863 132.084C319.765 132.182 319.688 132.298 319.637 132.425C319.586 132.551 319.562 132.686 319.567 132.821Z" fill="#263238"/>
<path d="M325.363 131.971L324.733 138.29L321.273 137.034L325.363 131.971Z" fill="#9A4A4D"/>
<path d="M327.262 140.66C327.26 140.861 327.322 141.059 327.439 141.227C327.556 141.395 327.724 141.526 327.921 141.605C328.117 141.683 328.334 141.704 328.544 141.666C328.753 141.628 328.946 141.531 329.098 141.39C329.249 141.248 329.353 141.067 329.395 140.87C329.437 140.672 329.416 140.468 329.335 140.281C329.254 140.095 329.116 139.936 328.938 139.824C328.761 139.712 328.552 139.652 328.339 139.652C328.055 139.652 327.782 139.758 327.58 139.947C327.379 140.136 327.264 140.392 327.262 140.66Z" fill="#9A4A4D"/>
<path d="M354.605 73.3653C356.275 73.7161 357.885 74.286 359.387 75.0586C360.824 75.7879 362.111 76.7529 363.188 77.9083C364.225 79.0277 364.99 80.347 365.43 81.774C365.891 83.2866 365.927 84.8862 365.535 86.4161C365.276 87.6305 364.764 88.7843 364.029 89.8109C363.368 90.6942 362.575 91.4817 361.673 92.1485C360.79 92.7945 359.85 93.3666 358.862 93.8583L356.077 95.246C355.236 95.6598 354.439 96.1465 353.694 96.6998C353.022 97.1811 352.506 97.8307 352.206 98.5748C352.054 98.9066 351.809 99.1924 351.496 99.4008C351.346 99.509 351.172 99.5838 350.987 99.6195C350.802 99.6553 350.611 99.6511 350.428 99.6073L346.329 98.7813C346.132 98.7422 345.946 98.6665 345.78 98.5587C345.615 98.451 345.474 98.3132 345.366 98.1535C345.251 98.004 345.175 97.8311 345.145 97.6488C345.115 97.4665 345.13 97.28 345.191 97.1045C345.532 95.9029 346.128 94.779 346.942 93.8005C347.676 92.937 348.523 92.1653 349.464 91.5042C350.373 90.8771 351.337 90.3244 352.346 89.8522C353.344 89.3814 354.272 88.9271 355.131 88.4811C355.916 88.0901 356.653 87.6192 357.329 87.0769C357.919 86.6085 358.328 85.9698 358.494 85.2597C358.645 84.6395 358.635 83.994 358.464 83.3783C358.293 82.7626 357.967 82.1952 357.513 81.7244C356.381 80.5572 354.867 79.7809 353.213 79.519C350.153 78.8747 347.567 79.8466 345.453 82.4348C345.25 82.7181 344.992 82.9621 344.691 83.1534C344.529 83.2315 344.351 83.2782 344.169 83.291C343.987 83.3038 343.805 83.2823 343.632 83.2277L339.253 82.3109C339.098 82.2828 338.951 82.226 338.821 82.1437C338.69 82.0615 338.578 81.9554 338.491 81.8318C338.395 81.7053 338.331 81.5603 338.302 81.4075C338.274 81.2547 338.281 81.0977 338.324 80.948C338.693 79.6785 339.384 78.5131 340.339 77.5531C341.41 76.4376 342.682 75.5092 344.096 74.8108C345.645 74.0436 347.316 73.5191 349.044 73.2579C350.887 72.952 352.777 72.9885 354.605 73.3653ZM349.981 102.721C350.173 102.76 350.355 102.836 350.515 102.944C350.674 103.052 350.809 103.19 350.909 103.349C351.017 103.503 351.091 103.676 351.125 103.858C351.16 104.04 351.155 104.226 351.111 104.406L350.06 108.883C349.972 109.241 349.74 109.552 349.413 109.751C349.086 109.949 348.69 110.021 348.308 109.949L343.667 108.982C343.476 108.944 343.295 108.869 343.135 108.762C342.976 108.656 342.841 108.52 342.738 108.363C342.629 108.209 342.555 108.036 342.52 107.854C342.486 107.672 342.491 107.485 342.537 107.306L343.588 102.82C343.676 102.463 343.908 102.152 344.235 101.953C344.562 101.754 344.958 101.683 345.339 101.755L349.981 102.721Z" fill="#455FF6"/>
<path d="M368.372 115.482C369.531 115.302 370.71 115.28 371.875 115.416C372.996 115.536 374.084 115.844 375.089 116.325C376.05 116.788 376.892 117.442 377.559 118.241C378.266 119.098 378.722 120.115 378.882 121.19C379.063 122.026 379.063 122.889 378.882 123.726C378.699 124.454 378.404 125.152 378.006 125.799C377.616 126.422 377.17 127.014 376.675 127.566L375.265 129.136C374.84 129.605 374.459 130.108 374.126 130.639C373.829 131.111 373.678 131.652 373.688 132.2C373.687 132.458 373.608 132.71 373.461 132.927C373.394 133.031 373.303 133.12 373.196 133.187C373.088 133.254 372.966 133.298 372.839 133.315L369.975 133.761C369.698 133.803 369.416 133.74 369.187 133.588C369.074 133.519 368.98 133.426 368.912 133.317C368.844 133.209 368.803 133.086 368.793 132.96C368.673 132.114 368.741 131.253 368.994 130.433C369.221 129.697 369.554 128.994 369.984 128.343C370.394 127.72 370.86 127.131 371.376 126.584C371.893 126.038 372.357 125.526 372.795 125.031C373.19 124.59 373.533 124.111 373.82 123.602C374.071 123.159 374.16 122.651 374.074 122.156C374.002 121.721 373.82 121.309 373.542 120.955C373.265 120.601 372.9 120.316 372.48 120.124C371.442 119.646 370.263 119.512 369.134 119.744C368.113 119.886 367.163 120.322 366.414 120.991C365.665 121.661 365.153 122.532 364.948 123.486C364.892 123.719 364.791 123.94 364.65 124.139C364.48 124.314 364.245 124.421 363.993 124.436L360.946 124.907C360.729 124.94 360.507 124.896 360.324 124.783C360.228 124.724 360.147 124.647 360.086 124.555C360.026 124.464 359.987 124.361 359.973 124.254C359.867 123.352 359.997 122.439 360.35 121.595C360.73 120.618 361.294 119.714 362.014 118.927C362.8 118.062 363.728 117.323 364.764 116.738C365.869 116.102 367.094 115.676 368.372 115.482ZM373.373 135.463C373.507 135.442 373.645 135.446 373.777 135.476C373.909 135.506 374.034 135.56 374.144 135.637C374.253 135.71 374.346 135.803 374.417 135.911C374.487 136.019 374.535 136.139 374.555 136.264L375.098 139.387C375.121 139.513 375.116 139.643 375.085 139.768C375.053 139.892 374.995 140.01 374.914 140.113C374.838 140.218 374.739 140.306 374.624 140.373C374.51 140.44 374.382 140.483 374.249 140.502L371.008 141.006C370.875 141.026 370.74 141.021 370.609 140.992C370.478 140.962 370.355 140.908 370.246 140.832C370.134 140.76 370.039 140.668 369.966 140.56C369.894 140.452 369.846 140.331 369.826 140.204L369.283 137.074C369.243 136.816 369.312 136.555 369.477 136.346C369.641 136.137 369.886 135.997 370.159 135.959L373.373 135.463Z" fill="#455FF6"/>
<g opacity="0.2">
<path d="M368.372 115.482C369.531 115.302 370.71 115.28 371.875 115.416C372.996 115.536 374.084 115.844 375.089 116.325C376.05 116.788 376.892 117.442 377.559 118.241C378.266 119.098 378.722 120.115 378.882 121.19C379.063 122.026 379.063 122.889 378.882 123.726C378.699 124.454 378.404 125.152 378.006 125.799C377.616 126.422 377.17 127.014 376.675 127.566L375.265 129.136C374.84 129.605 374.459 130.108 374.126 130.639C373.829 131.111 373.678 131.652 373.688 132.2C373.687 132.458 373.608 132.71 373.461 132.927C373.394 133.031 373.303 133.12 373.196 133.187C373.088 133.254 372.966 133.298 372.839 133.315L369.975 133.761C369.698 133.803 369.416 133.74 369.187 133.588C369.074 133.519 368.98 133.426 368.912 133.317C368.844 133.209 368.803 133.086 368.793 132.96C368.673 132.114 368.741 131.253 368.994 130.433C369.221 129.697 369.554 128.994 369.984 128.343C370.394 127.72 370.86 127.131 371.376 126.584C371.893 126.038 372.357 125.526 372.795 125.031C373.19 124.59 373.533 124.111 373.82 123.602C374.071 123.159 374.16 122.651 374.074 122.156C374.002 121.721 373.82 121.309 373.542 120.955C373.265 120.601 372.9 120.316 372.48 120.124C371.442 119.646 370.263 119.512 369.134 119.744C368.113 119.886 367.163 120.322 366.414 120.991C365.665 121.661 365.153 122.532 364.948 123.486C364.892 123.719 364.791 123.94 364.65 124.139C364.48 124.314 364.245 124.421 363.993 124.436L360.946 124.907C360.729 124.94 360.507 124.896 360.324 124.783C360.228 124.724 360.147 124.647 360.086 124.555C360.026 124.464 359.987 124.361 359.973 124.254C359.867 123.352 359.997 122.439 360.35 121.595C360.73 120.618 361.294 119.714 362.014 118.927C362.8 118.062 363.728 117.323 364.764 116.738C365.869 116.102 367.094 115.676 368.372 115.482ZM373.373 135.463C373.507 135.442 373.645 135.446 373.777 135.476C373.909 135.506 374.034 135.56 374.144 135.637C374.253 135.71 374.346 135.803 374.417 135.911C374.487 136.019 374.535 136.139 374.555 136.264L375.098 139.387C375.121 139.513 375.116 139.643 375.085 139.768C375.053 139.892 374.995 140.01 374.914 140.113C374.838 140.218 374.739 140.306 374.624 140.373C374.51 140.44 374.382 140.483 374.249 140.502L371.008 141.006C370.875 141.026 370.74 141.021 370.609 140.992C370.478 140.962 370.355 140.908 370.246 140.832C370.134 140.76 370.039 140.668 369.966 140.56C369.894 140.452 369.846 140.331 369.826 140.204L369.283 137.074C369.243 136.816 369.312 136.555 369.477 136.346C369.641 136.137 369.886 135.997 370.159 135.959L373.373 135.463Z" fill="black"/>
</g>
<path d="M398.236 124.346C398.496 124.525 398.672 124.792 398.726 125.092C398.78 125.391 398.708 125.698 398.525 125.948L396.213 129.004C396.024 129.25 395.74 129.416 395.423 129.466C395.105 129.517 394.779 129.449 394.514 129.277L391.344 127.154C391.213 127.068 391.102 126.957 391.018 126.83C390.934 126.702 390.878 126.559 390.853 126.411C390.807 126.121 390.879 125.826 391.055 125.585L393.367 122.52C393.555 122.274 393.838 122.108 394.155 122.058C394.463 122.014 394.777 122.085 395.031 122.256L398.236 124.346ZM411.618 103.621C412.762 104.382 413.782 105.295 414.649 106.331C415.485 107.317 416.129 108.435 416.549 109.635C416.951 110.781 417.085 111.995 416.943 113.195C416.779 114.472 416.266 115.687 415.454 116.722C414.849 117.558 414.076 118.274 413.177 118.828C412.379 119.296 411.511 119.649 410.602 119.877C409.722 120.099 408.822 120.248 407.914 120.323L405.339 120.53C404.57 120.596 403.808 120.723 403.062 120.91C402.394 121.076 401.788 121.413 401.31 121.884C401.081 122.095 400.797 122.246 400.487 122.322C400.337 122.356 400.18 122.358 400.029 122.328C399.877 122.298 399.735 122.237 399.611 122.149L396.809 120.274C396.541 120.092 396.359 119.82 396.301 119.514C396.267 119.369 396.27 119.22 396.308 119.076C396.346 118.933 396.418 118.8 396.52 118.688C397.172 117.882 397.991 117.21 398.928 116.714C399.771 116.277 400.673 115.95 401.608 115.739C402.505 115.534 403.42 115.402 404.341 115.342C405.216 115.293 406.092 115.227 406.898 115.152C407.621 115.094 408.335 114.958 409.026 114.748C409.628 114.575 410.152 114.217 410.515 113.732C410.84 113.311 411.052 112.822 411.131 112.306C411.211 111.791 411.156 111.265 410.97 110.775C410.514 109.557 409.638 108.519 408.483 107.826C406.399 106.422 404.122 106.375 401.652 107.685C401.403 107.835 401.127 107.942 400.837 107.999C400.687 108.009 400.536 107.991 400.393 107.946C400.251 107.9 400.119 107.829 400.005 107.735L397.028 105.736C396.811 105.597 396.66 105.384 396.607 105.141C396.582 105.017 396.585 104.89 396.617 104.767C396.649 104.644 396.708 104.53 396.791 104.431C397.485 103.586 398.387 102.914 399.419 102.473C400.603 101.956 401.875 101.641 403.176 101.54C404.6 101.43 406.034 101.536 407.423 101.854C408.932 102.175 410.358 102.776 411.618 103.621Z" fill="#455FF6"/>
<g opacity="0.6">
<path d="M398.236 124.346C398.496 124.525 398.672 124.792 398.726 125.092C398.78 125.391 398.708 125.698 398.525 125.948L396.213 129.004C396.024 129.25 395.74 129.416 395.423 129.466C395.105 129.517 394.779 129.449 394.514 129.277L391.344 127.154C391.213 127.068 391.102 126.957 391.018 126.83C390.934 126.702 390.878 126.559 390.853 126.411C390.807 126.121 390.879 125.826 391.055 125.585L393.367 122.52C393.555 122.274 393.838 122.108 394.155 122.058C394.463 122.014 394.777 122.085 395.031 122.256L398.236 124.346ZM411.618 103.621C412.762 104.382 413.782 105.295 414.649 106.331C415.485 107.317 416.129 108.435 416.549 109.635C416.951 110.781 417.085 111.995 416.943 113.195C416.779 114.472 416.266 115.687 415.454 116.722C414.849 117.558 414.076 118.274 413.177 118.828C412.379 119.296 411.511 119.649 410.602 119.877C409.722 120.099 408.822 120.248 407.914 120.323L405.339 120.53C404.57 120.596 403.808 120.723 403.062 120.91C402.394 121.076 401.788 121.413 401.31 121.884C401.081 122.095 400.797 122.246 400.487 122.322C400.337 122.356 400.18 122.358 400.029 122.328C399.877 122.298 399.735 122.237 399.611 122.149L396.809 120.274C396.541 120.092 396.359 119.82 396.301 119.514C396.267 119.369 396.27 119.22 396.308 119.076C396.346 118.933 396.418 118.8 396.52 118.688C397.172 117.882 397.991 117.21 398.928 116.714C399.771 116.277 400.673 115.95 401.608 115.739C402.505 115.534 403.42 115.402 404.341 115.342C405.216 115.293 406.092 115.227 406.898 115.152C407.621 115.094 408.335 114.958 409.026 114.748C409.628 114.575 410.152 114.217 410.515 113.732C410.84 113.311 411.052 112.822 411.131 112.306C411.211 111.791 411.156 111.265 410.97 110.775C410.514 109.557 409.638 108.519 408.483 107.826C406.399 106.422 404.122 106.375 401.652 107.685C401.403 107.835 401.127 107.942 400.837 107.999C400.687 108.009 400.536 107.991 400.393 107.946C400.251 107.9 400.119 107.829 400.005 107.735L397.028 105.736C396.811 105.597 396.66 105.384 396.607 105.141C396.582 105.017 396.585 104.89 396.617 104.767C396.649 104.644 396.708 104.53 396.791 104.431C397.485 103.586 398.387 102.914 399.419 102.473C400.603 101.956 401.875 101.641 403.176 101.54C404.6 101.43 406.034 101.536 407.423 101.854C408.932 102.175 410.358 102.776 411.618 103.621Z" fill="white"/>
</g>
<path d="M116.026 287.878C115.939 285.4 117.83 261.182 117.83 261.182L105.324 269.739C107.89 284.177 108.442 287.589 108.486 289.951C108.433 290.148 108.409 290.351 108.416 290.554C108.416 293.363 111.788 294.874 114.406 296.749C116.632 298.391 119.002 299.85 121.491 301.11C123.392 302.011 127.263 302.093 127.736 300.937C124.548 298.641 119.915 295.205 117.375 292.586C116.166 291.331 116.123 290.339 116.026 287.878Z" fill="#FFA8A7"/>
<path d="M133.178 303.968C133.32 304.354 133.345 304.769 133.25 305.167C133.156 305.565 132.946 305.931 132.644 306.223C130.347 307.785 127.488 308.426 124.692 308.007C120.715 307.52 118.561 306.454 116.976 305.199C115.391 303.943 113.157 302.176 111.353 301.804C109.919 301.546 108.555 301.018 107.342 300.251C106.808 299.764 106.878 297.6 106.878 297.6L133.178 303.968Z" fill="#263238"/>
<path d="M108.462 289.266C108.315 289.27 108.174 289.322 108.063 289.415C107.953 289.507 107.88 289.632 107.858 289.769C107.735 290.364 107.604 292.099 107.341 293.073C106.934 294.797 106.804 296.567 106.956 298.327C107.174 299.442 109.889 300.21 111.632 300.805C113.682 301.646 115.584 302.777 117.272 304.158C119.709 305.877 122.618 306.901 125.654 307.107C128.719 307.107 132.169 306.149 132.966 304.811C133.938 303.159 133.177 302.193 128.631 300.202C127.755 299.83 124.751 298.137 123.718 297.526C120.933 295.874 118.174 293.569 116.887 290.645C116.783 290.288 116.555 289.973 116.239 289.753C115.963 289.641 115.657 289.612 115.363 289.67C114.604 289.775 113.866 289.986 113.174 290.298C112.569 290.571 111.702 290.893 111.711 291.628C111.73 291.883 111.789 292.133 111.886 292.371C111.939 292.528 111.983 292.727 111.886 292.817C111.79 292.908 111.58 292.817 111.457 292.702C111.011 292.272 110.604 291.808 110.24 291.314C110.024 291.061 109.781 290.832 109.513 290.629C109.245 290.485 108.987 290.325 108.742 290.149C108.409 289.926 108.479 289.613 108.462 289.266Z" fill="#455A64"/>
<path d="M117.271 304.2C116.474 303.589 115.634 302.986 114.793 302.457C114.793 302.457 120.135 305.522 122.29 304.109C122.69 303.87 122.982 303.5 123.111 303.07C123.24 302.641 123.197 302.181 122.99 301.78C122.99 301.433 126.388 299.938 127.737 299.789C128.114 299.987 128.429 300.144 128.613 300.227C133.158 302.218 133.92 303.176 132.948 304.836C132.151 306.174 129.655 307.223 125.697 307.223C123.122 307.273 119.111 305.621 117.271 304.2Z" fill="#37474F"/>
<path d="M122.614 300.779C125.443 301.845 124.234 302.34 123.446 302.431C122.658 302.522 117.902 299.953 114.994 297.756C112.087 295.559 110.064 293.023 108.943 292.197C108.522 291.891 108.067 291.511 107.664 291.156C107.743 290.57 107.804 290.033 107.857 289.752C107.879 289.615 107.952 289.489 108.062 289.397C108.173 289.305 108.314 289.252 108.461 289.248C108.461 289.595 108.408 289.917 108.689 290.173C108.934 290.349 109.191 290.509 109.459 290.652C109.727 290.855 109.971 291.085 110.186 291.338C110.551 291.831 110.958 292.295 111.404 292.726C114.555 296.066 118.362 298.801 122.614 300.779Z" fill="#263238"/>
<path d="M123.245 302.06C123.18 302.058 123.118 302.034 123.069 301.994C123.041 301.973 123.017 301.947 123 301.917C122.982 301.887 122.971 301.855 122.967 301.821C122.963 301.787 122.966 301.753 122.976 301.72C122.986 301.687 123.003 301.657 123.026 301.63C123.692 300.978 124.498 300.468 125.391 300.134C126.284 299.801 127.242 299.652 128.202 299.697C128.277 299.706 128.345 299.742 128.393 299.797C128.44 299.853 128.463 299.924 128.456 299.995C128.447 300.064 128.41 300.126 128.352 300.17C128.295 300.213 128.222 300.233 128.149 300.226C127.283 300.192 126.419 300.329 125.612 300.628C124.806 300.926 124.074 301.38 123.464 301.961C123.437 301.991 123.403 302.016 123.366 302.033C123.328 302.05 123.287 302.059 123.245 302.06Z" fill="#F5F5F5"/>
<path d="M120.785 300.665C120.718 300.668 120.653 300.647 120.601 300.607C120.551 300.557 120.523 300.49 120.523 300.421C120.523 300.352 120.551 300.286 120.601 300.235C121.269 299.585 122.076 299.077 122.968 298.745C123.861 298.413 124.819 298.265 125.777 298.311C125.851 298.318 125.919 298.354 125.966 298.409C126.013 298.464 126.035 298.534 126.027 298.604C126.018 298.674 125.981 298.738 125.923 298.782C125.864 298.827 125.79 298.847 125.716 298.839C124.849 298.804 123.985 298.939 123.178 299.238C122.371 299.537 121.639 299.992 121.03 300.574C121 300.607 120.962 300.632 120.92 300.648C120.877 300.664 120.831 300.67 120.785 300.665Z" fill="#F5F5F5"/>
<path d="M118.315 299.268C118.251 299.269 118.189 299.248 118.14 299.21C118.088 299.161 118.059 299.094 118.059 299.025C118.059 298.955 118.088 298.888 118.14 298.839C118.807 298.189 119.615 297.681 120.507 297.35C121.4 297.018 122.357 296.869 123.315 296.914C123.352 296.917 123.388 296.927 123.421 296.943C123.454 296.96 123.483 296.982 123.506 297.009C123.53 297.036 123.548 297.067 123.559 297.1C123.569 297.133 123.573 297.168 123.569 297.203C123.566 297.238 123.556 297.272 123.538 297.303C123.521 297.334 123.498 297.361 123.469 297.383C123.441 297.405 123.408 297.422 123.372 297.432C123.337 297.443 123.3 297.446 123.263 297.443C122.397 297.407 121.532 297.543 120.725 297.841C119.918 298.14 119.186 298.595 118.577 299.177C118.545 299.212 118.504 299.238 118.458 299.254C118.412 299.27 118.363 299.275 118.315 299.268Z" fill="#F5F5F5"/>
<path d="M116.029 297.724C115.966 297.725 115.904 297.704 115.854 297.666C115.828 297.642 115.806 297.613 115.792 297.581C115.777 297.549 115.77 297.515 115.77 297.48C115.77 297.445 115.777 297.411 115.792 297.379C115.806 297.347 115.828 297.318 115.854 297.294C116.521 296.643 117.328 296.135 118.221 295.803C119.114 295.471 120.072 295.323 121.03 295.37C121.103 295.378 121.17 295.413 121.215 295.467C121.261 295.521 121.283 295.59 121.275 295.659C121.267 295.728 121.23 295.79 121.172 295.834C121.115 295.877 121.042 295.897 120.969 295.89C120.103 295.858 119.24 295.995 118.433 296.294C117.627 296.592 116.895 297.046 116.283 297.625C116.254 297.66 116.215 297.688 116.17 297.706C116.126 297.723 116.077 297.729 116.029 297.724Z" fill="#F5F5F5"/>
<path d="M113.795 296.179C113.732 296.177 113.671 296.156 113.62 296.122C113.568 296.072 113.539 296.005 113.539 295.936C113.539 295.866 113.568 295.799 113.62 295.75C114.342 295.041 115.226 294.497 116.205 294.159C117.184 293.821 118.232 293.699 119.269 293.8C119.306 293.802 119.342 293.811 119.375 293.827C119.408 293.843 119.437 293.866 119.46 293.893C119.483 293.92 119.5 293.952 119.509 293.986C119.519 294.02 119.52 294.055 119.514 294.09C119.505 294.158 119.468 294.221 119.411 294.264C119.354 294.308 119.281 294.328 119.208 294.321C118.265 294.233 117.314 294.345 116.423 294.648C115.532 294.951 114.724 295.437 114.058 296.072C114.027 296.109 113.987 296.139 113.941 296.157C113.895 296.176 113.845 296.184 113.795 296.179Z" fill="#F5F5F5"/>
<path d="M92.4677 272.209L79.8477 271.994C80.0316 279.94 81.3715 288.754 81.5992 296.204C81.5992 297.608 81.5992 307.107 82.1247 309.998C83.0005 314.335 88.4304 313.748 88.7194 311.155C89.0084 308.561 88.3691 297.468 88.3866 296.287C88.334 291.513 90.7074 283.443 91.9598 274.86C92.0123 274.472 92.4064 272.622 92.4677 272.209Z" fill="#FFA8A7"/>
<path d="M90.7691 312.955C91.0035 314.943 90.7023 316.954 89.8933 318.803C89.4928 319.538 88.8465 320.127 88.0548 320.479C87.263 320.832 86.37 320.928 85.5144 320.753C83.649 320.497 81.188 319.555 80.4348 317.449C79.7217 315.509 79.4705 313.444 79.6992 311.402L90.7691 312.955Z" fill="#263238"/>
<path d="M81.5657 295.295C80.8213 295.419 80.9614 298.847 80.8913 302.291C80.8125 305.992 79.8229 307.611 79.7265 310.642C79.6127 314.111 79.9718 315.598 81.4781 317.564C82.9845 319.53 87.6874 321.116 89.5879 317.944C91.138 315.358 90.9278 312.674 90.3936 309.271C89.8594 305.868 89.439 303.291 89.2989 300.598C89.1588 297.905 89.0975 295.518 88.4231 295.295C88.4231 295.675 88.4231 296.162 88.4231 296.534C88.4231 296.906 88.4844 298.186 88.064 298.269C87.9992 297.95 87.9611 297.627 87.9502 297.302C87.9696 297.002 87.8662 296.706 87.6612 296.476C87.4078 296.3 87.1001 296.207 86.7854 296.212C86.0352 296.132 85.2808 296.093 84.5259 296.096C84.1493 296.096 83.7639 296.096 83.3961 296.154C83.0725 296.177 82.7555 296.253 82.459 296.377C82.3717 296.412 82.2931 296.464 82.2282 296.53C82.1634 296.595 82.1137 296.672 82.0824 296.757C82.0561 296.888 82.0561 297.022 82.0824 297.153C82.1131 297.389 82.1131 297.628 82.0824 297.864C82.0824 297.971 82.0036 298.103 81.8897 298.087C81.7759 298.07 81.7584 297.971 81.7496 297.889C81.6971 297.476 81.7496 297.17 81.6971 296.691C81.6971 296.468 81.6971 296.162 81.6971 295.939C81.6971 295.716 81.5744 295.518 81.5657 295.295Z" fill="#455A64"/>
<path d="M79.7866 309.651C79.7866 310.155 79.6727 313.467 80.6623 313.963C81.652 314.458 82.0373 311.881 82.0373 311.881C82.0373 311.881 84.3582 310.964 88.0014 312.071C87.8788 312.616 88.597 314.318 89.5165 313.855C90.4361 313.393 90.3923 309.618 90.3923 309.568C90.8915 312.872 91.0492 315.433 89.5165 317.944C87.6161 321.116 82.8956 319.513 81.4068 317.564C79.9179 315.615 79.5589 314.111 79.6552 310.642C79.699 310.295 79.7603 309.973 79.7866 309.651Z" fill="#37474F"/>
<path d="M82.3298 312.071C82.4437 313.31 81.1125 313.021 80.8672 311.245C80.622 309.469 81.2 305.265 80.8672 302.258C80.9373 298.814 80.7972 295.386 81.5416 295.262C81.5373 295.303 81.5373 295.344 81.5416 295.386L81.6292 297.128C81.6119 297.376 81.6119 297.624 81.6292 297.872C81.8744 300.399 82.0233 305.306 82.032 307.635C82.0475 309.118 82.1469 310.598 82.3298 312.071Z" fill="#263238"/>
<path d="M87.5824 312.071C87.754 310.609 87.8388 309.139 87.8364 307.668C87.8364 305.356 87.994 300.507 88.2392 297.963C88.3341 297.492 88.3723 297.013 88.3531 296.534C88.3531 296.187 88.3531 295.708 88.3531 295.378C88.3531 295.378 88.3531 295.328 88.3531 295.295C88.8435 295.468 89.0187 296.831 89.1238 298.549C89.1238 299.549 89.1238 300.788 89.0274 302.291C88.6946 305.298 89.2727 309.56 89.0274 311.303C88.7822 313.046 87.4948 313.31 87.5824 312.071Z" fill="#263238"/>
<path d="M88.1012 312.162H88.0048C86.1125 311.546 84.0557 311.546 82.1633 312.162C82.1288 312.174 82.0921 312.18 82.0551 312.179C82.0182 312.178 81.9818 312.171 81.9481 312.156C81.9143 312.142 81.8839 312.122 81.8584 312.097C81.833 312.071 81.8131 312.042 81.7999 312.009C81.7867 311.977 81.7804 311.942 81.7813 311.907C81.7823 311.872 81.7906 311.838 81.8056 311.806C81.8207 311.774 81.8422 311.745 81.869 311.721C81.8958 311.698 81.9274 311.679 81.9619 311.666C83.9809 310.986 86.1873 310.986 88.2063 311.666C88.2407 311.678 88.2722 311.696 88.2989 311.72C88.3256 311.744 88.347 311.772 88.3617 311.804C88.3765 311.836 88.3843 311.87 88.3846 311.904C88.385 311.939 88.378 311.973 88.3639 312.005C88.3424 312.053 88.3057 312.094 88.2587 312.122C88.2117 312.15 88.1567 312.164 88.1012 312.162Z" fill="#F5F5F5"/>
<path d="M88.4576 309.42C88.426 309.427 88.3929 309.427 88.3613 309.42C86.2336 308.797 83.9556 308.797 81.8279 309.42C81.7929 309.432 81.7557 309.437 81.7186 309.435C81.6814 309.433 81.6451 309.424 81.6117 309.408C81.5783 309.393 81.5484 309.371 81.5239 309.345C81.4994 309.319 81.4807 309.288 81.4688 309.255C81.4566 309.222 81.4514 309.188 81.4536 309.153C81.4558 309.119 81.4654 309.085 81.4818 309.054C81.4981 309.023 81.5209 308.996 81.5488 308.974C81.5767 308.951 81.6091 308.935 81.644 308.924C83.8917 308.249 86.3063 308.249 88.554 308.924C88.6155 308.946 88.6671 308.987 88.6997 309.041C88.7323 309.095 88.7438 309.157 88.7324 309.218C88.7209 309.279 88.6871 309.334 88.6369 309.374C88.5867 309.414 88.5233 309.436 88.4576 309.436V309.42Z" fill="#F5F5F5"/>
<path d="M81.7152 306.825C81.6616 306.824 81.6095 306.809 81.5646 306.781C81.5198 306.753 81.484 306.714 81.4612 306.668C81.4316 306.605 81.4296 306.533 81.4559 306.468C81.4821 306.403 81.5344 306.35 81.6014 306.322C83.8137 305.501 86.2706 305.486 88.4938 306.28C88.5282 306.292 88.5597 306.31 88.5865 306.334C88.6132 306.358 88.6345 306.386 88.6493 306.418C88.664 306.449 88.6718 306.484 88.6722 306.518C88.6725 306.553 88.6655 306.587 88.6514 306.619C88.6241 306.683 88.5712 306.735 88.5041 306.762C88.437 306.79 88.361 306.792 88.2924 306.768C88.2924 306.768 84.8593 305.496 81.8378 306.768C81.8021 306.795 81.7602 306.815 81.7152 306.825Z" fill="#F5F5F5"/>
<path d="M81.6543 304.397C81.6014 304.398 81.5494 304.384 81.5045 304.358C81.4595 304.331 81.4234 304.294 81.4003 304.249C81.37 304.186 81.3668 304.115 81.3913 304.05C81.4159 303.985 81.4662 303.932 81.5316 303.902C82.6296 303.43 83.8199 303.179 85.0265 303.167C86.233 303.154 87.429 303.379 88.5379 303.827C88.5711 303.842 88.601 303.862 88.6257 303.887C88.6504 303.912 88.6694 303.942 88.6817 303.975C88.6939 304.007 88.6992 304.041 88.697 304.076C88.6949 304.11 88.6855 304.143 88.6693 304.174C88.6543 304.206 88.6327 304.234 88.6059 304.257C88.5791 304.28 88.5476 304.298 88.5133 304.31C88.4789 304.321 88.4425 304.326 88.4061 304.324C88.3697 304.322 88.3341 304.313 88.3015 304.298C87.261 303.892 86.144 303.689 85.0179 303.702C83.8919 303.714 82.7803 303.943 81.7506 304.373C81.7201 304.386 81.6876 304.394 81.6543 304.397Z" fill="#F5F5F5"/>
<path d="M81.5931 301.68C81.5289 301.681 81.4664 301.661 81.4159 301.623C81.3654 301.586 81.33 301.533 81.3157 301.475C81.3013 301.416 81.3089 301.354 81.337 301.299C81.3652 301.245 81.4123 301.201 81.4704 301.176C84.8072 299.623 88.4067 301.11 88.5556 301.176C88.5904 301.188 88.622 301.207 88.6484 301.232C88.6748 301.257 88.6952 301.287 88.7085 301.319C88.7217 301.352 88.7274 301.387 88.7252 301.422C88.723 301.457 88.7129 301.492 88.6957 301.523C88.6651 301.586 88.6093 301.635 88.5405 301.66C88.4717 301.685 88.3953 301.683 88.3278 301.655C88.3278 301.655 84.8247 300.209 81.7244 301.655C81.6839 301.674 81.6384 301.683 81.5931 301.68Z" fill="#F5F5F5"/>
<path d="M83.9986 194.936C79.5496 206.557 80.3291 213.851 81.091 226.034C81.7916 237.202 82.9039 247.04 82.9039 247.04C82.7287 249.022 79.8036 252.888 79.4008 261.643C79.2716 267.808 79.5642 273.975 80.2765 280.104C80.2765 280.104 86.1005 282.112 91.0224 280.104C91.0224 280.104 96.0582 259.132 97.4332 248.882C98.6243 239.936 100.709 228.504 100.709 228.504L105.088 248.84C104.232 251.573 103.792 254.407 103.783 257.257C103.783 262.04 106.139 275.338 106.139 275.338C106.139 275.338 112.663 277.329 116.797 273.868C116.797 273.868 118.435 254.73 119.013 247.436C119.783 237.706 118.662 211.034 116.184 197.381L83.9986 194.936Z" fill="#455A64"/>
<path d="M100.762 228.472L102.583 213.175C102.583 213.175 110.737 212.15 114.433 208.871C113.373 210.435 111.959 211.759 110.294 212.748C108.629 213.738 106.753 214.369 104.799 214.595L102.172 228.836L105.149 248.808L100.762 228.472Z" fill="#37474F"/>
<path d="M120.923 183.595C116.956 179.746 109.792 171.04 109.792 171.04L105.746 157.824C106.65 157.868 107.557 157.868 108.461 157.824C112.84 158.096 114.127 158.452 116.851 161.26C119.014 163.498 127.264 174.121 130.128 177.697L137.739 168.553C139.569 165.952 139.271 163.036 140.217 160.913C141.163 158.79 142.696 157.857 143.922 155.957C145.148 154.057 145.437 152.785 146.444 153.768C147.451 154.751 146.286 157.394 146.137 157.997C145.988 158.6 144.447 160.393 147.013 159.459C149.579 158.526 153.538 154.107 154.554 153.206C155.57 152.306 156.113 153.702 155.885 154.809C155.657 155.916 156.761 158.41 156.358 160.236C156.107 162.072 155.139 163.754 153.643 164.952C151.795 166.703 147.276 168.859 145.507 171.164C143.738 173.468 139.963 180.63 137.625 184.941C134.691 190.426 132.195 192.235 128.867 190.385C125.539 188.534 122.386 185.024 120.923 183.595Z" fill="#FFA8A7"/>
<path d="M107.033 157.683C109.272 157.472 111.533 157.755 113.636 158.509C116.01 159.517 117.621 161.681 119.942 164.613C122.263 167.546 126.405 172.675 126.405 172.675C126.405 172.675 125.284 177.127 117.893 181.125L105.824 169.404L107.033 157.683Z" fill="#37474F"/>
<path d="M130.128 177.689C128.685 178.973 127.718 180.662 127.37 182.504C127.37 182.504 126.494 179.853 129.48 176.871L130.128 177.689Z" fill="#F28F8F"/>
<path d="M115.774 181.151C121.16 176.971 119.382 171.528 117.421 167.861C113.488 160.534 109.398 157.651 107.691 157.676L96.9798 157.775C91.8652 158.436 87.9067 158.105 86.6718 158.378C83.519 159.08 83.4489 161.525 83.3263 164.689C83.195 168.158 81.312 167.571 82.2666 173.304C83.3925 175.435 84.381 177.627 85.2268 179.871C85.8048 181.853 87.4338 185.008 86.5667 188.213C86.2339 189.452 85.3406 190.691 84.0007 194.086C82.4814 197.902 81.3523 201.846 80.6289 205.865C80.6289 205.865 83.7555 205.179 87.3112 201.611C87.3112 201.611 92.1718 207.748 103.864 207.129C115.993 206.484 117.062 200.521 117.062 200.521L115.205 189.783C115.485 185.446 115.608 183.877 115.774 181.151Z" fill="#455FF6"/>
<path opacity="0.1" d="M108.777 180.068C108.777 180.068 104.398 183.372 99.2575 181.786C97.8255 181.381 96.5272 180.637 95.4863 179.625C94.4453 178.613 93.6965 177.366 93.3109 176.004C93.3109 176.004 92.873 181.497 99.3363 183.264C101.065 183.759 102.917 183.715 104.618 183.14C106.318 182.564 107.777 181.487 108.777 180.068Z" fill="black"/>
<path d="M78.1172 152.958C76.532 151.868 67.9931 162.647 71.9867 165.348C75.9803 168.049 80.2366 160.392 79.3783 156.774C78.52 153.156 78.1172 152.958 78.1172 152.958Z" fill="#37474F"/>
<path d="M70.3652 147.606C72.5022 144.814 73.956 142.708 75.909 140.313C77.0125 138.95 77.7218 137.983 78.7815 136.587C79.5172 135.629 79.9463 134.82 80.7696 134.514C81.6886 134.133 82.51 133.569 83.178 132.862C83.587 132.415 83.9644 131.943 84.3078 131.45C85.5422 129.838 87.0171 128.402 88.6867 127.188C90.4383 125.907 92.3562 124.916 94.1428 123.694C95.2025 122.967 96.3411 121.769 95.0186 120.687C94.6076 120.374 94.1197 120.164 93.5998 120.076C90.412 119.473 87.6533 120.555 84.553 121.356C83.2049 121.703 81.8872 122.147 80.6119 122.686C79.9788 122.928 79.3883 123.26 78.8604 123.669C78.127 124.392 77.5341 125.23 77.1088 126.147C75.7513 128.501 72.8875 130.599 70.882 132.441C68.5261 134.605 66.4242 136.571 63.7355 138.975C61.3184 141.122 58.945 143.105 56.7292 145.45C54.8988 147.383 55.6082 148.87 55.8535 149.374C57.4299 152.298 59.1464 153.33 61.2133 155.156C61.8964 155.751 62.5883 156.337 63.2801 156.924C65.96 159.203 68.6399 161.334 71.4249 163.532C74.4026 165.844 75.6287 166.968 78.2823 169.214C79.9569 170.665 81.3525 172.378 82.4073 174.278C87.0052 174.996 91.5242 168.364 87.5832 160.608C86.935 159.353 85.9546 158.278 84.7369 157.485C79.885 154.223 70.3652 147.606 70.3652 147.606Z" fill="#FFA8A7"/>
<path d="M70.365 147.605C68.9306 149.323 67.0034 150.616 64.8125 151.331C64.8125 151.331 67.7464 151.992 71.6874 148.531L70.365 147.605Z" fill="#F28F8F"/>
<path d="M87.0393 158.311C85.962 157.609 83.3434 156.114 78.115 152.959C78.115 152.959 78.9207 154.553 77.6508 158.559C76.3809 162.565 73.701 165.101 72.0195 165.39C72.0195 165.39 74.9447 167.571 77.6421 170.032C80.3395 172.494 82.5552 174.237 84.1141 177.095C84.1141 177.095 87.9676 176.161 88.8434 169.999C89.4564 165.679 89.0886 160.608 87.0393 158.311Z" fill="#455A64"/>
<path d="M116.29 138.472C117.06 136.937 117.399 135.242 117.275 133.548C117.15 131.854 116.567 130.219 115.58 128.799C112.261 124.347 106.665 122.191 100.482 122.257H98.5638C90.2176 122.389 82.6333 129.146 82.4844 136.754C82.4844 142.106 82.4844 147.054 85.6109 150.705C88.4923 154.1 92.9851 155.215 96.7772 155.76C104.029 156.801 112.174 156.008 115.466 151.349C115.466 151.349 111.088 152.175 111.639 147.896C111.718 147.219 111.035 146.476 109.835 145.707C110.676 144.334 111.665 143.047 112.787 141.867C114.021 140.702 115.449 140.049 116.29 138.472Z" fill="#263238"/>
<path d="M114.127 142.377C114.084 150.348 111.378 152.355 110.02 152.95C108.663 153.545 106 153.231 103.417 152.876L103.504 157.658C103.504 157.658 106.526 160.541 106.351 162.738C106.175 164.935 101.726 165.216 98.3546 163.159C96.4972 161.999 94.8125 160.61 93.3451 159.029C93.065 158.724 92.9071 158.335 92.8984 157.931L92.6882 146.689C92.6882 146.689 91.3045 148.118 88.7822 146.549C88.2374 146.234 87.7677 145.817 87.403 145.322C87.0383 144.828 86.7867 144.267 86.664 143.676C86.5413 143.085 86.5502 142.477 86.6902 141.889C86.8302 141.301 87.0983 140.747 87.4773 140.263C87.8336 139.936 88.2616 139.687 88.7311 139.533C89.2005 139.379 89.7001 139.324 90.1944 139.373C90.6888 139.421 91.166 139.57 91.5923 139.811C92.0187 140.052 92.3838 140.378 92.662 140.767C93.4327 142.121 93.3626 143.079 94.4135 142.922C95.4645 142.765 95.5083 141.692 95.5783 140.924C95.6484 140.155 95.5783 139.908 95.6834 138.9C98.1794 138.396 100.763 135.117 101.052 132.721C102.743 133.506 104.606 133.902 106.491 133.878C109.284 133.696 110.729 133.167 112.104 131.268C112.432 131.702 112.694 132.178 112.884 132.68C113.273 133.697 113.566 134.745 113.76 135.811C114.072 137.986 114.195 140.183 114.127 142.377Z" fill="#FFA8A7"/>
<path d="M103.416 152.877C100.693 152.579 95.0788 151.159 94.168 149.094C94.5361 150.142 95.2361 151.059 96.1735 151.72C97.8725 153.042 103.443 154.471 103.443 154.471L103.416 152.877Z" fill="#F28F8F"/>
<path d="M106.158 148.581C106.163 148.789 106.103 148.993 105.984 149.169C105.866 149.344 105.695 149.482 105.494 149.566C105.292 149.65 105.068 149.675 104.851 149.639C104.635 149.602 104.434 149.506 104.275 149.362C104.116 149.218 104.006 149.033 103.959 148.83C103.912 148.627 103.93 148.415 104.011 148.222C104.091 148.028 104.231 147.862 104.412 147.743C104.593 147.625 104.808 147.56 105.028 147.557C105.322 147.552 105.605 147.658 105.817 147.849C106.028 148.041 106.151 148.304 106.158 148.581Z" fill="#B16668"/>
<path d="M104.731 140.735C104.745 140.881 104.728 141.029 104.682 141.17C104.636 141.31 104.56 141.441 104.46 141.554C104.36 141.666 104.237 141.76 104.099 141.827C103.96 141.895 103.809 141.937 103.653 141.949C103.414 141.973 103.172 141.929 102.959 141.823C102.746 141.717 102.572 141.553 102.459 141.352C102.345 141.152 102.298 140.924 102.323 140.698C102.348 140.472 102.444 140.258 102.598 140.084C102.753 139.91 102.959 139.783 103.19 139.72C103.422 139.657 103.668 139.661 103.897 139.731C104.126 139.801 104.328 139.934 104.476 140.113C104.625 140.292 104.713 140.508 104.731 140.735Z" fill="#263238"/>
<path d="M112.629 140.263C112.651 140.532 112.559 140.798 112.374 141.004C112.188 141.21 111.924 141.338 111.639 141.361C111.496 141.378 111.35 141.365 111.212 141.324C111.074 141.283 110.947 141.214 110.84 141.122C110.732 141.03 110.647 140.918 110.59 140.792C110.533 140.667 110.506 140.531 110.509 140.395C110.495 140.261 110.509 140.126 110.551 139.997C110.593 139.869 110.661 139.75 110.753 139.646C110.844 139.543 110.956 139.458 111.083 139.397C111.21 139.335 111.348 139.298 111.49 139.288C111.778 139.277 112.058 139.373 112.272 139.555C112.485 139.737 112.613 139.992 112.629 140.263Z" fill="#263238"/>
<path d="M107.172 139.23L108.013 145.888L111.63 144.467L107.172 139.23Z" fill="#F28F8F"/>
<path d="M100.512 137.86L102.614 135.977C102.875 136.251 103.015 136.61 103.004 136.979C102.992 137.348 102.831 137.699 102.552 137.959C102.414 138.083 102.25 138.179 102.07 138.242C101.891 138.304 101.7 138.331 101.509 138.322C101.319 138.313 101.132 138.267 100.96 138.188C100.789 138.108 100.636 137.997 100.512 137.86Z" fill="#263238"/>
<path d="M111.03 135.365L113.359 137.017C113.252 137.166 113.113 137.293 112.952 137.39C112.791 137.487 112.611 137.552 112.422 137.58C112.233 137.609 112.04 137.601 111.855 137.557C111.67 137.512 111.496 137.433 111.345 137.323C111.04 137.094 110.838 136.766 110.779 136.402C110.721 136.039 110.81 135.669 111.03 135.365Z" fill="#263238"/>
<path d="M77.4484 74.8597C79.1277 74.5577 80.8443 74.4854 82.5455 74.6449C84.1712 74.7794 85.7581 75.1879 87.2309 75.8509C88.644 76.4871 89.8933 77.406 90.8917 78.5437C91.9445 79.7613 92.6446 81.2155 92.9235 82.7645C93.1861 83.98 93.1861 85.233 92.9235 86.4485C92.6881 87.5065 92.2866 88.5254 91.7324 89.4716C91.1945 90.3925 90.5702 91.266 89.867 92.0818C89.1664 92.9078 88.5008 93.6677 87.879 94.4029C87.2843 95.0947 86.7567 95.8356 86.3026 96.6165C85.8852 97.3099 85.6819 98.0996 85.7158 98.8963C85.7209 99.2667 85.6212 99.6317 85.4268 99.9536C85.3351 100.106 85.2092 100.237 85.0579 100.338C84.9066 100.44 84.7335 100.509 84.551 100.54L80.4261 101.275C80.2301 101.312 80.0283 101.311 79.8327 101.273C79.6372 101.235 79.4517 101.159 79.2875 101.052C79.1167 100.96 78.9723 100.83 78.867 100.673C78.7616 100.516 78.6986 100.337 78.6832 100.152C78.4821 98.9297 78.5477 97.6818 78.8759 96.4844C79.1873 95.4175 79.6436 94.393 80.2334 93.4364C80.8036 92.5254 81.4571 91.6631 82.1864 90.8593C82.9133 90.0333 83.5701 89.2899 84.1744 88.563C84.73 87.9102 85.2114 87.2043 85.6107 86.4567C85.9542 85.8081 86.0619 85.0708 85.9172 84.3587C85.8009 83.731 85.5239 83.1397 85.1103 82.6359C84.6967 82.1321 84.159 81.7311 83.5438 81.4677C82.0179 80.8137 80.3039 80.6596 78.6745 81.0299C75.6034 81.5806 73.6329 83.4363 72.7629 86.5972C72.6864 86.9304 72.5501 87.2488 72.3601 87.5388C72.1172 87.8035 71.7751 87.9693 71.4055 88.0014L67.0265 88.7861C66.7241 88.8368 66.4124 88.781 66.1507 88.6291C66.0132 88.5434 65.8962 88.4316 65.8072 88.3007C65.7182 88.1698 65.6592 88.0228 65.634 87.8692C65.4449 86.5662 65.5952 85.2394 66.0719 84.0035C66.5677 82.576 67.3267 81.2423 68.3139 80.0635C69.4209 78.7728 70.7395 77.6574 72.2199 76.7595C73.8154 75.8121 75.5913 75.1668 77.4484 74.8597ZM85.4443 103.563C85.8337 103.5 86.2341 103.581 86.5609 103.791C86.8877 104.001 87.1153 104.322 87.1959 104.687L88.0717 109.197C88.1116 109.377 88.1112 109.564 88.0705 109.745C88.0298 109.925 87.9497 110.096 87.8352 110.246C87.7276 110.399 87.5885 110.531 87.426 110.633C87.2636 110.735 87.0811 110.806 86.8894 110.84L82.2214 111.666C82.0284 111.704 81.8291 111.704 81.6361 111.665C81.4432 111.627 81.2608 111.551 81.1004 111.443C80.9375 111.342 80.7978 111.211 80.6895 111.057C80.5812 110.904 80.5065 110.732 80.4698 110.551L79.5941 106.041C79.5574 105.86 79.5603 105.673 79.6025 105.493C79.6446 105.313 79.7252 105.142 79.8393 104.992C79.9441 104.836 80.0825 104.703 80.2454 104.6C80.4083 104.498 80.5922 104.429 80.7851 104.397L85.4443 103.563Z" fill="#455FF6"/>
<path d="M121.955 93.4699C122.988 94.01 123.932 94.689 124.758 95.4853C125.56 96.2316 126.21 97.1108 126.676 98.079C127.122 99.005 127.352 100.011 127.35 101.028C127.349 102.112 127.047 103.177 126.474 104.117C126.045 104.87 125.465 105.538 124.767 106.083C124.141 106.541 123.447 106.911 122.708 107.181C121.99 107.446 121.249 107.651 120.493 107.793L118.356 108.189C117.715 108.305 117.087 108.48 116.482 108.71C115.937 108.9 115.46 109.233 115.107 109.668C114.934 109.868 114.707 110.019 114.45 110.106C114.329 110.148 114.199 110.165 114.071 110.155C113.942 110.145 113.817 110.109 113.705 110.048L111.174 108.71C110.928 108.583 110.746 108.369 110.666 108.115C110.623 107.994 110.61 107.866 110.629 107.74C110.647 107.614 110.696 107.493 110.771 107.388C111.238 106.658 111.858 106.025 112.593 105.53C113.26 105.09 113.984 104.735 114.748 104.472C115.48 104.226 116.233 104.039 116.998 103.911C117.76 103.787 118.47 103.663 119.135 103.531C119.736 103.412 120.323 103.238 120.887 103.01C121.374 102.808 121.779 102.463 122.043 102.027C122.273 101.644 122.401 101.214 122.416 100.774C122.431 100.333 122.333 99.8963 122.13 99.4997C121.63 98.516 120.794 97.7191 119.757 97.2365C118.863 96.7494 117.832 96.5341 116.804 96.6198C115.776 96.7055 114.801 97.0882 114.012 97.7155C113.817 97.8652 113.594 97.98 113.355 98.0542C113.104 98.0935 112.847 98.0402 112.637 97.9055L109.939 96.4848C109.749 96.3835 109.605 96.2185 109.537 96.0222C109.502 95.9196 109.492 95.8113 109.505 95.7045C109.519 95.5977 109.557 95.4949 109.615 95.4027C110.127 94.6349 110.827 93.9945 111.656 93.536C112.6 92.9986 113.638 92.6238 114.721 92.4291C115.907 92.2099 117.123 92.1736 118.321 92.3218C119.599 92.4805 120.833 92.8703 121.955 93.4699ZM112.724 112.014C112.843 112.076 112.948 112.16 113.032 112.26C113.116 112.361 113.178 112.477 113.215 112.6C113.254 112.722 113.266 112.85 113.251 112.976C113.236 113.102 113.194 113.225 113.127 113.335L111.49 116.102C111.357 116.327 111.135 116.494 110.872 116.565C110.61 116.636 110.328 116.607 110.088 116.482L107.225 114.971C107.104 114.912 106.998 114.829 106.915 114.727C106.832 114.626 106.773 114.509 106.743 114.384C106.701 114.263 106.687 114.135 106.7 114.009C106.714 113.882 106.755 113.76 106.822 113.649L108.459 110.882C108.526 110.771 108.615 110.674 108.722 110.596C108.829 110.518 108.951 110.461 109.081 110.428C109.21 110.389 109.346 110.377 109.48 110.391C109.615 110.405 109.744 110.446 109.861 110.51L112.724 112.014Z" fill="#455FF6"/>
<g opacity="0.2">
<path d="M121.955 93.4699C122.988 94.01 123.932 94.689 124.758 95.4853C125.56 96.2316 126.21 97.1108 126.676 98.079C127.122 99.005 127.352 100.011 127.35 101.028C127.349 102.112 127.047 103.177 126.474 104.117C126.045 104.87 125.465 105.538 124.767 106.083C124.141 106.541 123.447 106.911 122.708 107.181C121.99 107.446 121.249 107.651 120.493 107.793L118.356 108.189C117.715 108.305 117.087 108.48 116.482 108.71C115.937 108.9 115.46 109.233 115.107 109.668C114.934 109.868 114.707 110.019 114.45 110.106C114.329 110.148 114.199 110.165 114.071 110.155C113.942 110.145 113.817 110.109 113.705 110.048L111.174 108.71C110.928 108.583 110.746 108.369 110.666 108.115C110.623 107.994 110.61 107.866 110.629 107.74C110.647 107.614 110.696 107.493 110.771 107.388C111.238 106.658 111.858 106.025 112.593 105.53C113.26 105.09 113.984 104.735 114.748 104.472C115.48 104.226 116.233 104.039 116.998 103.911C117.76 103.787 118.47 103.663 119.135 103.531C119.736 103.412 120.323 103.238 120.887 103.01C121.374 102.808 121.779 102.463 122.043 102.027C122.273 101.644 122.401 101.214 122.416 100.774C122.431 100.333 122.333 99.8963 122.13 99.4997C121.63 98.516 120.794 97.7191 119.757 97.2365C118.863 96.7494 117.832 96.5341 116.804 96.6198C115.776 96.7055 114.801 97.0882 114.012 97.7155C113.817 97.8652 113.594 97.98 113.355 98.0542C113.104 98.0935 112.847 98.0402 112.637 97.9055L109.939 96.4848C109.749 96.3835 109.605 96.2185 109.537 96.0222C109.502 95.9196 109.492 95.8113 109.505 95.7045C109.519 95.5977 109.557 95.4949 109.615 95.4027C110.127 94.6349 110.827 93.9945 111.656 93.536C112.6 92.9986 113.638 92.6238 114.721 92.4291C115.907 92.2099 117.123 92.1736 118.321 92.3218C119.599 92.4805 120.833 92.8703 121.955 93.4699ZM112.724 112.014C112.843 112.076 112.948 112.16 113.032 112.26C113.116 112.361 113.178 112.477 113.215 112.6C113.254 112.722 113.266 112.85 113.251 112.976C113.236 113.102 113.194 113.225 113.127 113.335L111.49 116.102C111.357 116.327 111.135 116.494 110.872 116.565C110.61 116.636 110.328 116.607 110.088 116.482L107.225 114.971C107.104 114.912 106.998 114.829 106.915 114.727C106.832 114.626 106.773 114.509 106.743 114.384C106.701 114.263 106.687 114.135 106.7 114.009C106.714 113.882 106.755 113.76 106.822 113.649L108.459 110.882C108.526 110.771 108.615 110.674 108.722 110.596C108.829 110.518 108.951 110.461 109.081 110.428C109.21 110.389 109.346 110.377 109.48 110.391C109.615 110.405 109.744 110.446 109.861 110.51L112.724 112.014Z" fill="black"/>
</g>
<path d="M60.265 123.799C60.3816 123.696 60.5193 123.615 60.6698 123.562C60.8203 123.51 60.9805 123.487 61.1408 123.494C61.3051 123.496 61.4674 123.529 61.6178 123.592C61.7683 123.654 61.9039 123.744 62.0166 123.857L64.714 126.616C64.825 126.729 64.9112 126.861 64.9678 127.005C65.0244 127.149 65.0502 127.302 65.0437 127.456C65.0372 127.609 64.9985 127.76 64.9299 127.9C64.8613 128.039 64.7641 128.164 64.6439 128.268L61.7889 130.746C61.6695 130.851 61.5294 130.932 61.3766 130.986C61.2238 131.039 61.0613 131.063 60.8985 131.057C60.7357 131.051 60.5757 131.014 60.4279 130.95C60.2801 130.885 60.1474 130.793 60.0373 130.68L57.3399 127.921C57.2278 127.809 57.1406 127.677 57.0833 127.533C57.0261 127.389 56.9999 127.235 57.0065 127.081C57.013 126.927 57.052 126.776 57.1213 126.637C57.1906 126.497 57.2887 126.372 57.4099 126.269L60.265 123.799ZM41.5232 107.156C42.5473 106.253 43.7034 105.494 44.9562 104.901C46.1459 104.334 47.4328 103.97 48.7572 103.827C50.0285 103.694 51.3151 103.818 52.5318 104.19C53.8245 104.606 54.9804 105.332 55.8861 106.297C56.6439 107.023 57.2395 107.885 57.6376 108.832C57.9588 109.663 58.1477 110.535 58.1981 111.418C58.2481 112.278 58.2188 113.14 58.1106 113.995C57.9967 114.821 57.8916 115.647 57.7953 116.415C57.7002 117.138 57.6739 117.868 57.7165 118.596C57.7456 119.25 57.9702 119.883 58.3645 120.421C58.5343 120.668 58.631 120.953 58.6448 121.247C58.6524 121.392 58.6248 121.536 58.5641 121.67C58.5034 121.803 58.4111 121.921 58.2945 122.015L55.7722 124.221C55.533 124.425 55.2192 124.535 54.8964 124.526C54.7363 124.532 54.5771 124.501 54.4323 124.436C54.2875 124.372 54.1613 124.275 54.0644 124.155C53.3637 123.386 52.8336 122.493 52.5055 121.528C52.2312 120.661 52.0781 119.764 52.0501 118.86C52.0228 117.987 52.0755 117.114 52.2078 116.25C52.3391 115.424 52.4442 114.598 52.5318 113.854C52.6102 113.171 52.6102 112.481 52.5318 111.798C52.4747 111.209 52.213 110.654 51.7874 110.22C51.4171 109.833 50.9525 109.537 50.4337 109.357C49.915 109.177 49.3576 109.119 48.8097 109.188C47.4583 109.352 46.2024 109.933 45.2365 110.84C43.3565 112.492 42.8398 114.587 43.6864 117.125C43.7902 117.39 43.8436 117.669 43.844 117.951C43.8223 118.09 43.7717 118.224 43.695 118.345C43.6184 118.465 43.5172 118.57 43.3973 118.654L40.7087 120.999C40.5208 121.171 40.2693 121.265 40.0081 121.264C39.8743 121.262 39.7425 121.232 39.6217 121.178C39.5008 121.124 39.3937 121.046 39.3074 120.95C38.5629 120.137 38.0425 119.164 37.7923 118.117C37.4951 116.918 37.4269 115.679 37.5909 114.457C37.7707 113.119 38.1788 111.816 38.7995 110.6C39.4605 109.295 40.3858 108.125 41.5232 107.156Z" fill="#455FF6"/>
<g opacity="0.6">
<path d="M60.265 123.799C60.3816 123.696 60.5193 123.615 60.6698 123.562C60.8203 123.51 60.9805 123.487 61.1408 123.494C61.3051 123.496 61.4674 123.529 61.6178 123.592C61.7683 123.654 61.9039 123.744 62.0166 123.857L64.714 126.616C64.825 126.729 64.9112 126.861 64.9678 127.005C65.0244 127.149 65.0502 127.302 65.0437 127.456C65.0372 127.609 64.9985 127.76 64.9299 127.9C64.8613 128.039 64.7641 128.164 64.6439 128.268L61.7889 130.746C61.6695 130.851 61.5294 130.932 61.3766 130.986C61.2238 131.039 61.0613 131.063 60.8985 131.057C60.7357 131.051 60.5757 131.014 60.4279 130.95C60.2801 130.885 60.1474 130.793 60.0373 130.68L57.3399 127.921C57.2278 127.809 57.1406 127.677 57.0833 127.533C57.0261 127.389 56.9999 127.235 57.0065 127.081C57.013 126.927 57.052 126.776 57.1213 126.637C57.1906 126.497 57.2887 126.372 57.4099 126.269L60.265 123.799ZM41.5232 107.156C42.5473 106.253 43.7034 105.494 44.9562 104.901C46.1459 104.334 47.4328 103.97 48.7572 103.827C50.0285 103.694 51.3151 103.818 52.5318 104.19C53.8245 104.606 54.9804 105.332 55.8861 106.297C56.6439 107.023 57.2395 107.885 57.6376 108.832C57.9588 109.663 58.1477 110.535 58.1981 111.418C58.2481 112.278 58.2188 113.14 58.1106 113.995C57.9967 114.821 57.8916 115.647 57.7953 116.415C57.7002 117.138 57.6739 117.868 57.7165 118.596C57.7456 119.25 57.9702 119.883 58.3645 120.421C58.5343 120.668 58.631 120.953 58.6448 121.247C58.6524 121.392 58.6248 121.536 58.5641 121.67C58.5034 121.803 58.4111 121.921 58.2945 122.015L55.7722 124.221C55.533 124.425 55.2192 124.535 54.8964 124.526C54.7363 124.532 54.5771 124.501 54.4323 124.436C54.2875 124.372 54.1613 124.275 54.0644 124.155C53.3637 123.386 52.8336 122.493 52.5055 121.528C52.2312 120.661 52.0781 119.764 52.0501 118.86C52.0228 117.987 52.0755 117.114 52.2078 116.25C52.3391 115.424 52.4442 114.598 52.5318 113.854C52.6102 113.171 52.6102 112.481 52.5318 111.798C52.4747 111.209 52.213 110.654 51.7874 110.22C51.4171 109.833 50.9525 109.537 50.4337 109.357C49.915 109.177 49.3576 109.119 48.8097 109.188C47.4583 109.352 46.2024 109.933 45.2365 110.84C43.3565 112.492 42.8398 114.587 43.6864 117.125C43.7902 117.39 43.8436 117.669 43.844 117.951C43.8223 118.09 43.7717 118.224 43.695 118.345C43.6184 118.465 43.5172 118.57 43.3973 118.654L40.7087 120.999C40.5208 121.171 40.2693 121.265 40.0081 121.264C39.8743 121.262 39.7425 121.232 39.6217 121.178C39.5008 121.124 39.3937 121.046 39.3074 120.95C38.5629 120.137 38.0425 119.164 37.7923 118.117C37.4951 116.918 37.4269 115.679 37.5909 114.457C37.7707 113.119 38.1788 111.816 38.7995 110.6C39.4605 109.295 40.3858 108.125 41.5232 107.156Z" fill="white"/>
</g>
<path d="M238.6 181.432C236.104 180.086 225.594 174.353 222.021 172.404C221.311 172.024 220.865 171.776 220.83 171.751C219.053 170.817 216.977 170.524 214.988 170.925C213.281 171.252 211.646 171.853 210.154 172.701C209.909 172.833 209.664 172.99 209.427 173.139C205.39 175.543 201.922 179.326 199.031 184.53C196.089 189.598 194.51 195.271 194.434 201.05C194.434 206.523 195.981 210.364 199.075 212.572C199.389 212.792 199.716 212.994 200.056 213.175C202.955 214.728 217.493 222.674 217.817 222.848H217.896C217.538 222.663 217.196 222.453 216.871 222.22C213.771 220.017 212.224 216.179 212.23 210.706C212.306 204.927 213.885 199.254 216.827 194.186C219.881 188.679 223.586 184.733 227.941 182.349C232.087 180.091 235.666 179.797 238.678 181.465L238.6 181.432Z" fill="#455FF6"/>
<path opacity="0.4" d="M238.678 181.48C235.666 179.828 232.087 180.12 227.941 182.356C223.895 184.558 220.407 188.138 217.476 193.094L199.68 183.371C202.43 178.738 205.679 175.326 209.418 173.104C209.655 172.964 209.9 172.799 210.145 172.667C211.636 171.817 213.272 171.219 214.98 170.899C216.968 170.493 219.046 170.786 220.821 171.725L222.012 172.377C225.585 174.319 236.095 180.051 238.591 181.397L238.678 181.48Z" fill="black"/>
<path opacity="0.3" d="M217.896 222.822H217.817C217.493 222.649 202.929 214.703 200.056 213.15C199.716 212.968 199.389 212.767 199.075 212.547C195.981 210.344 194.434 206.506 194.434 201.032C194.508 195.254 196.087 189.581 199.031 184.512C199.242 184.124 199.461 183.744 199.688 183.381L217.476 193.07C217.257 193.433 217.038 193.813 216.827 194.193C213.885 199.262 212.306 204.935 212.23 210.713C212.23 216.187 213.777 220.025 216.871 222.228C217.197 222.449 217.539 222.648 217.896 222.822Z" fill="black"/>
<path d="M230.84 39.6889C239.475 34.9807 246.826 32.979 252.892 33.6839C255.361 33.962 257.744 34.7095 259.898 35.881C259.838 35.851 259.78 35.8179 259.723 35.7819C257.639 34.6751 245.08 27.844 242.207 26.2499C240.016 25.0419 237.582 24.2769 235.061 24.0031C228.989 23.3038 221.635 25.3027 213 29.9999C199.571 37.3072 188.77 48.0452 180.596 62.2139C172.422 76.3825 168.379 90.8458 168.466 105.604L186.253 115.293C186.131 100.524 190.174 86.0578 198.383 71.8946C206.592 57.7315 217.411 46.9962 230.84 39.6889Z" fill="#455FF6"/>
<path opacity="0.2" d="M259.757 35.791C257.635 34.676 255.303 33.9606 252.891 33.6847C246.831 32.9798 239.48 34.9815 230.839 39.6897C217.41 46.9915 206.609 57.7295 198.435 71.9037C198.093 72.4901 197.761 73.0849 197.436 73.6713L179.605 63.9658C179.93 63.3794 180.262 62.7846 180.604 62.1982C188.813 48.0405 199.614 37.3025 213.008 29.9842C221.655 25.2815 229.009 23.2826 235.069 23.9874C237.591 24.2639 240.025 25.0318 242.215 26.2424C245.114 27.8531 257.673 34.6924 259.757 35.791Z" fill="black"/>
<path opacity="0.3" d="M197.394 73.6538C189.856 87.2498 186.146 101.124 186.262 115.276L168.475 105.587C168.364 91.4293 172.075 77.5553 179.606 63.9648L197.394 73.6538Z" fill="black"/>
<path d="M242.926 67.1463C239.697 65.5273 235.385 66.1606 229.99 69.046C229.808 72.0734 229.147 75.0579 228.029 77.9008C226.68 81.3259 222.756 88.391 216.258 99.0959C209.526 110.164 204.657 120.734 201.65 130.806C198.668 140.75 197.153 151.034 197.148 161.368L197.236 166.514L209.374 173.122L215.032 176.203L214.936 171.049V170.983C214.955 160.682 216.47 150.433 219.437 140.52C222.444 130.448 227.316 119.881 234.054 108.818C240.547 98.113 244.467 91.0452 245.816 87.6145C247.163 84.223 247.851 80.6303 247.848 77.0087C247.848 72.0802 246.207 68.7927 242.926 67.1463Z" fill="#455FF6"/>
<path opacity="0.3" d="M244.073 91.3236C242.065 95.2664 238.725 101.087 234.054 108.785C227.311 119.854 222.438 130.424 219.437 140.495C216.466 150.416 214.952 160.674 214.936 170.983V171.115L215.032 176.269L209.374 173.197L197.236 166.589L197.148 161.435C197.154 151.101 198.668 140.816 201.65 130.873C204.657 120.801 209.526 110.231 216.258 99.1624C220.929 91.453 224.274 85.6352 226.295 81.709L244.073 91.3236Z" fill="black"/>
<path opacity="0.4" d="M247.846 77.0087C247.848 80.6187 247.163 84.1998 245.823 87.5815C245.446 88.5479 244.86 89.7952 244.071 91.3233L226.293 81.6425C227.069 80.1117 227.653 78.8644 228.045 77.9008C229.163 75.0579 229.824 72.0734 230.006 69.046C235.401 66.1606 239.713 65.5273 242.942 67.1463C246.17 68.7652 247.805 72.0527 247.846 77.0087Z" fill="black"/>
<path d="M210.336 102.159L186.261 115.276C186.138 100.507 190.181 86.0413 198.39 71.8782C206.599 57.715 217.401 46.977 230.794 39.6642C239.43 34.956 246.78 32.9543 252.847 33.6592C258.913 34.364 263.768 37.5001 267.411 43.0673C271.06 48.6345 272.885 55.5784 272.885 63.899C272.848 68.7297 272.261 73.5427 271.133 78.2549C269.768 83.8917 267.926 89.4161 265.624 94.7749C264.153 98.2771 260.629 104.742 255.054 114.169C249.723 123.156 246.383 129.271 245.035 132.515C243.537 136.365 242.426 140.339 241.715 144.384C240.655 150.431 240.07 156.544 239.964 162.672L215.065 176.235L214.969 171.081C214.974 160.747 216.489 150.463 219.47 140.519C222.477 130.447 227.35 119.88 234.087 108.817C240.58 98.1119 244.5 91.0441 245.849 87.6135C247.184 84.2198 247.86 80.6273 247.846 77.0076C247.846 72.0516 246.208 68.7642 242.933 67.1452C239.657 65.5262 235.261 66.2036 229.743 69.1772C224.103 72.2499 219.476 76.859 215.862 83.0044C212.328 88.8441 210.426 95.4357 210.336 102.159Z" fill="#455FF6"/>
<path d="M227.896 182.406C232.363 179.966 236.175 179.815 239.334 181.951C242.493 184.088 244.072 187.89 244.072 193.359C243.976 199.169 242.367 204.867 239.386 209.953C236.269 215.542 232.5 219.54 228.08 221.946C223.66 224.353 219.906 224.452 216.817 222.244C213.723 220.041 212.176 216.2 212.176 210.721C212.252 204.942 213.831 199.27 216.774 194.201C219.839 188.705 223.546 184.774 227.896 182.406Z" fill="#455FF6"/>
</svg>
