<svg width="17" height="28" viewBox="0 0 17 28" fill="none" xmlns="http://www.w3.org/2000/svg">
<path fill-rule="evenodd" clip-rule="evenodd" d="M8.5 1.7499C6.69653 1.7499 4.96692 2.4874 3.69167 3.80016C2.41643 5.11292 1.7 6.89341 1.7 8.74993C1.7 10.6065 2.41643 12.3869 3.69167 13.6997C4.96692 15.0125 6.69653 15.75 8.5 15.75C10.3035 15.75 12.0331 15.0125 13.3083 13.6997C14.5836 12.3869 15.3 10.6065 15.3 8.74993C15.3 6.89341 14.5836 5.11292 13.3083 3.80016C12.0331 2.4874 10.3035 1.7499 8.5 1.7499ZM6.71511e-10 8.74993C2.06653e-05 7.05665 0.477311 5.39974 1.37399 3.98017C2.27066 2.5606 3.5482 1.43935 5.05165 0.752406C6.55511 0.0654619 8.21989 -0.157663 9.84409 0.110093C11.4683 0.377848 12.9821 1.12498 14.202 2.26088C15.4219 3.39677 16.2954 4.87263 16.7166 6.50946C17.1378 8.14629 17.0886 9.87376 16.575 11.4824C16.0613 13.091 15.1053 14.5116 13.8229 15.572C12.5404 16.6323 10.9867 17.2869 9.35 17.4562V21H12.75C12.9754 21 13.1916 21.0922 13.351 21.2563C13.5104 21.4204 13.6 21.6429 13.6 21.875C13.6 22.107 13.5104 22.3296 13.351 22.4937C13.1916 22.6578 12.9754 22.75 12.75 22.75H9.35V27.125C9.35 27.3571 9.26045 27.5796 9.10104 27.7437C8.94164 27.9078 8.72543 28 8.5 28C8.27457 28 8.05837 27.9078 7.89896 27.7437C7.73955 27.5796 7.65 27.3571 7.65 27.125V22.75H4.25C4.02457 22.75 3.80837 22.6578 3.64896 22.4937C3.48955 22.3296 3.4 22.107 3.4 21.875C3.4 21.6429 3.48955 21.4204 3.64896 21.2563C3.80837 21.0922 4.02457 21 4.25 21H7.65V17.4562C5.55336 17.2393 3.60974 16.2284 2.1962 14.6197C0.782653 13.011 -2.64718e-05 10.9191 6.71511e-10 8.74993Z" fill="#F07389"/>
</svg>
