<svg width="16" height="16" viewBox="0 0 16 16" fill="none" xmlns="http://www.w3.org/2000/svg">
<path d="M3.33333 1.33333C3.33333 0.979711 3.47381 0.640573 3.72386 0.390524C3.97391 0.140476 4.31304 0 4.66667 0H8.66667C9.02029 0 9.35943 0.140476 9.60948 0.390524C9.85952 0.640573 10 0.979711 10 1.33333V2.66667H12.6667C12.8435 2.66667 13.013 2.7369 13.1381 2.86193C13.2631 2.98695 13.3333 3.15652 13.3333 3.33333C13.3333 3.51014 13.2631 3.67971 13.1381 3.80474C13.013 3.92976 12.8435 4 12.6667 4H11.954L11.376 12.0947C11.3521 12.4311 11.2015 12.7459 10.9547 12.9757C10.708 13.2056 10.3832 13.3333 10.046 13.3333H3.28667C2.94943 13.3333 2.62471 13.2056 2.37792 12.9757C2.13114 12.7459 1.98061 12.4311 1.95667 12.0947L1.38 4H0.666667C0.489856 4 0.320286 3.92976 0.195262 3.80474C0.0702379 3.67971 0 3.51014 0 3.33333C0 3.15652 0.0702379 2.98695 0.195262 2.86193C0.320286 2.7369 0.489856 2.66667 0.666667 2.66667H3.33333V1.33333ZM4.66667 2.66667H8.66667V1.33333H4.66667V2.66667ZM2.716 4L3.28733 12H10.0467L10.618 4H2.716ZM5.33333 5.33333C5.51014 5.33333 5.67971 5.40357 5.80474 5.5286C5.92976 5.65362 6 5.82319 6 6V10C6 10.1768 5.92976 10.3464 5.80474 10.4714C5.67971 10.5964 5.51014 10.6667 5.33333 10.6667C5.15652 10.6667 4.98695 10.5964 4.86193 10.4714C4.7369 10.3464 4.66667 10.1768 4.66667 10V6C4.66667 5.82319 4.7369 5.65362 4.86193 5.5286C4.98695 5.40357 5.15652 5.33333 5.33333 5.33333ZM8 5.33333C8.17681 5.33333 8.34638 5.40357 8.4714 5.5286C8.59643 5.65362 8.66667 5.82319 8.66667 6V10C8.66667 10.1768 8.59643 10.3464 8.4714 10.4714C8.34638 10.5964 8.17681 10.6667 8 10.6667C7.82319 10.6667 7.65362 10.5964 7.52859 10.4714C7.40357 10.3464 7.33333 10.1768 7.33333 10V6C7.33333 5.82319 7.40357 5.65362 7.52859 5.5286C7.65362 5.40357 7.82319 5.33333 8 5.33333Z" fill="#454545"/>
</svg>
