<svg width="17" height="17" viewBox="0 0 17 17" fill="none" xmlns="http://www.w3.org/2000/svg">
<path d="M4.95703 12.0514L8.08291 12.0408L14.9056 5.28327C15.1733 5.01552 15.3207 4.65994 15.3207 4.28169C15.3207 3.90344 15.1733 3.54785 14.9056 3.2801L13.7822 2.15669C13.2467 1.62119 12.3124 1.62402 11.7811 2.15456L4.95703 8.91348V12.0514ZM12.7806 3.15827L13.9061 4.27956L12.7749 5.40015L11.6515 4.27744L12.7806 3.15827ZM6.3737 9.50423L10.6449 5.27335L11.7684 6.39677L7.49782 10.6262L6.3737 10.6298V9.50423Z" fill="#454545"/>
<path d="M3.54167 14.875H13.4583C14.2396 14.875 14.875 14.2396 14.875 13.4583V7.3185L13.4583 8.73517V13.4583H5.77858C5.76017 13.4583 5.74104 13.4654 5.72263 13.4654C5.69925 13.4654 5.67587 13.459 5.65179 13.4583H3.54167V3.54167H8.39162L9.80829 2.125H3.54167C2.76037 2.125 2.125 2.76037 2.125 3.54167V13.4583C2.125 14.2396 2.76037 14.875 3.54167 14.875Z" fill="#454545"/>
</svg>
