<svg width="183" height="183" viewBox="0 0 183 183" fill="none" xmlns="http://www.w3.org/2000/svg">
<path d="M161.092 156.146C157.35 160.023 153.81 162.524 151.013 164.499C118.134 187.719 79.2288 180.951 70.9604 179.298C58.7506 176.857 35.1492 172.139 18.0859 152.388C-7.72955 122.507 -3.70972 75.4301 16.3145 44.354C19.9772 38.6697 39.3248 7.12026 78.6488 2.06073C102.447 -1.00125 130.189 5.17441 150.278 21.7408C192.448 56.5151 189.446 126.765 161.092 156.146Z" fill="url(#paint0_linear_727_3739)"/>
<path d="M34.8622 51.8982C34.8792 51.0195 35.6175 50.3125 36.5224 50.3125H91.4095C92.3266 50.3125 93.3007 51.0413 93.3007 51.932V176.336C93.3007 177.001 92.9129 177.638 92.4283 178.108C91.9435 178.577 91.2288 178.84 90.5442 178.838L35.0559 178.691C34.3654 178.689 33.6902 178.418 33.2072 177.939C32.7242 177.46 32.4523 176.811 32.4653 176.14L34.8622 51.8982Z" fill="#BDD0FB"/>
<g opacity="0.52">
<path d="M66.3828 59.1288L84.3377 59.0685L84.3309 56.8867L66.3962 56.9418L66.3828 59.1288Z" fill="white"/>
<path d="M66.3359 67.1643L84.3646 67.0845L84.3579 64.8848L66.3495 64.9592L66.3359 67.1643Z" fill="white"/>
<path d="M66.2852 75.2668L84.3883 75.167L84.3815 72.9492L66.2988 73.0435L66.2852 75.2668Z" fill="white"/>
<path d="M66.2344 83.4382L84.4126 83.3183L84.4057 81.082L66.2481 81.1965L66.2344 83.4382Z" fill="white"/>
<path d="M66.1836 91.6746L84.4375 91.5341L84.4306 89.2793L66.1974 89.4141L66.1836 91.6746Z" fill="white"/>
<path d="M66.082 108.358L84.4892 108.176L84.4821 105.883L66.0961 106.059L66.082 108.358Z" fill="white"/>
<path d="M65.9258 133.916L84.5676 133.668L84.5605 131.316L65.9402 131.559L65.9258 133.916Z" fill="white"/>
<path d="M66.1328 99.9819L84.4629 99.8206L84.456 97.5469L66.1467 97.7025L66.1328 99.9819Z" fill="white"/>
<path d="M66.0312 116.805L84.516 116.601L84.5088 114.289L66.0454 114.487L66.0312 116.805Z" fill="white"/>
<path d="M65.9805 125.325L84.5435 125.099L84.5363 122.768L65.9948 122.988L65.9805 125.325Z" fill="white"/>
<path d="M65.875 142.58L84.5965 142.309L84.5892 139.938L65.8896 140.202L65.875 142.58Z" fill="white"/>
<path d="M65.8203 151.321L84.6222 151.027L84.6148 148.635L65.8351 148.923L65.8203 151.321Z" fill="white"/>
<path d="M65.7656 160.134L84.6483 159.817L84.641 157.404L65.7804 157.715L65.7656 160.134Z" fill="white"/>
<path d="M65.7109 169.025L84.6754 168.683L84.668 166.25L65.726 166.585L65.7109 169.025Z" fill="white"/>
<path d="M42.8438 59.2083L60.9112 59.1476L60.9308 56.959L42.8836 57.0144L42.8438 59.2083Z" fill="white"/>
<path d="M42.6992 67.2695L60.8415 67.1891L60.8612 64.9824L42.7394 65.0574L42.6992 67.2695Z" fill="white"/>
<path d="M42.5508 75.3977L60.7684 75.2973L60.7882 73.0723L42.5913 73.1672L42.5508 75.3977Z" fill="white"/>
<path d="M42.4023 83.5946L60.696 83.474L60.716 81.2305L42.4432 81.3456L42.4023 83.5946Z" fill="white"/>
<path d="M42.25 91.8586L60.6202 91.7172L60.6405 89.4551L42.2912 89.5907L42.25 91.8586Z" fill="white"/>
<path d="M41.9453 108.597L60.4708 108.414L60.4914 106.113L41.9873 106.291L41.9453 108.597Z" fill="white"/>
<path d="M41.4805 134.242L60.2438 133.992L60.2649 131.633L41.5235 131.877L41.4805 134.242Z" fill="white"/>
<path d="M42.0977 100.194L60.5452 100.031L60.5656 97.75L42.1392 97.9066L42.0977 100.194Z" fill="white"/>
<path d="M41.793 117.074L60.3971 116.869L60.4178 114.549L41.8352 114.748L41.793 117.074Z" fill="white"/>
<path d="M41.6367 125.622L60.3201 125.394L60.341 123.055L41.6794 123.276L41.6367 125.622Z" fill="white"/>
<path d="M41.3242 142.936L60.1682 142.663L60.1895 140.283L41.3676 140.55L41.3242 142.936Z" fill="white"/>
<path d="M41.1641 151.706L60.0893 151.41L60.1108 149.01L41.2078 149.299L41.1641 151.706Z" fill="white"/>
<path d="M41.0039 160.551L60.0113 160.231L60.0329 157.811L41.048 158.124L41.0039 160.551Z" fill="white"/>
<path d="M40.8398 169.473L59.93 169.129L59.9518 166.688L40.8844 167.024L40.8398 169.473Z" fill="white"/>
</g>
<path d="M3.36705 86.2117C3.39112 85.1956 4.43451 84.3594 5.71348 84.3594H54.0555C55.3516 84.3594 56.6245 85.2392 56.6245 86.2691V178.329C56.6245 178.824 56.2653 179.299 55.8238 179.649C55.3823 179.999 54.7281 180.195 54.1046 180.194L3.56042 180.084C2.93146 180.083 2.31568 179.881 1.8758 179.524C1.43591 179.166 1.18788 178.673 1.19962 178.173L3.36705 86.2117Z" fill="#BDD0FB"/>
<path d="M38.9648 95.2081L52.7365 95.1934L52.8457 89.584H39.0607L38.9648 95.2081Z" fill="url(#paint1_linear_727_3739)"/>
<path d="M23.5312 95.2053L37.289 95.1906L37.3833 89.584H23.6122L23.5312 95.2053Z" fill="url(#paint2_linear_727_3739)"/>
<path d="M8.10938 95.2025L21.8534 95.1878L21.9326 89.584H8.17539L8.10938 95.2025Z" fill="url(#paint3_linear_727_3739)"/>
<path d="M38.7969 105.277L52.5445 105.284L52.6533 99.7116L38.8924 99.707L38.7969 105.277Z" fill="url(#paint4_linear_727_3739)"/>
<path d="M23.3867 105.271L37.1205 105.278L37.2145 99.7077L23.4674 99.7031L23.3867 105.271Z" fill="url(#paint5_linear_727_3739)"/>
<path d="M7.99219 105.262L21.7122 105.269L21.7912 99.7017L8.05794 99.6973L7.99219 105.262Z" fill="url(#paint6_linear_727_3739)"/>
<path d="M38.625 115.276L52.3487 115.287L52.4572 109.734L38.7202 109.725L38.625 115.276Z" fill="url(#paint7_linear_727_3739)"/>
<path d="M23.2422 115.263L36.9521 115.275L37.0457 109.724L23.3225 109.715L23.2422 115.263Z" fill="url(#paint8_linear_727_3739)"/>
<path d="M7.875 115.251L21.5712 115.262L21.6498 109.714L7.94049 109.705L7.875 115.251Z" fill="url(#paint9_linear_727_3739)"/>
<path d="M38.4531 125.241L52.153 125.257L52.2611 119.722L38.548 119.709L38.4531 125.241Z" fill="url(#paint10_linear_727_3739)"/>
<path d="M23.0977 125.224L36.7839 125.24L36.8771 119.709L23.1777 119.695L23.0977 125.224Z" fill="url(#paint11_linear_727_3739)"/>
<path d="M7.75781 125.206L21.4302 125.222L21.5087 119.693L7.82304 119.68L7.75781 125.206Z" fill="url(#paint12_linear_727_3739)"/>
<path d="M38.2852 135.171L51.9613 135.191L52.069 129.676L38.3797 129.658L38.2852 135.171Z" fill="url(#paint13_linear_727_3739)"/>
<path d="M22.9531 135.149L36.6156 135.169L36.7085 129.657L23.0329 129.639L22.9531 135.149Z" fill="url(#paint14_linear_727_3739)"/>
<path d="M7.64062 135.126L21.2894 135.147L21.3676 129.637L7.70565 129.619L7.64062 135.126Z" fill="url(#paint15_linear_727_3739)"/>
<path d="M38.1133 145.07L51.7657 145.095L51.873 139.598L38.2075 139.576L38.1133 145.07Z" fill="url(#paint16_linear_727_3739)"/>
<path d="M22.8125 145.042L36.4514 145.066L36.544 139.573L22.892 139.551L22.8125 145.042Z" fill="url(#paint17_linear_727_3739)"/>
<path d="M7.52344 145.014L21.1486 145.038L21.2265 139.548L7.58827 139.525L7.52344 145.014Z" fill="url(#paint18_linear_727_3739)"/>
<path d="M37.9453 154.932L51.5741 154.961L51.6812 149.484L38.0392 149.457L37.9453 154.932Z" fill="url(#paint19_linear_727_3739)"/>
<path d="M22.668 154.898L36.2833 154.927L36.3755 149.452L22.7472 149.426L22.668 154.898Z" fill="url(#paint20_linear_727_3739)"/>
<path d="M7.40625 154.866L21.008 154.895L21.0857 149.423L7.47088 149.396L7.40625 154.866Z" fill="url(#paint21_linear_727_3739)"/>
<path d="M37.7773 164.759L51.3826 164.792L51.4893 159.334L37.8709 159.303L37.7773 164.759Z" fill="url(#paint22_linear_727_3739)"/>
<path d="M22.5273 164.723L36.1191 164.756L36.2111 159.3L22.6063 159.27L22.5273 164.723Z" fill="url(#paint23_linear_727_3739)"/>
<path d="M7.29297 164.685L20.8713 164.718L20.9486 159.265L7.35733 159.234L7.29297 164.685Z" fill="url(#paint24_linear_727_3739)"/>
<path d="M37.6094 174.552L51.1913 174.59L51.2975 169.15L37.7026 169.115L37.6094 174.552Z" fill="url(#paint25_linear_727_3739)"/>
<path d="M22.3828 174.511L35.9512 174.548L36.043 169.111L22.4615 169.076L22.3828 174.511Z" fill="url(#paint26_linear_727_3739)"/>
<path d="M7.17578 174.469L20.7307 174.507L20.8078 169.072L7.23988 169.037L7.17578 174.469Z" fill="url(#paint27_linear_727_3739)"/>
<path d="M129.554 88.4109C129.579 87.3948 130.622 86.5586 131.901 86.5586H180.243C181.539 86.5586 182.812 87.4384 182.812 88.4684V180.528C182.812 181.023 182.453 181.499 182.011 181.849C181.57 182.198 180.916 182.394 180.292 182.393L129.748 182.283C129.119 182.282 128.503 182.08 128.063 181.723C127.623 181.366 127.375 180.872 127.387 180.372L129.554 88.4109Z" fill="#BDD0FB"/>
<g opacity="0.5">
<path d="M165.156 97.4073L178.928 97.3927L179.037 91.7832H165.252L165.156 97.4073Z" fill="white"/>
<path d="M149.723 97.4046L163.48 97.3899L163.575 91.7832H149.804L149.723 97.4046Z" fill="white"/>
<path d="M134.301 97.4017L148.045 97.387L148.124 91.7832H134.367L134.301 97.4017Z" fill="white"/>
<path d="M164.984 107.477L178.732 107.484L178.841 101.911L165.08 101.906L164.984 107.477Z" fill="white"/>
<path d="M149.574 107.47L163.308 107.477L163.402 101.907L149.655 101.902L149.574 107.47Z" fill="white"/>
<path d="M134.18 107.461L147.9 107.468L147.979 101.901L134.245 101.896L134.18 107.461Z" fill="white"/>
<path d="M164.812 117.475L178.536 117.486L178.645 111.933L164.908 111.924L164.812 117.475Z" fill="white"/>
<path d="M149.43 117.462L163.14 117.474L163.233 111.923L149.51 111.914L149.43 117.462Z" fill="white"/>
<path d="M134.062 117.45L147.759 117.461L147.837 111.913L134.128 111.904L134.062 117.45Z" fill="white"/>
<path d="M164.641 127.44L178.34 127.456L178.449 121.922L164.736 121.908L164.641 127.44Z" fill="white"/>
<path d="M149.285 127.424L162.971 127.439L163.065 121.908L149.365 121.895L149.285 127.424Z" fill="white"/>
<path d="M133.945 127.405L147.618 127.421L147.696 121.892L134.011 121.879L133.945 127.405Z" fill="white"/>
<path d="M164.473 137.37L178.149 137.39L178.256 131.875L164.567 131.857L164.473 137.37Z" fill="white"/>
<path d="M149.141 137.348L162.803 137.368L162.896 131.856L149.22 131.838L149.141 137.348Z" fill="white"/>
<path d="M133.828 137.326L147.477 137.346L147.555 131.836L133.893 131.818L133.828 137.326Z" fill="white"/>
<path d="M164.301 147.267L177.953 147.292L178.061 141.796L164.395 141.773L164.301 147.267Z" fill="white"/>
<path d="M149 147.241L162.639 147.266L162.731 141.772L149.079 141.75L149 147.241Z" fill="white"/>
<path d="M133.711 147.213L147.336 147.237L147.414 141.747L133.776 141.725L133.711 147.213Z" fill="white"/>
<path d="M164.133 157.129L177.762 157.158L177.869 151.681L164.227 151.654L164.133 157.129Z" fill="white"/>
<path d="M148.855 157.097L162.471 157.126L162.563 151.652L148.935 151.625L148.855 157.097Z" fill="white"/>
<path d="M133.594 157.065L147.195 157.094L147.273 151.622L133.658 151.596L133.594 157.065Z" fill="white"/>
<path d="M163.965 166.958L177.57 166.991L177.677 161.533L164.058 161.502L163.965 166.958Z" fill="white"/>
<path d="M148.715 166.922L162.307 166.955L162.399 161.5L148.794 161.469L148.715 166.922Z" fill="white"/>
<path d="M133.48 166.884L147.059 166.917L147.136 161.464L133.545 161.434L133.48 166.884Z" fill="white"/>
<path d="M163.797 176.752L177.379 176.789L177.485 171.35L163.89 171.314L163.797 176.752Z" fill="white"/>
<path d="M148.574 176.71L162.143 176.748L162.234 171.311L148.653 171.275L148.574 176.71Z" fill="white"/>
<path d="M133.363 176.668L146.918 176.706L146.995 171.271L133.427 171.236L133.363 176.668Z" fill="white"/>
</g>
<path d="M81.4942 113.455C77.549 101.068 69.9155 91.1958 60.8735 85.3924C52.7904 80.2045 46.9669 72.1249 44.8108 62.7919C44.5841 61.811 44.3148 60.8272 44.0015 59.8437C39.2565 44.946 26.2422 35.7891 14.9332 39.3911C3.62397 42.993 -1.69738 57.9899 3.04764 72.8875C4.01776 75.9338 5.33398 78.7393 6.91071 81.2445C11.9428 89.2396 13.9119 98.8289 12.0605 108.104C10.4056 116.392 10.8546 125.725 13.8125 135.012C18.224 148.863 27.2468 159.569 37.694 164.96C41.6457 166.998 45.2091 169.74 48.1597 173.053C53.0633 178.558 59.9738 181.146 66.3231 179.124C73.1724 176.942 77.4516 170.006 77.7595 161.914C77.9337 157.334 79.0105 152.846 80.7655 148.603C84.9086 138.585 85.4832 125.979 81.4942 113.455Z" fill="#91B3FA"/>
<path opacity="0.57" d="M23.9401 53.9785C28.5534 63.3537 32.8604 72.87 37.0673 82.4311C38.1201 84.8209 39.1342 87.2275 40.156 89.6306L41.6883 93.2357L43.1902 96.8536C44.182 99.2694 45.2075 101.671 46.1719 104.099L49.0656 111.38C50.9326 116.258 52.841 121.121 54.6167 126.034C55.5079 128.489 56.4473 130.927 57.2884 133.401L59.8459 140.808C63.1555 150.718 66.2164 160.717 68.7632 170.851L68.3257 170.966L66.1302 163.457L65.5856 161.579L64.994 159.714L63.8036 155.988L62.6206 152.261C62.2285 151.018 61.79 149.789 61.377 148.553C60.5343 146.085 59.7114 143.611 58.8528 141.149C55.3542 131.323 51.7244 121.543 47.8925 111.84C45.9392 107.003 44.0278 102.15 42.0407 97.3262L40.5604 93.7046L39.0495 90.0953C38.0438 87.6884 37.0379 85.2817 36.0077 82.8851C33.9885 78.0744 31.9344 73.2778 29.8412 68.4981C27.773 63.7075 25.6591 58.9354 23.5312 54.1718L23.9401 53.9785Z" fill="white"/>
<path d="M114.5 88.8327C112.656 75.3047 106.562 63.7097 98.2864 56.0679C90.8888 49.2365 86.3377 39.8236 85.7896 29.7791C85.732 28.7233 85.6308 27.6567 85.4845 26.5827C83.267 10.3128 71.5006 -1.51782 59.2034 0.158222C46.9061 1.8342 38.735 16.3822 40.9525 32.6521C41.4059 35.979 42.2589 39.1195 43.4342 41.9966C47.185 51.1786 47.4946 61.4545 43.9239 70.7126C40.7331 78.9862 39.5224 88.7209 40.9047 98.8633C42.9664 113.99 50.3426 126.7 60.1396 134.169C63.8453 136.995 67.0249 140.476 69.471 144.438C73.536 151.021 80.1916 154.95 87.0955 154.009C94.5434 152.994 100.195 146.596 101.964 138.281C102.964 133.576 104.878 129.128 107.447 125.057C113.512 115.446 116.364 102.51 114.5 88.8327Z" fill="#7D97F4"/>
<path opacity="0.57" d="M65.8702 16.8789C68.9422 27.4127 71.6732 38.0366 74.2933 48.6891C74.9495 51.3519 75.5628 54.0249 76.1847 56.696L77.1169 60.7027L78.0156 64.7172C78.6044 67.3958 79.2302 70.0664 79.7886 72.7519L81.4646 80.8077C82.5132 86.1924 83.6075 91.568 84.556 96.9723C85.034 99.6735 85.5646 102.365 85.9878 105.076L87.2947 113.202C88.9275 124.053 90.2884 134.95 91.0953 145.894L90.624 145.934L89.7085 137.768L89.4841 135.727L89.2087 133.691L88.6504 129.621L88.0998 125.551C87.9187 124.195 87.6872 122.844 87.4835 121.49C87.0578 118.785 86.6536 116.077 86.2104 113.375C84.3675 102.576 82.3813 91.8026 80.1731 81.0712C79.028 75.714 77.9289 70.3474 76.7465 64.9978L75.8707 60.9834L74.9613 56.9762C74.3566 54.3044 73.7518 51.6325 73.1201 48.9667C71.9023 43.6247 70.646 38.2908 69.3464 32.9675C68.0747 27.6373 66.7523 22.3178 65.4141 17.0049L65.8702 16.8789Z" fill="white"/>
<path d="M171.019 181.813H63.6753C62.8364 181.813 62.1562 181.133 62.1562 180.294V35.2378C62.1562 34.3989 62.8364 33.7188 63.6753 33.7188H171.019C171.858 33.7188 172.538 34.3989 172.538 35.2378V180.294C172.538 181.133 171.858 181.813 171.019 181.813Z" fill="url(#paint28_linear_727_3739)"/>
<path d="M153.747 162.304H80.712C77.9435 162.304 75.6992 160.06 75.6992 157.291V60.9796C75.6992 58.2111 77.9435 55.9668 80.712 55.9668H153.747C156.515 55.9668 158.759 58.2111 158.759 60.9796V157.291C158.759 160.06 156.515 162.304 153.747 162.304Z" fill="#7D97F4"/>
<path d="M150.984 154.907H83.5428C82.7123 154.907 82.0391 154.234 82.0391 153.403V66.2186C82.0391 65.3881 82.7123 64.7148 83.5428 64.7148H150.984C151.815 64.7148 152.488 65.3881 152.488 66.2186V153.403C152.488 154.234 151.815 154.907 150.984 154.907Z" fill="url(#paint29_linear_727_3739)"/>
<path d="M117.146 48.3758C118.97 48.3758 120.448 46.8974 120.448 45.0737C120.448 43.2499 118.97 41.7715 117.146 41.7715C115.322 41.7715 113.844 43.2499 113.844 45.0737C113.844 46.8974 115.322 48.3758 117.146 48.3758Z" fill="url(#paint30_linear_727_3739)"/>
<path d="M138.48 98.3817L95.9968 99.088C92.7635 99.1417 90.1328 101.656 90.1328 104.704V131.458C90.1328 134.505 92.7635 136.87 95.9968 136.741L138.48 135.035C141.531 134.912 143.997 132.425 143.997 129.48V103.623C143.997 100.678 141.531 98.331 138.48 98.3817Z" fill="url(#paint31_linear_727_3739)"/>
<path d="M140.629 93.5431C139.343 93.5623 138.298 92.5692 138.298 91.3251V85.4695C138.298 79.5952 133.329 74.8305 127.178 74.8483L113.338 74.8882C107.029 74.9064 101.858 79.8121 101.858 85.8235V91.8158C101.858 93.089 100.763 94.1374 99.4095 94.1576C98.0538 94.1778 96.9531 93.1589 96.9531 91.8818V85.8711C96.9531 77.2911 104.345 70.3105 113.338 70.3105H127.178C135.916 70.3105 142.954 77.0906 142.954 85.4243V91.2624C142.954 92.5028 141.914 93.5239 140.629 93.5431Z" fill="url(#paint32_linear_727_3739)"/>
<path d="M124.109 113.21C124.109 110.237 121.514 107.903 118.358 108.117C115.568 108.307 113.26 110.541 113.11 113.209C112.993 115.28 114.131 117.069 115.86 117.974C116.596 118.359 116.961 119.171 116.818 119.973L115.605 126.78C115.451 127.647 116.148 128.409 117.064 128.376L120.182 128.264C121.094 128.231 121.786 127.423 121.632 126.57L120.42 119.827C120.275 119.022 120.694 118.223 121.431 117.782C123.035 116.823 124.109 115.122 124.109 113.21Z" fill="url(#paint33_linear_727_3739)"/>
<path d="M38.7903 182.073C38.7913 182.015 38.7874 181.956 38.7724 181.896C37.8915 178.404 33.519 176.229 33.519 176.229L31.7864 176.364C30.7902 179.443 30.9182 181.331 31.0782 182.171C31.0826 182.195 31.0898 182.218 31.0961 182.24C32.5253 182.368 35.4671 182.451 38.7903 182.073Z" fill="url(#paint34_linear_727_3739)"/>
<path d="M31.0977 182.239C31.1748 182.52 31.3822 182.739 31.6475 182.795C33.6806 183.222 36.9121 182.878 38.2689 182.701C38.5682 182.662 38.7871 182.385 38.792 182.072C35.4687 182.45 32.5269 182.367 31.0977 182.239Z" fill="#91B3FA"/>
<path d="M31.0898 173.783L31.8237 177.316C31.8774 177.575 32.0763 177.768 32.3172 177.791C32.6121 177.819 33.0319 177.835 33.4541 177.773C33.8327 177.717 34.0964 177.333 34.0292 176.92L33.5192 173.783H31.0898Z" fill="url(#paint35_linear_727_3739)"/>
<path d="M46.2943 182.195C44.3807 182.142 43.391 181.916 42.8793 181.707C42.8781 181.897 42.8792 182.091 42.8854 182.292C42.892 182.506 43.0507 182.677 43.2459 182.676L53.7527 182.608C54.0879 182.606 54.2839 182.217 54.1386 181.909C52.761 182.023 49.2524 182.278 46.2943 182.195Z" fill="#91B3FA"/>
<path d="M54.1382 181.91C54.1256 181.883 54.1147 181.856 54.0966 181.83C53.1687 180.534 50.8055 177.952 46.1356 176.832L43.8953 176.762C43.8953 176.762 42.8978 178.496 42.8789 181.707C43.3906 181.916 44.3803 182.142 46.2939 182.195C49.252 182.278 52.7606 182.023 54.1382 181.91Z" fill="url(#paint36_linear_727_3739)"/>
<path d="M43.3828 173.471C43.4182 173.636 43.8843 176.15 44.0649 177.124C44.1078 177.356 44.2882 177.526 44.5029 177.538C44.8865 177.559 45.5051 177.562 46.0372 177.417C46.3242 177.339 46.5171 177.047 46.4966 176.722L46.2459 172.746L43.3828 173.471Z" fill="url(#paint37_linear_727_3739)"/>
<path d="M41.684 127.058C41.684 127.058 44.7658 148.234 46.9897 173.434C47.0311 173.903 46.6571 174.312 46.1962 174.409C45.5167 174.552 44.5181 174.722 43.6913 174.698C43.25 174.686 42.8811 174.359 42.8068 173.924C42.0492 169.481 36.6429 145.635 35.224 140.387C35.224 140.387 33.5942 162.68 34.1152 174.245C34.1281 174.533 33.9176 174.783 33.6316 174.816C33.1978 174.866 32.5039 174.904 31.6207 174.81C31.2855 174.774 31.015 174.521 30.967 174.187C30.4274 170.427 27.3212 148.044 27.4533 131.921C27.4608 131.012 28.5201 123.541 28.5201 123.541L41.684 127.058Z" fill="url(#paint38_linear_727_3739)"/>
<path d="M42.875 91.4473L43.2876 102.528C44.4595 102.932 45.5752 103.245 46.6376 103.48C47.3022 101.34 48.7655 98.7141 49.9638 96.7617C45.5613 95.2054 42.875 91.4473 42.875 91.4473Z" fill="url(#paint39_linear_727_3739)"/>
<path d="M28.055 128.278C27.7381 128.166 27.5173 127.878 27.4828 127.544C27.0729 123.568 25.0887 98.9157 37.6157 88.7748C37.6157 88.7748 38.3341 86.8952 44.2391 91.5155C50.144 96.1357 46.9825 100.979 45.5688 107.658C43.8581 115.741 40.8565 122.348 42.1845 127.322C42.2762 127.666 42.0957 128.026 41.7623 128.149C37.1754 129.839 32.6061 129.895 28.055 128.278Z" fill="url(#paint40_linear_727_3739)"/>
<path d="M42.5022 81.3887C42.4982 81.7395 37.4961 88.8444 37.4961 88.8444C37.4961 88.8444 38.3939 90.6127 42.6803 92.0484L46.3802 84.4411L42.5022 81.3887Z" fill="url(#paint41_linear_727_3739)"/>
<path d="M40.0254 105.701C39.9941 105.701 39.9624 105.692 39.9347 105.673C35.9386 102.973 34.0588 98.6154 34.0402 98.5717C34.0053 98.4888 34.0438 98.3937 34.1263 98.3588C34.2092 98.3236 34.3042 98.3619 34.3394 98.4448C34.3576 98.4876 36.2024 102.759 40.1165 105.404C40.1909 105.454 40.2104 105.555 40.1601 105.63C40.1289 105.676 40.0776 105.701 40.0254 105.701Z" fill="url(#paint42_linear_727_3739)"/>
<path d="M45.9775 99.6604C45.9242 99.6604 45.8718 99.6341 45.8408 99.5858C45.8287 99.5672 44.6079 97.6668 42.2827 93.5033C41.5677 92.223 40.628 91.4123 39.4897 91.0937C37.6047 90.567 35.788 91.5776 35.77 91.5877C35.6918 91.6309 35.593 91.6049 35.5486 91.5269C35.5043 91.4488 35.5314 91.3498 35.6095 91.3054C35.6878 91.261 37.5564 90.2155 39.5742 90.7802C40.8003 91.1223 41.8071 91.9851 42.5664 93.3446C44.8857 97.4978 46.1019 99.3914 46.1139 99.4101C46.1625 99.4853 46.1408 99.5859 46.0654 99.6345C46.038 99.6521 46.0076 99.6604 45.9775 99.6604Z" fill="url(#paint43_linear_727_3739)"/>
<path d="M46.4432 77.3184C46.4432 77.3184 48.2231 81.407 48.3426 83.553C48.4621 85.699 48.9246 87.0915 46.4432 87.5237C43.9619 87.9558 41.8716 86.7197 40.7392 84.5821C40.7392 84.5821 38.9649 81.2882 39.3629 79.9392C39.7609 78.5902 46.4432 77.3184 46.4432 77.3184Z" fill="url(#paint44_linear_727_3739)"/>
<path d="M41.5851 83.0453L41.7263 82.983C41.9061 82.9038 41.9832 82.6897 41.8928 82.5152C41.5429 81.8391 40.8608 80.2898 41.742 79.9284C42.8776 79.4627 47.3761 78.5453 48.3466 76.9492C49.2794 75.4151 48.453 73.4348 47.2109 72.8716C47.1277 72.8339 47.0298 72.8638 46.9871 72.9446L46.8836 73.1404C46.8127 73.2745 46.6147 73.2542 46.5725 73.1085C46.532 72.9686 46.3461 72.9416 46.2689 73.065C45.9705 73.5425 45.1651 74.3168 43.0112 74.7143C39.95 75.2793 37.9261 76.5181 37.8757 78.6334C37.8726 78.7677 37.7296 78.8424 37.6148 78.7725C37.3888 78.6347 37.0271 78.5701 36.5437 78.9766C35.703 79.6834 36.047 81.5172 37.89 83.0256C37.9776 83.0973 37.9768 83.2339 37.882 83.2956C37.5479 83.5131 37.0499 84.0306 38.3404 84.7205C39.6752 85.4341 40.6719 85.3755 41.0558 85.3122C41.1513 85.2964 41.2129 85.204 41.192 85.1095L40.7824 83.2503C40.7592 83.1451 40.8393 83.0454 40.947 83.0454H41.5851V83.0453Z" fill="url(#paint45_linear_727_3739)"/>
<path d="M41.6617 83.4368C41.6617 83.4368 40.9827 80.825 39.8118 81.5573C38.6408 82.2896 40.4194 84.4837 41.3609 84.5814L41.6617 83.4368Z" fill="url(#paint46_linear_727_3739)"/>
<path d="M64.7078 90.6134C64.7078 90.6134 63.8156 89.0316 63.8723 88.2632C63.9291 87.4947 63.4503 86.3661 63.9598 86.4497C64.4694 86.5332 64.5746 86.4651 64.7129 87.3872C64.8512 88.3093 66.4594 92.337 64.7078 90.6134Z" fill="url(#paint47_linear_727_3739)"/>
<path d="M64.8782 88.0996L64.8577 91.2594C58.8186 97.7797 53.9306 98.1635 49.9668 96.7623C48.7685 98.7148 47.3052 101.341 46.6406 103.48C62.7678 107.036 66.5655 92.2098 66.5655 92.2098C68.7499 91.305 69.1902 90.7757 69.0963 90.1828L64.8782 88.0996Z" fill="url(#paint48_linear_727_3739)"/>
<path d="M69.5219 84.9647C69.0064 84.7553 67.9978 82.8324 67.8046 83.465C67.6114 84.0976 67.8862 84.9647 67.8046 85.2336C67.723 85.5027 66.4656 88.5975 66.7167 89.285C66.8979 89.7812 67.8963 89.7078 68.0486 90.5195C68.0992 90.7888 68.3145 90.982 68.5643 90.9822C68.814 90.9824 69.0294 90.7894 69.0803 90.5201C69.1007 90.4121 70.0373 85.1739 69.5219 84.9647Z" fill="url(#paint49_linear_727_3739)"/>
<path d="M53.0585 78.3839C48.9862 86.4382 52.2143 96.2688 60.2686 100.341C66.8151 103.651 74.5349 102.138 79.3826 97.1305L107.367 111.279C107.832 111.514 108.385 111.495 108.832 111.229L111.569 109.598C111.616 109.57 111.661 109.54 111.704 109.507C111.716 109.498 111.727 109.488 111.739 109.479C111.771 109.454 111.802 109.427 111.831 109.4C111.841 109.39 111.851 109.381 111.861 109.371C111.897 109.335 111.932 109.298 111.964 109.259C111.964 109.258 111.965 109.258 111.965 109.257C112.309 108.839 112.414 108.255 112.203 107.728L109.979 102.153C109.842 101.808 109.584 101.526 109.253 101.359L106.45 99.9413L105.708 101.408L103.3 100.191L104.042 98.7238L101.789 97.5849L101.107 98.9345L98.1802 97.4548L98.8626 96.1052L97.7723 95.5539L97.421 96.2486L94.9677 95.0082L95.3189 94.3135L93.4108 93.3487L92.6691 94.8158L91.3061 94.1267L92.0479 92.6596L90.8666 92.0624L90.1249 93.5294L87.7624 92.335L88.5041 90.8679L85.1835 89.189L83.7614 88.47C84.9201 81.5976 81.5623 74.4836 75.0156 71.1737C66.9613 67.1014 57.1307 70.3295 53.0585 78.3839ZM62.593 79.4965C64.2238 80.3211 64.8776 82.3118 64.053 83.9427C63.2284 85.5737 61.2377 86.2273 59.6068 85.4027C57.976 84.5781 57.3221 82.5875 58.1468 80.9566C58.9714 79.3256 60.9621 78.672 62.593 79.4965Z" fill="url(#paint50_linear_727_3739)"/>
<path d="M75.7427 83.3184L89.0089 90.0257L88.2671 91.4928L90.6296 92.6872L91.3713 91.2201L92.5526 91.8174L91.8108 93.2845L93.1738 93.9736L93.9155 92.5065L95.8236 93.4713L95.4724 94.166L97.9257 95.4064L98.277 94.7117L99.3673 95.263L98.6849 96.6126L101.611 98.0922L102.294 96.7426L104.547 97.8816L103.805 99.3487L106.213 100.566L106.954 99.0991L109.757 100.516C110.088 100.684 110.347 100.966 110.484 101.31L112.708 106.885C112.985 107.58 112.716 108.373 112.074 108.756L109.337 110.387C108.889 110.653 108.337 110.672 107.872 110.437L74.0898 93.3571L75.7427 83.3184Z" fill="url(#paint51_linear_727_3739)"/>
<path d="M60.7725 99.4992C68.8269 103.572 78.6574 100.343 82.7297 92.2891C86.8019 84.2348 83.5739 74.4042 75.5195 70.3319C67.4652 66.2596 57.6346 69.4878 53.5624 77.5421C49.4901 85.5964 52.7181 95.4269 60.7725 99.4992ZM60.1108 84.5608C58.4799 83.7363 57.8261 81.7456 58.6507 80.1146C59.4753 78.4837 61.466 77.8301 63.0969 78.6546C64.7278 79.4792 65.3815 81.4699 64.557 83.1008C63.7323 84.7318 61.7416 85.3855 60.1108 84.5608Z" fill="url(#paint52_linear_727_3739)"/>
<path d="M79.8865 96.2887L107.871 110.438C108.336 110.673 108.888 110.654 109.336 110.387L112.073 108.757C112.486 108.511 112.741 108.095 112.8 107.646C110.25 104.882 86.0055 94.2955 85.0987 92.1166C84.7762 91.3416 84.7208 90.1677 85.6874 88.3473L84.2653 87.6283C85.424 80.7559 82.0662 73.6419 75.5195 70.3319C67.4652 66.2596 57.6346 69.4878 53.5624 77.5421C49.4901 85.5964 52.7181 95.427 60.7725 99.4992C67.3189 102.809 75.0388 101.296 79.8865 96.2887ZM63.0968 78.6547C64.7277 79.4793 65.3815 81.47 64.5569 83.1009C63.7323 84.7318 61.7416 85.3855 60.1107 84.5609C58.4798 83.7363 57.826 81.7457 58.6506 80.1147C59.4752 78.4838 61.4659 77.8301 63.0968 78.6547Z" fill="url(#paint53_linear_727_3739)"/>
<path d="M62.2188 96.6361C68.6924 99.9092 76.5935 97.3146 79.8666 90.841C83.1397 84.3675 80.5452 76.4663 74.0715 73.1932C67.5978 69.9201 59.6967 72.5147 56.4237 78.9883C53.1506 85.4618 55.7451 93.3629 62.2188 96.6361ZM60.1099 84.5599C58.479 83.7353 57.8252 81.7447 58.6498 80.1137C59.4744 78.4828 61.4652 77.8291 63.096 78.6537C64.7269 79.4783 65.3806 81.469 64.5561 83.0999C63.7314 84.7309 61.7408 85.3845 60.1099 84.5599Z" fill="url(#paint54_linear_727_3739)"/>
<path d="M40.0234 105.702C40.0234 105.702 55.4127 110.854 64.0207 104.3C64.5545 103.893 65.2282 103.716 65.8906 103.824L69.1791 104.36C70.5593 104.585 71.8742 103.69 72.1718 102.324C72.3415 101.544 72.4233 100.692 72.2503 99.9593L66.0422 99.5848L66.2197 98.7793C66.2197 98.7793 63.4758 99.4505 63.4205 101.597C63.4205 101.597 56.9842 105.814 45.2446 99.2694C45.2446 99.2694 40.6732 102.847 40.0234 105.702Z" fill="url(#paint55_linear_727_3739)"/>
<g opacity="0.3">
<path d="M158.885 28.5463C158.526 28.5317 158.248 28.2292 158.262 27.8709C158.291 27.1748 158.29 26.4671 158.259 25.7674C158.243 25.4134 158.514 25.1131 158.866 25.0907C158.87 25.0904 158.874 25.0902 158.879 25.0899C159.237 25.074 159.54 25.3516 159.556 25.71C159.589 26.4464 159.59 27.1915 159.56 27.9243C159.546 28.2594 159.281 28.5248 158.953 28.5455C158.93 28.5469 158.908 28.5474 158.885 28.5463ZM157.874 22.3721C157.748 21.6834 157.591 20.9938 157.408 20.3215C157.314 19.9758 157.518 19.6187 157.863 19.5243C158.211 19.4308 158.566 19.6342 158.661 19.9802C158.853 20.6874 159.019 21.4135 159.151 22.1379C159.216 22.4906 158.982 22.829 158.629 22.8936C158.604 22.8983 158.578 22.9014 158.553 22.903C158.229 22.9236 157.934 22.6992 157.874 22.3721ZM156.283 17.0969C156.007 16.4555 155.701 15.8182 155.371 15.2025C155.202 14.8864 155.321 14.4928 155.637 14.3236C155.953 14.1548 156.346 14.2734 156.516 14.5895C156.863 15.2379 157.186 15.9092 157.476 16.5846C157.617 16.9141 157.465 17.2958 157.135 17.4375C157.065 17.4676 156.992 17.4845 156.92 17.489C156.654 17.5059 156.394 17.3562 156.283 17.0969ZM153.552 12.3102C153.139 11.7457 152.698 11.1928 152.239 10.6663C152.003 10.3959 152.032 9.98566 152.302 9.75022C152.573 9.51497 152.983 9.54333 153.218 9.81326C153.701 10.3676 154.166 10.9499 154.6 11.5437C154.812 11.8332 154.748 12.2396 154.459 12.4511C154.355 12.5268 154.237 12.5673 154.118 12.5749C153.904 12.5885 153.688 12.496 153.552 12.3102ZM149.822 8.25111C149.296 7.79349 148.743 7.35182 148.178 6.93891C147.889 6.72708 147.826 6.32083 148.037 6.03144C148.249 5.74179 148.655 5.67888 148.944 5.89077C149.539 6.32525 150.121 6.79 150.675 7.27149C150.945 7.50667 150.974 7.91688 150.738 8.18747C150.62 8.32386 150.457 8.39878 150.29 8.40939C150.125 8.41975 149.957 8.36791 149.822 8.25111ZM145.288 5.11844C144.673 4.78796 144.036 4.47998 143.394 4.20273C143.065 4.06047 142.914 3.67816 143.056 3.3492C143.198 3.01998 143.58 2.86837 143.91 3.01062C144.584 3.30225 145.255 3.62666 145.902 3.97441C146.218 4.14423 146.337 4.53775 146.167 4.85371C146.057 5.05895 145.852 5.18069 145.636 5.19448C145.519 5.20193 145.399 5.17806 145.288 5.11844ZM121.178 4.81619C121.009 4.49983 121.129 4.10644 121.445 3.93767C122.094 3.5921 122.766 3.27006 123.443 2.98081C123.773 2.83994 124.155 2.99308 124.295 3.32296C124.436 3.65251 124.283 4.03409 123.953 4.17496C123.31 4.44957 122.672 4.75545 122.056 5.08368C121.972 5.12872 121.882 5.15319 121.792 5.15886C121.546 5.17449 121.302 5.0482 121.178 4.81619ZM140.175 3.0701C139.502 2.88485 138.813 2.72651 138.126 2.59982C137.774 2.53453 137.541 2.19581 137.606 1.84324C137.671 1.49041 138.01 1.25926 138.362 1.32277C139.085 1.45632 139.811 1.62297 140.519 1.81818C140.865 1.91341 141.068 2.2708 140.973 2.61664C140.898 2.89085 140.657 3.07538 140.388 3.0924C140.318 3.09682 140.246 3.08969 140.175 3.0701ZM126.384 2.59843C126.291 2.2524 126.496 1.89581 126.842 1.80216C127.551 1.61051 128.278 1.44695 129.002 1.31565C129.355 1.25003 129.692 1.48606 129.757 1.83876C129.82 2.19152 129.586 2.52938 129.233 2.59349C128.545 2.71826 127.854 2.87364 127.181 3.05593C127.138 3.06753 127.095 3.07433 127.052 3.0771C126.75 3.09622 126.466 2.90154 126.384 2.59843ZM134.733 2.21592C134.036 2.18592 133.329 2.18559 132.63 2.2152C132.272 2.23057 131.969 1.95246 131.954 1.59402C131.939 1.24046 132.21 0.940919 132.561 0.918562C132.566 0.918298 132.571 0.917969 132.575 0.917969C133.311 0.886576 134.055 0.886774 134.789 0.918232C135.147 0.933862 135.425 1.2367 135.41 1.59501C135.395 1.92957 135.13 2.19423 134.803 2.215C134.78 2.21652 134.757 2.21672 134.733 2.21592Z" fill="#91B3FA"/>
<path d="M117.98 7.65876C118.108 7.65065 118.234 7.60502 118.342 7.51941C118.604 7.31115 118.875 7.10512 119.147 6.90641C119.437 6.69511 119.5 6.28879 119.289 5.99927C119.078 5.70949 118.671 5.64559 118.382 5.85761C118.096 6.06641 117.811 6.28318 117.535 6.50227C117.254 6.72518 117.207 7.1338 117.43 7.41442C117.567 7.58767 117.775 7.67182 117.98 7.65876Z" fill="#91B3FA"/>
</g>
<g opacity="0.3">
<path d="M108.515 25.0457C108.828 25.0259 109.089 24.7816 109.12 24.4597C109.152 24.1265 109.191 23.7883 109.237 23.4547C109.286 23.0994 109.038 22.7718 108.682 22.723C108.326 22.674 108 22.9226 107.951 23.2777C107.902 23.6289 107.861 23.9851 107.827 24.3359C107.793 24.6929 108.055 25.0099 108.412 25.0442C108.447 25.0475 108.481 25.0479 108.515 25.0457Z" fill="#91B3FA"/>
<path d="M133.985 52.7646C133.627 52.7698 133.332 52.4834 133.327 52.1245C133.322 51.766 133.608 51.4719 133.967 51.4661C134.649 51.4563 135.342 51.4172 136.034 51.3499C136.389 51.3141 136.708 51.5765 136.743 51.9334C136.778 52.2903 136.516 52.6077 136.16 52.6426C135.86 52.6718 135.561 52.6958 135.263 52.7148C134.837 52.7418 134.408 52.7587 133.985 52.7646ZM138.869 51.5797C138.786 51.2309 139.002 50.881 139.351 50.7983C140.02 50.6394 140.691 50.4507 141.343 50.237C141.683 50.1245 142.051 50.311 142.162 50.6519C142.274 50.9925 142.088 51.3593 141.748 51.4709C141.061 51.696 140.355 51.8948 139.65 52.0617C139.614 52.0704 139.577 52.0758 139.541 52.0781C139.231 52.0978 138.943 51.8921 138.869 51.5797ZM130.452 52.5731C129.735 52.4847 129.012 52.3644 128.303 52.2152C127.952 52.1414 127.728 51.7971 127.801 51.446C127.875 51.0952 128.219 50.871 128.57 50.9443C129.244 51.0861 129.93 51.2003 130.611 51.2842C130.967 51.3282 131.22 51.6522 131.176 52.0083C131.137 52.323 130.879 52.5572 130.574 52.5766C130.534 52.5791 130.493 52.5781 130.452 52.5731ZM144.159 49.842C144.002 49.5198 144.136 49.1309 144.458 48.9737C145.076 48.6722 145.688 48.3406 146.277 47.9883C146.585 47.8041 146.984 47.9046 147.168 48.2126C147.352 48.5204 147.251 48.9189 146.944 49.1028C146.323 49.4739 145.678 49.8231 145.028 50.1406C144.949 50.1789 144.866 50.2002 144.784 50.2054C144.529 50.2216 144.278 50.0856 144.159 49.842ZM124.901 51.2514C124.222 51.0076 123.543 50.7312 122.884 50.43C122.558 50.2809 122.415 49.8958 122.564 49.5697C122.713 49.2433 123.098 49.0999 123.424 49.249C124.05 49.5351 124.695 49.7976 125.34 50.029C125.678 50.1502 125.853 50.5221 125.732 50.8596C125.642 51.1111 125.412 51.2725 125.162 51.2885C125.076 51.294 124.987 51.2823 124.901 51.2514ZM119.775 48.7444C119.164 48.357 118.562 47.9393 117.986 47.5029C117.7 47.2862 117.644 46.8791 117.86 46.5931C118.077 46.3069 118.484 46.2508 118.77 46.4678C119.317 46.8823 119.889 47.2793 120.47 47.6476C120.773 47.8396 120.863 48.2408 120.671 48.5437C120.555 48.7261 120.364 48.8313 120.163 48.844C120.031 48.8524 119.895 48.8206 119.775 48.7444ZM115.317 45.1796C114.804 44.6681 114.307 44.129 113.84 43.578C113.608 43.3042 113.642 42.8947 113.916 42.6629C114.19 42.4307 114.599 42.465 114.831 42.7384C115.275 43.2623 115.747 43.7741 116.234 44.2604C116.488 44.5137 116.488 44.9248 116.235 45.1785C116.119 45.2952 115.969 45.3583 115.817 45.3679C115.637 45.3794 115.454 45.3166 115.317 45.1796ZM111.742 40.7273C111.354 40.1161 110.987 39.4811 110.652 38.8401C110.486 38.5223 110.609 38.1299 110.927 37.9639C111.244 37.7981 111.637 37.9211 111.803 38.2389C112.121 38.8475 112.469 39.4503 112.838 40.031C113.031 40.3336 112.941 40.7348 112.639 40.9271C112.543 40.9878 112.438 41.0204 112.332 41.0271C112.103 41.0416 111.874 40.9344 111.742 40.7273ZM109.232 35.5956C108.989 34.9155 108.771 34.2159 108.585 33.5162C108.493 33.1695 108.7 32.8138 109.046 32.7219C109.392 32.6303 109.748 32.8362 109.84 33.1829C110.017 33.8477 110.223 34.5121 110.455 35.1582C110.576 35.4956 110.4 35.8674 110.062 35.9882C110.004 36.0093 109.944 36.0215 109.884 36.0252C109.603 36.043 109.332 35.8745 109.232 35.5956ZM107.911 30.0438C107.845 29.5156 107.795 28.9788 107.761 28.4485C107.749 28.2563 107.739 28.0649 107.731 27.8734C107.716 27.5153 107.99 27.2059 108.353 27.1979C108.711 27.1827 109.014 27.4611 109.029 27.8196C109.036 28.0013 109.046 28.1837 109.057 28.3662C109.089 28.8704 109.137 29.3805 109.2 29.8827C109.245 30.2385 108.992 30.563 108.636 30.6075C108.623 30.609 108.61 30.6104 108.596 30.6113C108.256 30.6329 107.954 30.3863 107.911 30.0438Z" fill="#91B3FA"/>
<path d="M149.5 47.2134C149.628 47.2053 149.756 47.1588 149.864 47.0721C150.138 46.8522 150.413 46.6223 150.681 46.3887C150.951 46.153 150.979 45.7428 150.743 45.4726C150.508 45.2024 150.098 45.1741 149.827 45.41C149.573 45.6318 149.312 45.8501 149.052 46.0591C148.772 46.2832 148.727 46.6919 148.951 46.9717C149.089 47.1432 149.296 47.2264 149.5 47.2134Z" fill="#91B3FA"/>
</g>
<path d="M150.724 36.1507C150.8 36.0453 150.8 35.9039 150.725 35.7983L148.586 32.7873C149.243 31.1926 149.651 29.4816 149.768 27.7103L153.013 25.9523C153.127 25.8907 153.189 25.7635 153.168 25.6358L152.443 21.2652C152.422 21.1375 152.322 21.0372 152.195 21.0157L148.555 20.3995C147.873 18.7607 146.935 17.2728 145.798 15.9757L146.851 12.4354C146.887 12.3113 146.841 12.1775 146.736 12.1022L143.133 9.52412C143.028 9.44881 142.886 9.44855 142.781 9.52353L139.77 11.6626C138.175 11.0052 136.464 10.5974 134.693 10.4808L132.935 7.23515C132.873 7.12125 132.746 7.05906 132.618 7.08029L128.248 7.80508C128.12 7.82632 128.02 7.92616 127.998 8.05378L127.382 11.6932C125.743 12.3753 124.255 13.3136 122.958 14.4506L119.418 13.3979C119.294 13.361 119.16 13.4068 119.085 13.5122L116.506 17.1152C116.431 17.2205 116.431 17.362 116.506 17.4675L118.645 20.4786C117.988 22.0733 117.58 23.7843 117.463 25.5556L114.218 27.3136C114.104 27.3752 114.041 27.5023 114.063 27.63L114.788 32.0008C114.809 32.1285 114.909 32.2287 115.036 32.2503L118.676 32.8666C119.358 34.5053 120.296 35.9932 121.433 37.2903L120.38 40.8306C120.343 40.9547 120.389 41.0886 120.495 41.164L124.098 43.742C124.203 43.8173 124.344 43.8176 124.45 43.7426L127.461 41.6034C129.056 42.2608 130.767 42.6686 132.538 42.7853L134.296 46.0309C134.358 46.1447 134.485 46.2069 134.613 46.1858L138.983 45.4609C139.111 45.4397 139.211 45.3399 139.233 45.2122L139.849 41.5728C141.488 40.8907 142.976 39.9524 144.273 38.8155L147.813 39.8681C147.937 39.905 148.071 39.8591 148.146 39.7538L150.724 36.1507Z" fill="#91B3FA"/>
<path d="M133.249 31.0713C130.802 30.8678 128.976 28.7117 129.18 26.2643C129.278 25.0789 129.832 24.0027 130.74 23.2343C131.648 22.4658 132.801 22.0966 133.986 22.1954C136.434 22.3989 138.259 24.5551 138.056 27.0024C137.87 29.2288 136.069 30.9404 133.903 31.0779C133.688 31.0915 133.469 31.0896 133.249 31.0713ZM131.411 24.0272C130.715 24.6166 130.29 25.4415 130.215 26.3506C130.059 28.2267 131.458 29.8802 133.335 30.0361C135.211 30.1928 136.864 28.7924 137.02 26.9162C137.176 25.0401 135.777 23.3865 133.9 23.2306C133.73 23.2165 133.561 23.2151 133.394 23.2257C132.667 23.2717 131.977 23.5484 131.411 24.0272Z" fill="#BDD0FB"/>
<path d="M134.216 37.5025C134.588 37.4789 134.961 37.4364 135.334 37.3746C135.451 37.3552 135.568 37.3338 135.685 37.3107C136.261 37.1961 136.826 37.036 137.373 36.8328C137.38 36.83 137.387 36.8272 137.395 36.8245C137.416 36.8166 137.437 36.8086 137.458 36.8005C137.499 36.7849 137.54 36.7688 137.581 36.7528C137.688 36.7104 137.752 36.6045 137.745 36.4951C137.743 36.4685 137.737 36.4417 137.727 36.4157C137.674 36.2823 137.523 36.2175 137.39 36.2699C136.704 36.5414 135.983 36.7407 135.249 36.8622C131.603 37.4675 128.078 36.0932 125.774 33.5282C124.492 32.1018 123.589 30.3067 123.253 28.2786C123.193 27.923 123.153 27.5671 123.131 27.2121C122.979 24.8237 123.648 22.4753 125.06 20.5029C126.681 18.237 129.088 16.738 131.836 16.2822C137.513 15.3414 142.892 19.192 143.833 24.8658C143.891 25.2156 143.931 25.5671 143.953 25.9186C144.049 27.4422 143.811 28.97 143.251 30.3914C143.236 30.4281 143.231 30.4661 143.233 30.5031C143.239 30.6003 143.3 30.6902 143.397 30.7282C143.531 30.7804 143.681 30.7158 143.734 30.5818C144.323 29.0895 144.573 27.4855 144.471 25.886C144.448 25.5169 144.406 25.1481 144.345 24.7809C143.357 18.824 137.706 14.7822 131.751 15.7696C128.866 16.248 126.339 17.8217 124.637 20.2005C123.155 22.2712 122.453 24.7366 122.612 27.244C122.636 27.6166 122.678 27.9903 122.74 28.3635C123.219 31.2491 124.792 33.7756 127.171 35.4775C129.242 36.9595 131.708 37.6616 134.216 37.5025Z" fill="#BDD0FB"/>
<g opacity="0.3">
<path d="M182.153 44.2189C182.326 44.2079 182.479 44.0849 182.519 43.9069C182.594 43.5749 182.66 43.236 182.715 42.8997C182.751 42.6812 182.603 42.4752 182.384 42.4392C182.165 42.4024 181.959 42.5517 181.923 42.7702C181.871 43.0906 181.808 43.4136 181.737 43.7305C181.688 43.9463 181.823 44.161 182.039 44.21C182.078 44.2186 182.116 44.2213 182.153 44.2189Z" fill="#91B3FA"/>
<path d="M182.511 41.1612C182.289 41.1525 182.117 40.9664 182.125 40.7449C182.147 40.1863 182.139 39.6201 182.104 39.0624C182.097 38.9448 182.088 38.8268 182.078 38.7085C182.059 38.488 182.223 38.294 182.444 38.2752C182.653 38.2659 182.858 38.4205 182.877 38.6413C182.887 38.765 182.897 38.8885 182.904 39.0116C182.942 39.5963 182.949 40.1899 182.927 40.7757C182.919 40.983 182.755 41.1477 182.552 41.1605C182.538 41.1614 182.525 41.1615 182.511 41.1612ZM181.783 36.6934C181.644 36.03 181.463 35.3692 181.244 34.7297C181.173 34.52 181.284 34.2924 181.494 34.2206C181.703 34.1496 181.932 34.2607 182.003 34.4704C182.232 35.1406 182.422 35.8334 182.568 36.5289C182.613 36.7458 182.474 36.9583 182.257 37.0038C182.238 37.0078 182.219 37.0102 182.2 37.0114C182.004 37.0238 181.824 36.8909 181.783 36.6934ZM180.467 32.8472C180.17 32.2389 179.832 31.6431 179.462 31.0756C179.341 30.8902 179.393 30.6416 179.579 30.5207C179.765 30.3994 180.013 30.4516 180.134 30.6374C180.522 31.2323 180.876 31.8577 181.188 32.4953C181.285 32.6944 181.202 32.9347 181.003 33.0317C180.955 33.0552 180.904 33.0682 180.853 33.0715C180.696 33.0815 180.54 32.9975 180.467 32.8472ZM178.246 29.4419C177.808 28.9242 177.335 28.4288 176.839 27.9705C176.676 27.82 176.666 27.5663 176.816 27.4037C176.966 27.2416 177.22 27.231 177.383 27.3811C177.903 27.8622 178.4 28.3812 178.859 28.9242C179.002 29.0933 178.98 29.3466 178.811 29.4896C178.743 29.5469 178.661 29.578 178.578 29.5833C178.456 29.591 178.331 29.5428 178.246 29.4419ZM175.261 26.6819C174.711 26.2863 174.132 25.9212 173.538 25.5963C173.344 25.4901 173.273 25.2462 173.38 25.0519C173.486 24.8576 173.73 24.786 173.924 24.893C174.546 25.2333 175.153 25.6162 175.729 26.0306C175.909 26.1601 175.95 26.4106 175.821 26.5903C175.748 26.6918 175.636 26.7491 175.521 26.7565C175.431 26.7621 175.339 26.7381 175.261 26.6819ZM171.697 24.7301C171.068 24.4805 170.417 24.2678 169.763 24.0983C169.549 24.0428 169.42 23.8238 169.476 23.6095C169.531 23.3953 169.749 23.2669 169.965 23.3219C170.65 23.4997 171.333 23.7228 171.993 23.9847C172.198 24.0666 172.299 24.2996 172.217 24.5053C172.158 24.6542 172.02 24.7482 171.87 24.7577C171.813 24.7613 171.754 24.7528 171.697 24.7301ZM167.765 23.7098C167.096 23.6225 166.412 23.5759 165.733 23.5719C165.512 23.5703 165.334 23.3897 165.335 23.1683C165.336 22.9469 165.517 22.7718 165.739 22.7695C166.45 22.7742 167.167 22.8229 167.868 22.9146C168.088 22.9434 168.243 23.1447 168.214 23.3643C168.189 23.5574 168.03 23.7005 167.842 23.7124C167.817 23.714 167.791 23.7133 167.765 23.7098ZM161.211 23.7507C161.158 23.5355 161.29 23.3188 161.505 23.2662C162.101 23.1208 162.715 23.0058 163.328 22.9241C163.421 22.9111 163.514 22.8997 163.607 22.8887C163.825 22.8568 164.027 23.0206 164.052 23.2411C164.077 23.4612 163.92 23.66 163.699 23.6857C163.612 23.6956 163.525 23.7066 163.436 23.7189C162.849 23.797 162.263 23.9068 161.695 24.0453C161.672 24.0511 161.648 24.0545 161.625 24.0559C161.435 24.0681 161.257 23.9424 161.211 23.7507Z" fill="#91B3FA"/>
</g>
<g opacity="0.3">
<path d="M166.473 57.3922C165.775 57.4275 165.069 57.4201 164.374 57.3713C164.153 57.3554 163.987 57.1639 164.002 56.9428C164.018 56.7216 164.211 56.5575 164.431 56.571C165.094 56.618 165.767 56.6247 166.433 56.5911C166.654 56.5797 166.843 56.7503 166.854 56.9713C166.865 57.1908 166.697 57.378 166.479 57.3919C166.477 57.392 166.475 57.3922 166.473 57.3922ZM168.098 56.8331C168.06 56.6149 168.207 56.4075 168.425 56.3701C169.082 56.257 169.738 56.1031 170.376 55.9123C170.587 55.8499 170.812 55.9694 170.875 56.1821C170.939 56.3943 170.818 56.6173 170.606 56.681C169.937 56.8809 169.249 57.0422 168.561 57.1604C168.547 57.1629 168.533 57.1646 168.518 57.1656C168.316 57.1784 168.133 57.0373 168.098 56.8331ZM162.291 57.0949C161.605 56.9603 160.921 56.7828 160.259 56.567C160.048 56.4984 159.933 56.2718 160.002 56.0614C160.07 55.8507 160.296 55.7363 160.507 55.8041C161.139 56.0101 161.791 56.1794 162.446 56.3082C162.663 56.3508 162.805 56.5617 162.762 56.7786C162.726 56.9613 162.572 57.0904 162.394 57.1017C162.361 57.1039 162.326 57.1018 162.291 57.0949ZM172.05 55.7503C171.961 55.5476 172.054 55.311 172.256 55.222C172.866 54.9545 173.466 54.6469 174.038 54.3072C174.229 54.1946 174.475 54.2574 174.588 54.4473C174.701 54.6379 174.638 54.884 174.448 54.9969C173.847 55.3533 173.218 55.6762 172.578 55.9566C172.534 55.9758 172.488 55.9866 172.443 55.9895C172.279 55.9998 172.12 55.9088 172.05 55.7503ZM158.307 55.7963C157.675 55.5013 157.054 55.1643 156.461 54.795C156.273 54.6778 156.216 54.4303 156.333 54.2423C156.45 54.0544 156.698 53.9967 156.886 54.1142C157.451 54.4668 158.043 54.7879 158.646 55.0691C158.847 55.1627 158.934 55.4013 158.84 55.6022C158.776 55.7397 158.643 55.8239 158.502 55.8328C158.437 55.837 158.37 55.8256 158.307 55.7963ZM154.75 53.5792C154.205 53.1405 153.683 52.6647 153.197 52.1654C153.042 52.0068 153.045 51.7531 153.204 51.5986C153.363 51.4442 153.617 51.4473 153.771 51.6062C154.235 52.0822 154.734 52.536 155.253 52.9547C155.425 53.0937 155.452 53.3462 155.313 53.5187C155.24 53.6097 155.135 53.6603 155.026 53.6672C154.93 53.6733 154.831 53.6446 154.75 53.5792ZM151.825 50.574C151.401 50.0174 151.008 49.4298 150.656 48.8281C150.545 48.6367 150.609 48.3912 150.8 48.2794C150.991 48.1676 151.237 48.2325 151.349 48.4231C151.684 48.9972 152.059 49.5573 152.463 50.0877C152.598 50.264 152.564 50.5157 152.387 50.6498C152.322 50.6999 152.246 50.7262 152.17 50.731C152.041 50.7393 151.91 50.6848 151.825 50.574Z" fill="#91B3FA"/>
<path d="M175.982 53.8879C176.059 53.883 176.135 53.8558 176.201 53.8048C176.473 53.5949 176.739 53.3759 176.994 53.1542C177.16 53.0086 177.178 52.7551 177.032 52.5882C176.886 52.4221 176.633 52.4043 176.466 52.5496C176.224 52.7612 175.969 52.97 175.71 53.1705C175.535 53.306 175.503 53.558 175.639 53.733C175.723 53.8423 175.853 53.8961 175.982 53.8879Z" fill="#91B3FA"/>
</g>
<path d="M177.047 46.3285C177.097 46.258 177.097 46.1634 177.047 46.0927L175.616 44.0779C176.056 43.0107 176.328 41.8658 176.406 40.6806L178.578 39.5042C178.654 39.463 178.696 39.3779 178.682 39.2924L178.197 36.3678C178.183 36.2823 178.116 36.2152 178.031 36.2008L175.595 35.7885C175.139 34.6919 174.511 33.6962 173.75 32.8283L174.454 30.4592C174.479 30.3762 174.448 30.2866 174.378 30.2362L171.967 28.5111C171.897 28.4607 171.802 28.4605 171.731 28.5107L169.716 29.9421C168.649 29.5022 167.504 29.2293 166.319 29.1513L165.143 26.9794C165.101 26.9032 165.016 26.8616 164.931 26.8758L162.006 27.3608C161.921 27.375 161.854 27.4418 161.839 27.5272L161.427 29.9626C160.33 30.419 159.335 31.0469 158.467 31.8077L156.098 31.1033C156.015 31.0786 155.925 31.1093 155.875 31.1798L154.15 33.5909C154.099 33.6613 154.099 33.7559 154.149 33.8266L155.581 35.8415C155.141 36.9086 154.868 38.0535 154.79 39.2388L152.618 40.4151C152.542 40.4564 152.5 40.5414 152.514 40.6269L152.999 43.5516C153.014 43.637 153.08 43.7041 153.166 43.7186L155.601 44.1309C156.058 45.2275 156.686 46.2231 157.446 47.0911L156.742 49.4601C156.717 49.5432 156.748 49.6327 156.819 49.6832L159.23 51.4083C159.3 51.4587 159.395 51.4588 159.465 51.4087L161.48 49.9773C162.547 50.4171 163.692 50.69 164.878 50.7681L166.054 52.9399C166.095 53.0161 166.18 53.0577 166.266 53.0435L169.19 52.5585C169.276 52.5443 169.343 52.4775 169.357 52.392L169.77 49.9567C170.866 49.5003 171.862 48.8724 172.73 48.1116L175.099 48.816C175.182 48.8407 175.271 48.8099 175.322 48.7395L177.047 46.3285Z" fill="#91B3FA"/>
<path d="M165.349 42.9821C164.541 42.9152 163.808 42.5376 163.285 41.919C162.761 41.3008 162.51 40.5154 162.577 39.7078C162.716 38.0411 164.182 36.8002 165.852 36.9359C167.518 37.075 168.762 38.5438 168.623 40.2101C168.556 41.0177 168.179 41.7507 167.56 42.2742C167.057 42.6998 166.444 42.9455 165.799 42.9864C165.65 42.9959 165.5 42.9945 165.349 42.9821ZM163.376 39.774C163.327 40.3682 163.512 40.9458 163.897 41.4009C164.282 41.8557 164.821 42.1334 165.415 42.1828C166.009 42.2314 166.587 42.0472 167.042 41.662C167.497 41.2773 167.774 40.7377 167.824 40.1439C167.926 38.9178 167.011 37.8374 165.785 37.7352C165.674 37.7262 165.565 37.7252 165.457 37.732C164.372 37.8009 163.469 38.6588 163.376 39.774Z" fill="#BDD0FB"/>
<path d="M166.021 47.4581C166.274 47.442 166.529 47.413 166.784 47.3708C167.292 47.2868 167.791 47.1511 168.27 46.9669C168.291 46.9585 168.313 46.9501 168.334 46.9416C168.5 46.8762 168.598 46.7126 168.587 46.5437C168.584 46.5027 168.575 46.4613 168.559 46.4211C168.478 46.2152 168.245 46.1154 168.039 46.1959C167.594 46.3721 167.128 46.501 166.654 46.5794H166.653C166.627 46.5837 166.601 46.5877 166.575 46.5918C165.451 46.7671 164.326 46.6557 163.283 46.2824C162.716 46.0797 162.174 45.7994 161.669 45.445C161.665 45.442 161.661 45.4392 161.657 45.4363C161.644 45.4273 161.632 45.4186 161.619 45.4096C160.153 44.3599 159.182 42.8021 158.887 41.0227C158.849 40.7924 158.823 40.5622 158.808 40.3323C158.71 38.7861 159.143 37.2659 160.057 35.9886C161.107 34.5218 162.665 33.5518 164.444 33.2567C166.222 32.9625 168.011 33.3772 169.478 34.4265C170.945 35.4761 171.915 37.034 172.21 38.8134C172.248 39.0397 172.274 39.2673 172.288 39.4948C172.35 40.4813 172.196 41.4702 171.833 42.3903C171.811 42.447 171.802 42.5056 171.806 42.5628C171.816 42.7129 171.91 42.8517 172.059 42.9105C172.265 42.9912 172.498 42.8909 172.58 42.6844C172.986 41.6548 173.158 40.5483 173.089 39.4449C173.072 39.1901 173.043 38.9356 173.001 38.6825C172.671 36.6915 171.586 34.9486 169.944 33.7743C168.303 32.6003 166.304 32.1339 164.313 32.4655C162.322 32.7955 160.579 33.8809 159.405 35.5224C158.382 36.951 157.898 38.6519 158.007 40.3818C158.024 40.6386 158.053 40.8965 158.096 41.1539C158.735 45.008 162.203 47.7005 166.021 47.4581Z" fill="#BDD0FB"/>
<defs>
<linearGradient id="paint0_linear_727_3739" x1="204.832" y1="235.62" x2="43.4843" y2="35.2365" gradientUnits="userSpaceOnUse">
<stop stop-color="#DAE3FE"/>
<stop offset="1" stop-color="#E9EFFD"/>
</linearGradient>
<linearGradient id="paint1_linear_727_3739" x1="38.9649" y1="92.396" x2="52.8457" y2="92.396" gradientUnits="userSpaceOnUse">
<stop stop-color="#DAE3FE"/>
<stop offset="1" stop-color="#E9EFFD"/>
</linearGradient>
<linearGradient id="paint2_linear_727_3739" x1="23.5312" y1="92.3946" x2="37.3833" y2="92.3946" gradientUnits="userSpaceOnUse">
<stop stop-color="#DAE3FE"/>
<stop offset="1" stop-color="#E9EFFD"/>
</linearGradient>
<linearGradient id="paint3_linear_727_3739" x1="8.10938" y1="92.3932" x2="21.9326" y2="92.3932" gradientUnits="userSpaceOnUse">
<stop stop-color="#DAE3FE"/>
<stop offset="1" stop-color="#E9EFFD"/>
</linearGradient>
<linearGradient id="paint4_linear_727_3739" x1="38.7969" y1="102.496" x2="52.6533" y2="102.496" gradientUnits="userSpaceOnUse">
<stop stop-color="#DAE3FE"/>
<stop offset="1" stop-color="#E9EFFD"/>
</linearGradient>
<linearGradient id="paint5_linear_727_3739" x1="23.3867" y1="102.49" x2="37.2145" y2="102.49" gradientUnits="userSpaceOnUse">
<stop stop-color="#DAE3FE"/>
<stop offset="1" stop-color="#E9EFFD"/>
</linearGradient>
<linearGradient id="paint6_linear_727_3739" x1="7.99221" y1="102.483" x2="21.7912" y2="102.483" gradientUnits="userSpaceOnUse">
<stop stop-color="#DAE3FE"/>
<stop offset="1" stop-color="#E9EFFD"/>
</linearGradient>
<linearGradient id="paint7_linear_727_3739" x1="38.625" y1="112.506" x2="52.4572" y2="112.506" gradientUnits="userSpaceOnUse">
<stop stop-color="#DAE3FE"/>
<stop offset="1" stop-color="#E9EFFD"/>
</linearGradient>
<linearGradient id="paint8_linear_727_3739" x1="23.2422" y1="112.495" x2="37.0457" y2="112.495" gradientUnits="userSpaceOnUse">
<stop stop-color="#DAE3FE"/>
<stop offset="1" stop-color="#E9EFFD"/>
</linearGradient>
<linearGradient id="paint9_linear_727_3739" x1="7.87498" y1="112.484" x2="21.6499" y2="112.484" gradientUnits="userSpaceOnUse">
<stop stop-color="#DAE3FE"/>
<stop offset="1" stop-color="#E9EFFD"/>
</linearGradient>
<linearGradient id="paint10_linear_727_3739" x1="38.4531" y1="122.483" x2="52.2611" y2="122.483" gradientUnits="userSpaceOnUse">
<stop stop-color="#DAE3FE"/>
<stop offset="1" stop-color="#E9EFFD"/>
</linearGradient>
<linearGradient id="paint11_linear_727_3739" x1="23.0977" y1="122.468" x2="36.8771" y2="122.468" gradientUnits="userSpaceOnUse">
<stop stop-color="#DAE3FE"/>
<stop offset="1" stop-color="#E9EFFD"/>
</linearGradient>
<linearGradient id="paint12_linear_727_3739" x1="7.75779" y1="122.451" x2="21.5087" y2="122.451" gradientUnits="userSpaceOnUse">
<stop stop-color="#DAE3FE"/>
<stop offset="1" stop-color="#E9EFFD"/>
</linearGradient>
<linearGradient id="paint13_linear_727_3739" x1="38.2852" y1="132.425" x2="52.069" y2="132.425" gradientUnits="userSpaceOnUse">
<stop stop-color="#DAE3FE"/>
<stop offset="1" stop-color="#E9EFFD"/>
</linearGradient>
<linearGradient id="paint14_linear_727_3739" x1="22.9531" y1="132.404" x2="36.7085" y2="132.404" gradientUnits="userSpaceOnUse">
<stop stop-color="#DAE3FE"/>
<stop offset="1" stop-color="#E9EFFD"/>
</linearGradient>
<linearGradient id="paint15_linear_727_3739" x1="7.64062" y1="132.383" x2="21.3676" y2="132.383" gradientUnits="userSpaceOnUse">
<stop stop-color="#DAE3FE"/>
<stop offset="1" stop-color="#E9EFFD"/>
</linearGradient>
<linearGradient id="paint16_linear_727_3739" x1="38.1133" y1="142.335" x2="51.873" y2="142.335" gradientUnits="userSpaceOnUse">
<stop stop-color="#DAE3FE"/>
<stop offset="1" stop-color="#E9EFFD"/>
</linearGradient>
<linearGradient id="paint17_linear_727_3739" x1="22.8125" y1="142.309" x2="36.544" y2="142.309" gradientUnits="userSpaceOnUse">
<stop stop-color="#DAE3FE"/>
<stop offset="1" stop-color="#E9EFFD"/>
</linearGradient>
<linearGradient id="paint18_linear_727_3739" x1="7.52342" y1="142.282" x2="21.2265" y2="142.282" gradientUnits="userSpaceOnUse">
<stop stop-color="#DAE3FE"/>
<stop offset="1" stop-color="#E9EFFD"/>
</linearGradient>
<linearGradient id="paint19_linear_727_3739" x1="37.9453" y1="152.209" x2="51.6812" y2="152.209" gradientUnits="userSpaceOnUse">
<stop stop-color="#DAE3FE"/>
<stop offset="1" stop-color="#E9EFFD"/>
</linearGradient>
<linearGradient id="paint20_linear_727_3739" x1="22.668" y1="152.176" x2="36.3755" y2="152.176" gradientUnits="userSpaceOnUse">
<stop stop-color="#DAE3FE"/>
<stop offset="1" stop-color="#E9EFFD"/>
</linearGradient>
<linearGradient id="paint21_linear_727_3739" x1="7.40626" y1="152.146" x2="21.0856" y2="152.146" gradientUnits="userSpaceOnUse">
<stop stop-color="#DAE3FE"/>
<stop offset="1" stop-color="#E9EFFD"/>
</linearGradient>
<linearGradient id="paint22_linear_727_3739" x1="37.7773" y1="162.047" x2="51.4893" y2="162.047" gradientUnits="userSpaceOnUse">
<stop stop-color="#DAE3FE"/>
<stop offset="1" stop-color="#E9EFFD"/>
</linearGradient>
<linearGradient id="paint23_linear_727_3739" x1="22.5273" y1="162.013" x2="36.2111" y2="162.013" gradientUnits="userSpaceOnUse">
<stop stop-color="#DAE3FE"/>
<stop offset="1" stop-color="#E9EFFD"/>
</linearGradient>
<linearGradient id="paint24_linear_727_3739" x1="7.29295" y1="161.976" x2="20.9486" y2="161.976" gradientUnits="userSpaceOnUse">
<stop stop-color="#DAE3FE"/>
<stop offset="1" stop-color="#E9EFFD"/>
</linearGradient>
<linearGradient id="paint25_linear_727_3739" x1="37.6094" y1="171.853" x2="51.2975" y2="171.853" gradientUnits="userSpaceOnUse">
<stop stop-color="#DAE3FE"/>
<stop offset="1" stop-color="#E9EFFD"/>
</linearGradient>
<linearGradient id="paint26_linear_727_3739" x1="22.3828" y1="171.812" x2="36.0429" y2="171.812" gradientUnits="userSpaceOnUse">
<stop stop-color="#DAE3FE"/>
<stop offset="1" stop-color="#E9EFFD"/>
</linearGradient>
<linearGradient id="paint27_linear_727_3739" x1="7.17577" y1="171.772" x2="20.8078" y2="171.772" gradientUnits="userSpaceOnUse">
<stop stop-color="#DAE3FE"/>
<stop offset="1" stop-color="#E9EFFD"/>
</linearGradient>
<linearGradient id="paint28_linear_727_3739" x1="149.919" y1="-82.2398" x2="110.079" y2="150.164" gradientUnits="userSpaceOnUse">
<stop stop-color="#4042E2"/>
<stop offset="1" stop-color="#4F52FF"/>
</linearGradient>
<linearGradient id="paint29_linear_727_3739" x1="82.0391" y1="109.811" x2="152.488" y2="109.811" gradientUnits="userSpaceOnUse">
<stop stop-color="#4042E2"/>
<stop offset="1" stop-color="#4F52FF"/>
</linearGradient>
<linearGradient id="paint30_linear_727_3739" x1="122.749" y1="32.1442" x2="144.182" y2="-17.3169" gradientUnits="userSpaceOnUse">
<stop stop-color="#09005D"/>
<stop offset="1" stop-color="#1A0F91"/>
</linearGradient>
<linearGradient id="paint31_linear_727_3739" x1="124.698" y1="64.1863" x2="76.4627" y2="398.505" gradientUnits="userSpaceOnUse">
<stop stop-color="#FEBBBA"/>
<stop offset="1" stop-color="#FF928E"/>
</linearGradient>
<linearGradient id="paint32_linear_727_3739" x1="123.432" y1="64.004" x2="75.1969" y2="398.323" gradientUnits="userSpaceOnUse">
<stop stop-color="#FEBBBA"/>
<stop offset="1" stop-color="#FF928E"/>
</linearGradient>
<linearGradient id="paint33_linear_727_3739" x1="126.184" y1="102.209" x2="196.895" y2="-38.38" gradientUnits="userSpaceOnUse">
<stop stop-color="#FE7062"/>
<stop offset="1" stop-color="#FF928E"/>
</linearGradient>
<linearGradient id="paint34_linear_727_3739" x1="30.9688" y1="179.288" x2="38.7905" y2="179.288" gradientUnits="userSpaceOnUse">
<stop stop-color="#09005D"/>
<stop offset="1" stop-color="#1A0F91"/>
</linearGradient>
<linearGradient id="paint35_linear_727_3739" x1="33.144" y1="170.383" x2="31.6499" y2="183.422" gradientUnits="userSpaceOnUse">
<stop stop-color="#FEBBBA"/>
<stop offset="1" stop-color="#FF928E"/>
</linearGradient>
<linearGradient id="paint36_linear_727_3739" x1="42.879" y1="179.487" x2="54.1382" y2="179.487" gradientUnits="userSpaceOnUse">
<stop stop-color="#09005D"/>
<stop offset="1" stop-color="#1A0F91"/>
</linearGradient>
<linearGradient id="paint37_linear_727_3739" x1="45.1129" y1="171.761" x2="44.4419" y2="184.868" gradientUnits="userSpaceOnUse">
<stop stop-color="#FEBBBA"/>
<stop offset="1" stop-color="#FF928E"/>
</linearGradient>
<linearGradient id="paint38_linear_727_3739" x1="43.0485" y1="182.684" x2="27.5836" y2="108.942" gradientUnits="userSpaceOnUse">
<stop stop-color="#09005D"/>
<stop offset="1" stop-color="#1A0F91"/>
</linearGradient>
<linearGradient id="paint39_linear_727_3739" x1="58.8395" y1="81.9266" x2="24.6689" y2="119.624" gradientUnits="userSpaceOnUse">
<stop stop-color="#4042E2"/>
<stop offset="1" stop-color="#4F52FF"/>
</linearGradient>
<linearGradient id="paint40_linear_727_3739" x1="52.1977" y1="84.0188" x2="2.38733" y2="175.443" gradientUnits="userSpaceOnUse">
<stop stop-color="#4042E2"/>
<stop offset="1" stop-color="#4F52FF"/>
</linearGradient>
<linearGradient id="paint41_linear_727_3739" x1="39.1036" y1="94.3833" x2="42.5736" y2="84.9074" gradientUnits="userSpaceOnUse">
<stop stop-color="#FEBBBA"/>
<stop offset="1" stop-color="#FF928E"/>
</linearGradient>
<linearGradient id="paint42_linear_727_3739" x1="42.1078" y1="63.8409" x2="40.4957" y2="76.1519" gradientUnits="userSpaceOnUse">
<stop stop-color="#4042E2"/>
<stop offset="1" stop-color="#4F52FF"/>
</linearGradient>
<linearGradient id="paint43_linear_727_3739" x1="44.9274" y1="64.2097" x2="43.3153" y2="76.5206" gradientUnits="userSpaceOnUse">
<stop stop-color="#4042E2"/>
<stop offset="1" stop-color="#4F52FF"/>
</linearGradient>
<linearGradient id="paint44_linear_727_3739" x1="47.6353" y1="80.1702" x2="26.9602" y2="96.6371" gradientUnits="userSpaceOnUse">
<stop stop-color="#FEBBBA"/>
<stop offset="1" stop-color="#FF928E"/>
</linearGradient>
<linearGradient id="paint45_linear_727_3739" x1="39.6517" y1="74.7531" x2="49.128" y2="86.9539" gradientUnits="userSpaceOnUse">
<stop stop-color="#09005D"/>
<stop offset="1" stop-color="#1A0F91"/>
</linearGradient>
<linearGradient id="paint46_linear_727_3739" x1="45.5519" y1="79.2672" x2="35.377" y2="87.0525" gradientUnits="userSpaceOnUse">
<stop stop-color="#FEBBBA"/>
<stop offset="1" stop-color="#FF928E"/>
</linearGradient>
<linearGradient id="paint47_linear_727_3739" x1="69.6323" y1="84.4109" x2="48.0892" y2="103.02" gradientUnits="userSpaceOnUse">
<stop stop-color="#FEBBBA"/>
<stop offset="1" stop-color="#FF928E"/>
</linearGradient>
<linearGradient id="paint48_linear_727_3739" x1="70.0843" y1="86.1468" x2="49.114" y2="104.261" gradientUnits="userSpaceOnUse">
<stop stop-color="#FEBBBA"/>
<stop offset="1" stop-color="#FF928E"/>
</linearGradient>
<linearGradient id="paint49_linear_727_3739" x1="70.4319" y1="85.335" x2="48.8888" y2="103.944" gradientUnits="userSpaceOnUse">
<stop stop-color="#FEBBBA"/>
<stop offset="1" stop-color="#FF928E"/>
</linearGradient>
<linearGradient id="paint50_linear_727_3739" x1="43.2362" y1="47.2851" x2="97.717" y2="119.2" gradientUnits="userSpaceOnUse">
<stop stop-color="#E1473D"/>
<stop offset="1" stop-color="#E9605A"/>
</linearGradient>
<linearGradient id="paint51_linear_727_3739" x1="101.508" y1="60.0111" x2="91.3861" y2="109.652" gradientUnits="userSpaceOnUse">
<stop stop-color="#FE7062"/>
<stop offset="1" stop-color="#FF928E"/>
</linearGradient>
<linearGradient id="paint52_linear_727_3739" x1="49.1684" y1="83.4966" x2="134.601" y2="89.884" gradientUnits="userSpaceOnUse">
<stop stop-color="#FF9085"/>
<stop offset="1" stop-color="#FB6FBB"/>
</linearGradient>
<linearGradient id="paint53_linear_727_3739" x1="88.0206" y1="80.2535" x2="108.685" y2="27.7123" gradientUnits="userSpaceOnUse">
<stop stop-color="#FE7062"/>
<stop offset="1" stop-color="#FF928E"/>
</linearGradient>
<linearGradient id="paint54_linear_727_3739" x1="99.4027" y1="24.3531" x2="95.8853" y2="31.1681" gradientUnits="userSpaceOnUse">
<stop stop-color="#FE7062"/>
<stop offset="1" stop-color="#FF928E"/>
</linearGradient>
<linearGradient id="paint55_linear_727_3739" x1="56.7818" y1="100.603" x2="46.5364" y2="151.711" gradientUnits="userSpaceOnUse">
<stop stop-color="#FEBBBA"/>
<stop offset="1" stop-color="#FF928E"/>
</linearGradient>
</defs>
</svg>
