<svg width="18" height="18" viewBox="0 0 18 18" fill="none" xmlns="http://www.w3.org/2000/svg">
<path d="M12.9596 6.95964C13.059 6.85301 13.1131 6.71198 13.1105 6.56625C13.108 6.42052 13.0489 6.28148 12.9459 6.17842C12.8428 6.07537 12.7038 6.01633 12.558 6.01376C12.4123 6.01119 12.2713 6.06528 12.1646 6.16464L7.68714 10.6421L5.83464 8.78964C5.72801 8.69028 5.58697 8.63619 5.44125 8.63876C5.29552 8.64133 5.15648 8.70037 5.05342 8.80342C4.95036 8.90648 4.89133 9.04552 4.88876 9.19125C4.88619 9.33698 4.94028 9.47801 5.03964 9.58464L7.28964 11.8346C7.39511 11.94 7.53808 11.9991 7.68714 11.9991C7.8362 11.9991 7.97917 11.94 8.08464 11.8346L12.9596 6.95964Z" fill="#454545"/>
<path d="M2.8125 1.5H15.1875C15.912 1.5 16.5 2.088 16.5 2.8125V15.1875C16.5 15.5356 16.3617 15.8694 16.1156 16.1156C15.8694 16.3617 15.5356 16.5 15.1875 16.5H2.8125C2.4644 16.5 2.13056 16.3617 1.88442 16.1156C1.63828 15.8694 1.5 15.5356 1.5 15.1875V2.8125C1.5 2.088 2.088 1.5 2.8125 1.5ZM2.625 2.8125V15.1875C2.625 15.291 2.709 15.375 2.8125 15.375H15.1875C15.2372 15.375 15.2849 15.3552 15.3201 15.3201C15.3552 15.2849 15.375 15.2372 15.375 15.1875V2.8125C15.375 2.76277 15.3552 2.71508 15.3201 2.67992C15.2849 2.64475 15.2372 2.625 15.1875 2.625H2.8125C2.76277 2.625 2.71508 2.64475 2.67992 2.67992C2.64475 2.71508 2.625 2.76277 2.625 2.8125Z" fill="#454545"/>
</svg>
