<svg width="64" height="67" viewBox="0 0 64 67" fill="none" xmlns="http://www.w3.org/2000/svg">
<rect width="63.83" height="67" rx="10" fill="#F8F8F8"/>
<path d="M40.8975 50.3742C39.0447 50.3742 37.4733 49.6467 36.1834 48.1917C34.8935 46.7342 34.2486 44.9617 34.2486 42.8742C34.2486 40.7867 34.8935 39.0148 36.1834 37.5586C37.4733 36.1023 39.0441 35.3742 40.8959 35.3742C42.7487 35.3742 44.3201 36.1023 45.61 37.5586C46.901 39.0136 47.5465 40.7855 47.5465 42.8742C47.5465 44.963 46.901 46.7355 45.61 48.1917C44.319 49.648 42.7481 50.3755 40.8975 50.3742ZM43.6485 47.003L44.5561 45.9792L41.5358 42.5705V37.4667H40.2576V43.178L43.6485 47.003ZM21.333 48.4992C20.5905 48.4992 19.9572 48.2042 19.433 47.6142C18.91 47.0242 18.6484 46.3098 18.6484 45.4711V21.5273C18.6484 20.6898 18.91 19.9755 19.433 19.3842C19.9561 18.7942 20.5899 18.4992 21.3346 18.4992H29.0408C29.1959 17.7667 29.5411 17.1511 30.0763 16.6523C30.6116 16.1523 31.2349 15.9023 31.9464 15.9023C32.6711 15.9023 33.2994 16.1523 33.8313 16.6523C34.3633 17.1498 34.7068 17.7655 34.8619 18.4992H42.5581C43.3028 18.4992 43.9366 18.7942 44.4597 19.3842C44.9827 19.9742 45.2443 20.6892 45.2443 21.5292V32.8148C44.9584 32.6486 44.688 32.503 44.4331 32.378C44.1782 32.253 43.8945 32.1411 43.582 32.0423V21.5273C43.582 21.2398 43.4757 20.9755 43.2629 20.7342C43.0501 20.493 42.8152 20.373 42.5581 20.3742H38.5953V24.5555H25.2974V20.3742H21.3346C21.0786 20.3742 20.8437 20.4942 20.6298 20.7342C20.416 20.9742 20.3096 21.2392 20.3107 21.5292V45.4711C20.3107 45.8073 20.4065 46.0836 20.5982 46.2998C20.79 46.5161 21.0354 46.6242 21.3346 46.6242H31.5175C31.6061 46.9742 31.7109 47.2998 31.8317 47.6011C31.9536 47.9011 32.1087 48.2005 32.2971 48.4992H21.333ZM31.9464 20.8055C32.332 20.8055 32.6523 20.6623 32.9071 20.3761C33.162 20.0886 33.2894 19.7273 33.2894 19.2923C33.2894 18.8573 33.162 18.4961 32.9071 18.2086C32.6523 17.9211 32.332 17.7773 31.9464 17.7773C31.5607 17.7773 31.2405 17.9211 30.9856 18.2086C30.7307 18.4961 30.6033 18.8573 30.6033 19.2923C30.6033 19.7273 30.7307 20.0886 30.9856 20.3761C31.2405 20.6636 31.5607 20.8055 31.9464 20.8055Z" fill="#FCBE2D"/>
</svg>
