<svg width="40" height="45" viewBox="0 0 40 45" fill="none" xmlns="http://www.w3.org/2000/svg">
<path d="M28.8975 39.3742C27.0447 39.3742 25.4733 38.6467 24.1834 37.1917C22.8935 35.7342 22.2486 33.9617 22.2486 31.8742C22.2486 29.7867 22.8935 28.0148 24.1834 26.5586C25.4733 25.1023 27.0441 24.3742 28.8959 24.3742C30.7487 24.3742 32.3201 25.1023 33.61 26.5586C34.901 28.0136 35.5465 29.7855 35.5465 31.8742C35.5465 33.963 34.901 35.7355 33.61 37.1917C32.319 38.648 30.7481 39.3755 28.8975 39.3742ZM31.6485 36.003L32.5561 34.9792L29.5358 31.5705V26.4667H28.2576V32.178L31.6485 36.003ZM9.33295 37.4992C8.59049 37.4992 7.95717 37.2042 7.43301 36.6142C6.90996 36.0242 6.64844 35.3098 6.64844 34.4711V10.5273C6.64844 9.68984 6.90996 8.97547 7.43301 8.38422C7.95607 7.79422 8.58993 7.49922 9.33462 7.49922H17.0408C17.1959 6.76672 17.5411 6.15109 18.0763 5.65234C18.6116 5.15234 19.2349 4.90234 19.9464 4.90234C20.6711 4.90234 21.2994 5.15234 21.8313 5.65234C22.3633 6.14984 22.7068 6.76547 22.8619 7.49922H30.5581C31.3028 7.49922 31.9366 7.79422 32.4597 8.38422C32.9827 8.97422 33.2443 9.68922 33.2443 10.5292V21.8148C32.9584 21.6486 32.688 21.503 32.4331 21.378C32.1782 21.253 31.8945 21.1411 31.582 21.0423V10.5273C31.582 10.2398 31.4757 9.97547 31.2629 9.73422C31.0501 9.49297 30.8152 9.37297 30.5581 9.37422H26.5953V13.5555H13.2974V9.37422H9.33462C9.07863 9.37422 8.8437 9.49422 8.62983 9.73422C8.41595 9.97422 8.30957 10.2392 8.31068 10.5292V34.4711C8.31068 34.8073 8.40653 35.0836 8.59824 35.2998C8.78996 35.5161 9.03541 35.6242 9.33462 35.6242H19.5175C19.6061 35.9742 19.7109 36.2998 19.8317 36.6011C19.9536 36.9011 20.1087 37.2005 20.2971 37.4992H9.33295ZM19.9464 9.80547C20.332 9.80547 20.6523 9.66234 20.9071 9.37609C21.162 9.08859 21.2894 8.72734 21.2894 8.29234C21.2894 7.85734 21.162 7.49609 20.9071 7.20859C20.6523 6.92109 20.332 6.77734 19.9464 6.77734C19.5607 6.77734 19.2405 6.92109 18.9856 7.20859C18.7307 7.49609 18.6033 7.85734 18.6033 8.29234C18.6033 8.72734 18.7307 9.08859 18.9856 9.37609C19.2405 9.66359 19.5607 9.80547 19.9464 9.80547Z" fill="#FCBE2D"/>
</svg>
