<svg width="51" height="50" viewBox="0 0 51 50" fill="none" xmlns="http://www.w3.org/2000/svg">
<path d="M26.2187 20.8716L26.294 20.3773C26.2142 20.3651 26.1508 20.3555 26.0964 20.3462C26.0958 20.3053 26.0958 20.2581 26.0958 20.2008V6.87576C26.0958 6.83048 26.0958 6.79168 26.0961 6.75729C26.1274 6.75817 26.1624 6.7594 26.2028 6.76085L26.2042 6.7609C30.1654 6.89262 33.9761 8.31032 37.0603 10.7997C40.1444 13.2891 42.3343 16.7148 43.2989 20.559C44.2635 24.4033 43.9505 28.4571 42.4071 32.1076C40.8636 35.7582 38.1738 38.8071 34.744 40.7934C31.3143 42.7798 27.3311 43.5956 23.3966 43.1176C19.4621 42.6396 15.7901 40.8937 12.9358 38.1439C10.0815 35.394 8.19993 31.7897 7.57556 27.8758C6.95118 23.9619 7.61794 19.951 9.47504 16.4496L9.47505 16.4496L9.47687 16.4461C9.49474 16.4118 9.51038 16.3819 9.52452 16.3552C9.55386 16.3719 9.58676 16.3909 9.62503 16.413L9.62614 16.4136L21.1816 23.0444L21.1824 23.0448L21.1975 23.0535C21.241 23.0786 21.2774 23.0996 21.3094 23.1185C21.2911 23.1683 21.269 23.2254 21.2414 23.2965L21.2382 23.3047C21.2382 23.3048 21.2382 23.3048 21.2382 23.3049C20.8865 24.208 20.824 25.1981 21.0595 26.1383C21.295 27.0785 21.8168 27.9224 22.5527 28.5532C23.2886 29.184 24.2023 29.5705 25.1675 29.6594C26.1327 29.7483 27.1017 29.5352 27.9404 29.0494C28.7792 28.5636 29.4463 27.8293 29.8496 26.9479C30.2528 26.0665 30.3723 25.0815 30.1914 24.1293C30.0105 23.177 29.5383 22.3045 28.8399 21.6323C28.1416 20.9602 27.2517 20.5216 26.2932 20.3772L26.2187 20.8716ZM26.2187 20.8716C27.0747 21.0005 27.8695 21.3923 28.4932 21.9926C29.1169 22.5929 29.5386 23.3721 29.7002 24.2226C29.8617 25.073 29.755 25.9527 29.3949 26.7399C29.0348 27.527 28.439 28.1829 27.6899 28.6167C26.9408 29.0505 26.0754 29.2409 25.2134 29.1615C24.3514 29.0822 23.5353 28.7369 22.8781 28.1736C22.2208 27.6102 21.7548 26.8566 21.5445 26.0168C21.3342 25.1771 21.39 24.2928 21.7042 23.4862L26.1038 20.4863C26.1038 20.4862 26.1037 20.4858 26.1035 20.4849C26.1017 20.4769 26.0901 20.4341 26.0504 20.3879L25.6708 20.7133M26.2187 20.8716L26.208 20.8699C25.9006 20.8231 25.747 20.7998 25.6708 20.7133M25.6708 20.7133L26.046 20.3827C26.0085 20.3402 25.9712 20.3218 25.9604 20.3173M25.6708 20.7133C25.5958 20.6258 25.5958 20.4841 25.5958 20.2008V6.87576L25.9604 20.3173M25.9604 20.3173C25.9585 20.3165 25.9574 20.3161 25.9573 20.3161C25.9572 20.3161 25.9582 20.3165 25.9604 20.3173ZM21.3519 22.986C21.3522 22.9838 21.3524 22.9826 21.3524 22.9826C21.3525 22.9826 21.3524 22.9837 21.3519 22.986Z" fill="#1967D2" stroke="white"/>
<path d="M18.6181 37.0876C18.4701 37.3459 18.3951 37.4751 18.4306 37.6022C18.4701 37.7293 18.5972 37.798 18.8535 37.9313C20.79 38.9415 22.9288 39.5037 25.1118 39.5765C27.2948 39.6493 29.4662 39.2309 31.4658 38.352C33.4654 37.4732 35.242 36.1564 36.6645 34.4989C38.087 32.8414 39.119 30.8856 39.6843 28.7758C40.2497 26.666 40.3339 24.4562 39.9307 22.3096C39.5276 20.1629 38.6474 18.1342 37.3551 16.3733C36.0629 14.6124 34.3916 13.1642 32.4647 12.1358C30.5377 11.1073 28.4044 10.5248 26.2222 10.4313C25.9347 10.4188 25.7889 10.4105 25.6931 10.5043C25.5972 10.5959 25.5972 10.7438 25.5972 11.0418V20.2126C25.5972 20.4959 25.5972 20.6376 25.6722 20.7251C25.7493 20.8147 25.9056 20.8376 26.2201 20.8855C26.7987 20.974 27.3521 21.1835 27.8443 21.5001C28.3365 21.8168 28.7564 22.2336 29.0768 22.7234C29.3972 23.2132 29.6108 23.765 29.7037 24.3429C29.7966 24.9207 29.7667 25.5116 29.616 26.0772C29.4646 26.6429 29.1955 27.1703 28.8262 27.6249C28.457 28.0794 27.9959 28.4509 27.4732 28.715C26.9505 28.9791 26.3779 29.1299 25.7929 29.1575C25.2079 29.1851 24.6237 29.0888 24.0785 28.8751C23.7826 28.7584 23.6347 28.7022 23.5264 28.7397C23.416 28.7772 23.3451 28.9001 23.2035 29.1459L18.6181 37.0876Z" fill="#D3F3B3"/>
</svg>
