<svg width="65" height="67" viewBox="0 0 65 67" fill="none" xmlns="http://www.w3.org/2000/svg">
<rect x="0.847656" width="63.827" height="67" rx="10" fill="#F8F8F8"/>
<path d="M36.2187 28.8716L36.294 28.3773C36.2142 28.3651 36.1508 28.3555 36.0964 28.3462C36.0958 28.3053 36.0958 28.2581 36.0958 28.2008V14.8758C36.0958 14.8305 36.0958 14.7917 36.0961 14.7573C36.1274 14.7582 36.1624 14.7594 36.2028 14.7609L36.2042 14.7609C40.1654 14.8926 43.9761 16.3103 47.0603 18.7997C50.1444 21.2891 52.3343 24.7148 53.2989 28.559C54.2635 32.4033 53.9505 36.4571 52.4071 40.1076C50.8636 43.7582 48.1738 46.8071 44.744 48.7934C41.3143 50.7798 37.3311 51.5956 33.3966 51.1176C29.4621 50.6396 25.7901 48.8937 22.9358 46.1439C20.0815 43.394 18.1999 39.7897 17.5756 35.8758C16.9512 31.9619 17.6179 27.951 19.475 24.4496L19.4751 24.4496L19.4769 24.4461C19.4947 24.4118 19.5104 24.3819 19.5245 24.3552C19.5539 24.3719 19.5868 24.3909 19.625 24.413L19.6261 24.4136L31.1816 31.0444L31.1824 31.0448L31.1975 31.0535C31.241 31.0786 31.2774 31.0996 31.3094 31.1185C31.2911 31.1683 31.269 31.2254 31.2414 31.2965L31.2382 31.3047C31.2382 31.3048 31.2382 31.3048 31.2382 31.3049C30.8865 32.208 30.824 33.1981 31.0595 34.1383C31.295 35.0785 31.8168 35.9224 32.5527 36.5532C33.2886 37.184 34.2023 37.5705 35.1675 37.6594C36.1327 37.7483 37.1017 37.5352 37.9404 37.0494C38.7792 36.5636 39.4463 35.8293 39.8496 34.9479C40.2528 34.0665 40.3723 33.0815 40.1914 32.1293C40.0105 31.177 39.5383 30.3045 38.8399 29.6323C38.1416 28.9602 37.2517 28.5216 36.2932 28.3772L36.2187 28.8716ZM36.2187 28.8716C37.0747 29.0005 37.8695 29.3923 38.4932 29.9926C39.1169 30.5929 39.5386 31.3721 39.7002 32.2226C39.8617 33.073 39.755 33.9527 39.3949 34.7399C39.0348 35.527 38.439 36.1829 37.6899 36.6167C36.9408 37.0505 36.0754 37.2409 35.2134 37.1615C34.3514 37.0822 33.5353 36.7369 32.8781 36.1736C32.2208 35.6102 31.7548 34.8566 31.5445 34.0168C31.3342 33.1771 31.39 32.2928 31.7042 31.4862L36.1038 28.4863C36.1038 28.4862 36.1037 28.4858 36.1035 28.4849C36.1017 28.4769 36.0901 28.4341 36.0504 28.3879L35.6708 28.7133M36.2187 28.8716L36.208 28.8699C35.9006 28.8231 35.747 28.7998 35.6708 28.7133M35.6708 28.7133L36.046 28.3827C36.0085 28.3402 35.9712 28.3218 35.9604 28.3173M35.6708 28.7133C35.5958 28.6258 35.5958 28.4841 35.5958 28.2008V14.8758L35.9604 28.3173M35.9604 28.3173C35.9585 28.3165 35.9574 28.3161 35.9573 28.3161C35.9572 28.3161 35.9582 28.3165 35.9604 28.3173ZM31.3519 30.986C31.3522 30.9838 31.3524 30.9826 31.3524 30.9826C31.3525 30.9826 31.3524 30.9837 31.3519 30.986Z" fill="#1967D2" stroke="white"/>
<path d="M28.6181 45.0876C28.4701 45.3459 28.3951 45.4751 28.4306 45.6022C28.4701 45.7293 28.5972 45.798 28.8535 45.9313C30.79 46.9415 32.9288 47.5037 35.1118 47.5765C37.2948 47.6493 39.4662 47.2309 41.4658 46.352C43.4654 45.4732 45.242 44.1564 46.6645 42.4989C48.087 40.8414 49.119 38.8856 49.6843 36.7758C50.2497 34.666 50.3339 32.4562 49.9307 30.3096C49.5276 28.1629 48.6474 26.1342 47.3551 24.3733C46.0629 22.6124 44.3916 21.1642 42.4647 20.1358C40.5377 19.1073 38.4044 18.5248 36.2222 18.4313C35.9347 18.4188 35.7889 18.4105 35.6931 18.5043C35.5972 18.5959 35.5972 18.7438 35.5972 19.0418V28.2126C35.5972 28.4959 35.5972 28.6376 35.6722 28.7251C35.7493 28.8147 35.9056 28.8376 36.2201 28.8855C36.7987 28.974 37.3521 29.1835 37.8443 29.5001C38.3365 29.8168 38.7564 30.2336 39.0768 30.7234C39.3972 31.2132 39.6108 31.765 39.7037 32.3429C39.7966 32.9207 39.7667 33.5116 39.616 34.0772C39.4646 34.6429 39.1955 35.1703 38.8262 35.6249C38.457 36.0794 37.9959 36.4509 37.4732 36.715C36.9505 36.9791 36.3779 37.1299 35.7929 37.1575C35.2079 37.1851 34.6237 37.0888 34.0785 36.8751C33.7826 36.7584 33.6347 36.7022 33.5264 36.7397C33.416 36.7772 33.3451 36.9001 33.2035 37.1459L28.6181 45.0876Z" fill="#D3F3B3"/>
</svg>
