<svg width="16" height="17" viewBox="0 0 16 17" fill="none" xmlns="http://www.w3.org/2000/svg">
<path d="M13.0667 14.333L8.86667 10.133C8.53333 10.3997 8.15 10.6108 7.71667 10.7663C7.28333 10.9219 6.82222 10.9997 6.33333 10.9997C5.12222 10.9997 4.09733 10.5801 3.25867 9.74101C2.42 8.9019 2.00044 7.87701 2 6.66634C1.99956 5.45567 2.41911 4.43079 3.25867 3.59167C4.09822 2.75256 5.12311 2.33301 6.33333 2.33301C7.54356 2.33301 8.56867 2.75256 9.40867 3.59167C10.2487 4.43079 10.668 5.45567 10.6667 6.66634C10.6667 7.15523 10.5889 7.61634 10.4333 8.04967C10.2778 8.48301 10.0667 8.86634 9.8 9.19967L14 13.3997L13.0667 14.333ZM6.33333 9.66634C7.16667 9.66634 7.87511 9.37479 8.45867 8.79167C9.04222 8.20856 9.33378 7.50012 9.33333 6.66634C9.33289 5.83256 9.04133 5.12434 8.45867 4.54167C7.876 3.95901 7.16756 3.66723 6.33333 3.66634C5.49911 3.66545 4.79089 3.95723 4.20867 4.54167C3.62644 5.12612 3.33467 5.83434 3.33333 6.66634C3.332 7.49834 3.62378 8.20679 4.20867 8.79167C4.79356 9.37656 5.50178 9.66812 6.33333 9.66634Z" fill="#475568"/>
</svg>
