<svg width="27" height="27" viewBox="0 0 27 27" fill="none" xmlns="http://www.w3.org/2000/svg">
<path d="M22.5789 6.2373L20.8031 7.56888C20.384 7.88319 19.8743 8.05309 19.3505 8.05309H15.2855C14.8916 8.05325 14.5074 8.17518 14.1854 8.4022C13.8635 8.62921 13.6196 8.9502 13.4872 9.3212C13.3548 9.6922 13.3403 10.0951 13.4458 10.4746C13.5512 10.8542 13.7714 11.1918 14.0762 11.4414L16.4973 13.4218C17.435 14.189 18.1659 15.1785 18.6234 16.3004C19.0809 17.4222 19.2506 18.6407 19.1168 19.8448L19.0926 20.0627C18.9963 20.9295 18.7833 21.7793 18.4595 22.5891L17.7368 24.3952M2 11.6847L5.91968 11.031C6.2999 10.9675 6.68977 10.9958 7.05687 11.1133C7.42396 11.2309 7.75768 11.4345 8.03025 11.7071C8.30282 11.9796 8.50636 12.3133 8.62396 12.6804C8.74155 13.0475 8.76978 13.4374 8.70632 13.8176L8.5429 14.7945C8.40103 15.6467 8.5361 16.5219 8.92828 17.2916C9.32045 18.0614 9.94907 18.6851 10.7218 19.0713C11.3383 19.3798 11.8311 19.8893 12.119 20.5156C12.4069 21.142 12.4726 21.8477 12.3052 22.5165L11.6842 25.0005" stroke="#979797" stroke-width="2.5"/>
<path d="M13.5 25C19.8513 25 25 19.8513 25 13.5C25 7.14873 19.8513 2 13.5 2C7.14873 2 2 7.14873 2 13.5C2 19.8513 7.14873 25 13.5 25Z" stroke="#979797" stroke-width="2.5"/>
</svg>
