<svg width="493" height="329" viewBox="0 0 493 329" fill="none" xmlns="http://www.w3.org/2000/svg">
<path d="M160.518 97.4819H77.2734V40.5371H160.518V97.4819ZM77.9308 96.8246H159.861V41.1944H77.9308V96.8246Z" fill="#EBEBEB"/>
<path d="M83.7817 44.2053C83.7817 44.5329 83.6846 44.8532 83.5025 45.1256C83.3205 45.398 83.0618 45.6103 82.7591 45.7357C82.4565 45.8611 82.1234 45.8939 81.8021 45.83C81.4807 45.766 81.1856 45.6083 80.9539 45.3766C80.7223 45.1449 80.5645 44.8498 80.5006 44.5285C80.4367 44.2071 80.4695 43.8741 80.5948 43.5714C80.7202 43.2687 80.9325 43.01 81.2049 42.828C81.4773 42.646 81.7976 42.5488 82.1252 42.5488C82.5646 42.5488 82.9859 42.7233 83.2965 43.034C83.6072 43.3446 83.7817 43.766 83.7817 44.2053Z" fill="#A6A6A6"/>
<path d="M90.5473 44.2053C90.5473 44.5329 90.4502 44.8532 90.2682 45.1256C90.0862 45.398 89.8274 45.6103 89.5248 45.7357C89.2221 45.8611 88.889 45.8939 88.5677 45.83C88.2464 45.766 87.9512 45.6083 87.7195 45.3766C87.4879 45.1449 87.3301 44.8498 87.2662 44.5285C87.2023 44.2071 87.2351 43.8741 87.3605 43.5714C87.4858 43.2687 87.6982 43.01 87.9706 42.828C88.243 42.646 88.5632 42.5488 88.8909 42.5488C89.3302 42.5488 89.7515 42.7233 90.0622 43.034C90.3728 43.3446 90.5473 43.766 90.5473 44.2053Z" fill="#EBEBEB"/>
<path d="M97.3183 44.2053C97.3196 44.5348 97.223 44.8572 97.0408 45.1317C96.8585 45.4062 96.5988 45.6204 96.2947 45.7471C95.9905 45.8738 95.6556 45.9073 95.3324 45.8433C95.0092 45.7793 94.7123 45.6208 94.4793 45.3878C94.2463 45.1549 94.0878 44.8579 94.0238 44.5347C93.9599 44.2115 93.9934 43.8766 94.12 43.5724C94.2467 43.2683 94.4609 43.0086 94.7354 42.8264C95.0099 42.6441 95.3323 42.5475 95.6618 42.5488C96.1011 42.5488 96.5225 42.7234 96.8331 43.034C97.1438 43.3447 97.3183 43.766 97.3183 44.2053Z" fill="#407BFF"/>
<path d="M160.193 47.1172H77.6055V47.7745H160.193V47.1172Z" fill="#EBEBEB"/>
<path d="M432.86 246.637H432.203V163.931L449.774 139.952V95.1348H450.431V140.162L432.86 164.148V246.637Z" fill="#EBEBEB"/>
<path d="M450.1 95.4894C449.725 95.4894 449.359 95.3782 449.048 95.1699C448.736 94.9616 448.494 94.6655 448.351 94.3192C448.207 93.9729 448.17 93.5919 448.244 93.2245C448.317 92.8571 448.498 92.5198 448.764 92.2553C449.029 91.9908 449.367 91.811 449.735 91.7387C450.103 91.6664 450.483 91.7048 450.829 91.8491C451.175 91.9934 451.47 92.2371 451.677 92.5493C451.885 92.8615 451.995 93.2281 451.993 93.6028C451.993 93.8511 451.944 94.097 451.849 94.3263C451.754 94.5556 451.614 94.7639 451.438 94.9391C451.263 95.1144 451.054 95.2532 450.824 95.3477C450.594 95.4421 450.348 95.4902 450.1 95.4894ZM450.1 92.367C449.856 92.367 449.617 92.4395 449.414 92.5753C449.21 92.7111 449.052 92.9041 448.958 93.1299C448.865 93.3557 448.84 93.6042 448.888 93.8439C448.936 94.0836 449.053 94.3038 449.226 94.4767C449.399 94.6495 449.619 94.7672 449.859 94.8149C450.099 94.8626 450.347 94.8381 450.573 94.7445C450.799 94.651 450.992 94.4926 451.128 94.2894C451.263 94.0862 451.336 93.8472 451.336 93.6028C451.336 93.2751 451.206 92.9607 450.974 92.729C450.742 92.4972 450.428 92.367 450.1 92.367Z" fill="#EBEBEB"/>
<path d="M437.388 246.637H436.73V166.83L436.79 166.738L454.301 142.844V111.568H454.958V143.061L437.388 167.041V246.637Z" fill="#EBEBEB"/>
<path d="M454.63 111.923C454.255 111.924 453.888 111.814 453.576 111.607C453.264 111.399 453.02 111.104 452.876 110.757C452.732 110.411 452.694 110.03 452.767 109.662C452.839 109.294 453.02 108.956 453.285 108.691C453.55 108.426 453.888 108.246 454.256 108.173C454.624 108.1 455.005 108.138 455.351 108.282C455.697 108.426 455.993 108.67 456.2 108.982C456.408 109.295 456.518 109.661 456.517 110.036C456.515 110.536 456.316 111.015 455.962 111.368C455.609 111.722 455.13 111.921 454.63 111.923ZM454.63 108.801C454.385 108.799 454.146 108.871 453.942 109.006C453.738 109.141 453.578 109.333 453.484 109.559C453.389 109.785 453.364 110.033 453.411 110.273C453.458 110.514 453.575 110.734 453.747 110.908C453.92 111.081 454.14 111.2 454.38 111.248C454.62 111.296 454.869 111.272 455.095 111.179C455.321 111.085 455.515 110.927 455.651 110.724C455.787 110.52 455.859 110.281 455.859 110.036C455.859 109.71 455.73 109.396 455.5 109.165C455.269 108.933 454.957 108.802 454.63 108.801Z" fill="#EBEBEB"/>
<path d="M428.501 137.25H427.844V246.637H428.501V137.25Z" fill="#EBEBEB"/>
<path d="M428.173 137.579C427.798 137.581 427.431 137.47 427.119 137.263C426.807 137.055 426.563 136.76 426.419 136.414C426.275 136.067 426.237 135.686 426.309 135.318C426.382 134.951 426.563 134.613 426.828 134.347C427.093 134.082 427.431 133.902 427.799 133.829C428.167 133.756 428.548 133.794 428.894 133.938C429.24 134.082 429.536 134.326 429.743 134.638C429.951 134.951 430.061 135.318 430.06 135.693C430.058 136.192 429.859 136.671 429.505 137.025C429.152 137.378 428.673 137.577 428.173 137.579ZM428.173 134.457C427.928 134.456 427.689 134.527 427.485 134.662C427.281 134.797 427.121 134.989 427.027 135.215C426.932 135.441 426.907 135.69 426.954 135.93C427.001 136.17 427.118 136.391 427.29 136.564C427.463 136.738 427.683 136.856 427.923 136.904C428.163 136.952 428.412 136.928 428.638 136.835C428.864 136.742 429.058 136.583 429.194 136.38C429.33 136.177 429.402 135.937 429.402 135.693C429.402 135.366 429.273 135.053 429.043 134.821C428.812 134.59 428.5 134.459 428.173 134.457Z" fill="#EBEBEB"/>
<path d="M424.3 246.638H423.643V191.126L411.719 168.626V128.213H412.376V168.468L424.3 190.968V246.638Z" fill="#EBEBEB"/>
<path d="M412.042 128.54C411.667 128.54 411.301 128.429 410.99 128.221C410.678 128.013 410.436 127.717 410.293 127.371C410.149 127.026 410.112 126.645 410.185 126.278C410.258 125.91 410.438 125.573 410.703 125.308C410.968 125.044 411.305 124.863 411.672 124.79C412.039 124.717 412.42 124.755 412.766 124.898C413.112 125.041 413.408 125.284 413.616 125.595C413.824 125.907 413.935 126.273 413.935 126.647C413.935 127.149 413.735 127.631 413.38 127.986C413.025 128.341 412.544 128.54 412.042 128.54ZM412.042 125.418C411.797 125.418 411.558 125.49 411.354 125.627C411.151 125.763 410.993 125.956 410.899 126.182C410.806 126.408 410.782 126.657 410.83 126.897C410.878 127.137 410.997 127.357 411.17 127.53C411.344 127.702 411.564 127.819 411.805 127.866C412.045 127.913 412.293 127.888 412.519 127.793C412.745 127.699 412.937 127.539 413.072 127.335C413.207 127.131 413.279 126.892 413.277 126.647C413.277 126.485 413.245 126.325 413.183 126.175C413.121 126.026 413.03 125.89 412.915 125.776C412.8 125.661 412.664 125.571 412.514 125.509C412.364 125.448 412.204 125.417 412.042 125.418Z" fill="#EBEBEB"/>
<path d="M420.128 246.638H419.471V193.538L405.41 168.665V142.01H406.067V168.487L420.128 193.367V246.638Z" fill="#EBEBEB"/>
<path d="M405.74 142.339C405.365 142.34 404.998 142.23 404.685 142.023C404.373 141.815 404.129 141.52 403.985 141.173C403.841 140.827 403.803 140.446 403.876 140.078C403.949 139.71 404.129 139.372 404.394 139.107C404.659 138.842 404.997 138.662 405.365 138.589C405.733 138.516 406.114 138.554 406.46 138.698C406.807 138.842 407.102 139.086 407.31 139.398C407.517 139.711 407.627 140.077 407.626 140.452C407.624 140.952 407.425 141.431 407.072 141.784C406.718 142.138 406.239 142.337 405.74 142.339ZM405.74 139.217C405.495 139.215 405.255 139.287 405.051 139.422C404.847 139.557 404.688 139.749 404.593 139.975C404.499 140.201 404.473 140.449 404.52 140.689C404.567 140.93 404.684 141.15 404.857 141.324C405.029 141.497 405.25 141.616 405.489 141.664C405.729 141.712 405.978 141.688 406.204 141.595C406.431 141.501 406.624 141.343 406.76 141.14C406.896 140.936 406.969 140.697 406.969 140.452C406.969 140.126 406.839 139.812 406.609 139.581C406.379 139.349 406.066 139.218 405.74 139.217Z" fill="#EBEBEB"/>
<path d="M63.1693 246.637H62.5119V203.582L44.9414 179.602V154.295H45.5987V179.385L63.1693 203.371V246.637Z" fill="#EBEBEB"/>
<path d="M45.2708 154.65C44.8958 154.651 44.5289 154.541 44.2166 154.333C43.9042 154.126 43.6606 153.83 43.5165 153.484C43.3724 153.138 43.3343 152.757 43.4072 152.389C43.48 152.021 43.6604 151.683 43.9256 151.418C44.1907 151.153 44.5287 150.972 44.8965 150.899C45.2643 150.827 45.6455 150.865 45.9917 151.009C46.3379 151.153 46.6335 151.396 46.841 151.709C47.0485 152.021 47.1586 152.388 47.1573 152.763C47.1573 153.263 46.9586 153.743 46.6048 154.097C46.251 154.451 45.7711 154.65 45.2708 154.65ZM45.2708 151.527C45.0261 151.526 44.7865 151.597 44.5824 151.732C44.3783 151.867 44.2189 152.06 44.1244 152.285C44.0298 152.511 44.0044 152.76 44.0514 153C44.0983 153.24 44.2155 153.461 44.388 153.634C44.5606 153.808 44.7808 153.926 45.0207 153.975C45.2606 154.023 45.5094 153.999 45.7356 153.905C45.9618 153.812 46.1552 153.654 46.2913 153.45C46.4273 153.247 46.5 153.008 46.5 152.763C46.5 152.436 46.3707 152.123 46.1404 151.891C45.91 151.66 45.5974 151.529 45.2708 151.527Z" fill="#EBEBEB"/>
<path d="M58.638 246.637H57.9807V206.481L40.4102 182.501V170.729H41.0675V182.284L58.638 206.271V246.637Z" fill="#EBEBEB"/>
<path d="M40.7525 171.083C40.3778 171.083 40.0115 170.972 39.7 170.764C39.3886 170.555 39.1459 170.259 39.0029 169.913C38.8598 169.567 38.8227 169.186 38.8962 168.818C38.9698 168.451 39.1508 168.114 39.4162 167.849C39.6816 167.585 40.0195 167.405 40.3872 167.332C40.7549 167.26 41.1357 167.299 41.4815 167.443C41.8273 167.587 42.1225 167.831 42.3298 168.143C42.537 168.455 42.6469 168.822 42.6456 169.197C42.6439 169.698 42.4436 170.177 42.0888 170.531C41.734 170.885 41.2534 171.083 40.7525 171.083ZM40.7525 167.961C40.5081 167.961 40.2691 168.033 40.0659 168.169C39.8627 168.305 39.7043 168.498 39.6108 168.724C39.5172 168.949 39.4928 169.198 39.5404 169.438C39.5881 169.677 39.7058 169.898 39.8787 170.07C40.0515 170.243 40.2717 170.361 40.5114 170.409C40.7511 170.456 40.9996 170.432 41.2254 170.338C41.4512 170.245 41.6442 170.086 41.78 169.883C41.9158 169.68 41.9883 169.441 41.9883 169.197C41.9883 168.869 41.8581 168.555 41.6263 168.323C41.3946 168.091 41.0802 167.961 40.7525 167.961Z" fill="#EBEBEB"/>
<path d="M67.5284 176.691H66.8711V246.638H67.5284V176.691Z" fill="#EBEBEB"/>
<path d="M67.1978 177.019C66.8231 177.019 66.4568 176.907 66.1454 176.699C65.8339 176.491 65.5913 176.195 65.4482 175.848C65.3051 175.502 65.268 175.121 65.3415 174.754C65.4151 174.386 65.5961 174.049 65.8615 173.785C66.1269 173.52 66.4649 173.34 66.8325 173.268C67.2002 173.196 67.581 173.234 67.9268 173.378C68.2726 173.523 68.5678 173.766 68.7751 174.079C68.9823 174.391 69.0922 174.757 69.0909 175.132C69.0892 175.633 68.889 176.113 68.5341 176.467C68.1793 176.82 67.6988 177.019 67.1978 177.019ZM67.1978 173.896C66.9534 173.896 66.7145 173.969 66.5112 174.105C66.308 174.24 66.1496 174.433 66.0561 174.659C65.9625 174.885 65.9381 175.133 65.9858 175.373C66.0334 175.613 66.1511 175.833 66.324 176.006C66.4968 176.179 66.717 176.296 66.9567 176.344C67.1964 176.392 67.4449 176.367 67.6707 176.274C67.8965 176.18 68.0895 176.022 68.2253 175.819C68.3611 175.615 68.4336 175.377 68.4336 175.132C68.4336 174.804 68.3034 174.49 68.0716 174.258C67.8399 174.027 67.5256 173.896 67.1978 173.896Z" fill="#EBEBEB"/>
<path d="M71.7276 246.637H71.0703V210.687L71.1032 210.608L82.9943 188.187V147.932H83.6517V188.344L83.6188 188.417L71.7276 210.845V246.637Z" fill="#EBEBEB"/>
<path d="M83.3228 148.261C82.9484 148.261 82.5824 148.15 82.271 147.942C81.9597 147.734 81.7171 147.438 81.5738 147.092C81.4305 146.746 81.393 146.366 81.4661 145.998C81.5391 145.631 81.7194 145.294 81.9842 145.029C82.2489 144.764 82.5863 144.584 82.9535 144.511C83.3207 144.438 83.7014 144.475 84.0473 144.619C84.3932 144.762 84.6889 145.005 84.8969 145.316C85.1049 145.627 85.2159 145.993 85.2159 146.368C85.2159 146.87 85.0165 147.351 84.6614 147.706C84.3064 148.061 83.8249 148.261 83.3228 148.261ZM83.3228 145.139C83.0781 145.139 82.8389 145.211 82.6356 145.347C82.4322 145.483 82.2738 145.677 82.1805 145.903C82.0871 146.129 82.063 146.378 82.1113 146.618C82.1595 146.858 82.2778 147.078 82.4513 147.25C82.6248 147.423 82.8456 147.54 83.0858 147.587C83.3259 147.634 83.5746 147.609 83.8003 147.514C84.026 147.42 84.2185 147.26 84.3535 147.056C84.4885 146.852 84.5599 146.612 84.5586 146.368C84.5586 146.206 84.5266 146.045 84.4644 145.896C84.4022 145.746 84.3111 145.61 84.1962 145.496C84.0814 145.382 83.9451 145.292 83.7952 145.23C83.6453 145.169 83.4848 145.138 83.3228 145.139Z" fill="#EBEBEB"/>
<path d="M75.8995 246.638H75.2422V213.088L75.2816 213.009L89.3025 188.208V161.73H89.9599V188.385L89.9139 188.458L75.8995 213.259V246.638Z" fill="#EBEBEB"/>
<path d="M89.6341 162.058C89.2591 162.059 88.8922 161.949 88.5798 161.741C88.2675 161.534 88.0238 161.238 87.8797 160.892C87.7356 160.546 87.6976 160.165 87.7704 159.797C87.8433 159.429 88.0237 159.091 88.2889 158.826C88.554 158.561 88.8919 158.38 89.2598 158.308C89.6276 158.235 90.0088 158.273 90.355 158.417C90.7012 158.561 90.9968 158.805 91.2043 159.117C91.4118 159.429 91.5219 159.796 91.5206 160.171C91.5189 160.671 91.3196 161.15 90.9661 161.503C90.6127 161.857 90.1339 162.056 89.6341 162.058ZM89.6341 158.935C89.3894 158.934 89.1498 159.005 88.9457 159.14C88.7416 159.275 88.5822 159.468 88.4877 159.694C88.3931 159.919 88.3677 160.168 88.4146 160.408C88.4616 160.648 88.5788 160.869 88.7513 161.043C88.9239 161.216 89.1441 161.334 89.384 161.383C89.6239 161.431 89.8727 161.407 90.0989 161.314C90.3251 161.22 90.5185 161.062 90.6545 160.858C90.7906 160.655 90.8633 160.416 90.8633 160.171C90.8633 159.845 90.734 159.531 90.5036 159.3C90.2733 159.068 89.9607 158.937 89.6341 158.935Z" fill="#EBEBEB"/>
<path d="M450.93 83.9732L455.532 76.5782L453.271 75.1781C452.941 74.9733 452.676 74.6795 452.506 74.3306C452.336 73.9817 452.269 73.5918 452.311 73.2061C452.346 72.7678 452.359 72.3296 452.35 71.8914C452.338 71.5099 452.433 71.1326 452.623 70.8017C452.814 70.4709 453.093 70.1995 453.428 70.018L455.775 68.7559L451.588 61.1308L449.241 62.3929C448.902 62.571 448.521 62.6517 448.139 62.6262C447.758 62.6007 447.39 62.4699 447.078 62.2483C446.724 62.0051 446.355 61.775 445.974 61.591C445.636 61.4112 445.355 61.1406 445.162 60.8097C444.969 60.4787 444.872 60.1005 444.883 59.7176L444.968 57.0488L436.272 56.7793L436.186 59.4546C436.172 59.8375 436.051 60.2088 435.837 60.5269C435.624 60.845 435.326 61.0974 434.977 61.2557C434.78 61.3478 434.589 61.4398 434.405 61.545C434.221 61.6501 434.03 61.7487 433.846 61.8605C433.521 62.0605 433.147 62.1664 432.765 62.1664C432.383 62.1664 432.009 62.0605 431.684 61.8605L429.403 60.4472L424.801 67.8422L427.069 69.2555C427.399 69.4596 427.665 69.7533 427.835 70.1024C428.005 70.4515 428.072 70.8417 428.029 71.2275C427.992 71.6647 427.979 72.1035 427.989 72.5422C428 72.925 427.904 73.3033 427.712 73.6351C427.521 73.9668 427.241 74.2392 426.905 74.4221L424.598 75.5922L428.713 83.2633L431.059 82.0078C431.397 81.8288 431.778 81.7469 432.16 81.7713C432.542 81.7956 432.909 81.9253 433.222 82.1458C433.578 82.3847 433.946 82.6041 434.326 82.8031C434.664 82.9829 434.946 83.2535 435.139 83.5844C435.331 83.9154 435.428 84.2936 435.417 84.6765L435.339 87.3453L444.035 87.6148L444.12 84.946C444.135 84.5639 444.256 84.1934 444.469 83.8763C444.683 83.5592 444.981 83.3081 445.33 83.1515L445.902 82.8623L446.461 82.5402C446.787 82.3403 447.162 82.2345 447.545 82.2345C447.928 82.2345 448.303 82.3403 448.63 82.5402L450.93 83.9732ZM443.568 78.4844C442.325 79.1504 440.912 79.4328 439.508 79.2958C438.104 79.1588 436.773 78.6087 435.681 77.7149C434.59 76.8211 433.789 75.6238 433.378 74.2744C432.967 72.9251 432.966 71.4842 433.374 70.134C433.782 68.7838 434.581 67.585 435.67 66.689C436.76 65.7931 438.091 65.2403 439.494 65.1005C440.898 64.9607 442.311 65.2403 443.556 65.9038C444.801 66.5673 445.821 67.585 446.487 68.8282C446.928 69.6558 447.202 70.5623 447.292 71.4959C447.383 72.4294 447.288 73.3716 447.014 74.2685C446.74 75.1655 446.292 75.9995 445.695 76.723C445.098 77.4464 444.364 78.045 443.535 78.4844H443.568Z" fill="#EBEBEB"/>
<path d="M50.7317 149.713L55.9904 146.663L55.057 145.046C54.9233 144.813 54.8573 144.548 54.8666 144.279C54.8759 144.011 54.9601 143.751 55.1096 143.528C55.2761 143.273 55.4273 143.01 55.5631 142.739C55.6851 142.495 55.873 142.291 56.1054 142.149C56.3379 142.007 56.6055 141.934 56.8778 141.937H58.7446V135.837H56.8778C56.6055 135.84 56.3379 135.766 56.1054 135.624C55.873 135.483 55.6851 135.278 55.5631 135.035C55.4273 134.763 55.2761 134.5 55.1096 134.246C54.9601 134.023 54.8759 133.763 54.8666 133.494C54.8573 133.226 54.9233 132.96 55.057 132.728L55.9904 131.111L50.7317 128.061L49.7983 129.684C49.6662 129.912 49.4734 130.1 49.2414 130.225C49.0093 130.35 48.747 130.409 48.4836 130.394H47.5568C47.2943 130.408 47.0331 130.35 46.8013 130.226C46.5696 130.102 46.3762 129.917 46.2421 129.691L45.3021 128.061L40.0435 131.111L40.9769 132.734C41.1106 132.967 41.1765 133.233 41.1672 133.501C41.1579 133.769 41.0738 134.03 40.9243 134.253C40.7591 134.505 40.6077 134.766 40.4707 135.035C40.3488 135.278 40.1609 135.483 39.9284 135.624C39.696 135.766 39.4283 135.84 39.1561 135.837H37.2695V141.937H39.1364C39.4086 141.934 39.6762 142.007 39.9087 142.149C40.1411 142.291 40.3291 142.495 40.451 142.739C40.588 143.008 40.7394 143.269 40.9046 143.521C41.0539 143.745 41.1379 144.007 41.1472 144.276C41.1565 144.545 41.0907 144.812 40.9572 145.046L40.0238 146.663L45.2824 149.713L46.2224 148.089C46.3562 147.863 46.5493 147.677 46.781 147.552C47.0126 147.426 47.2741 147.367 47.5371 147.38C47.6817 147.38 47.8329 147.38 47.9841 147.38C48.1353 147.38 48.2864 147.38 48.4376 147.38C48.7005 147.368 48.9617 147.428 49.1932 147.553C49.4248 147.678 49.618 147.863 49.7523 148.089L50.7317 149.713ZM47.9841 143.883C46.9963 143.881 46.0311 143.587 45.2104 143.037C44.3897 142.488 43.7504 141.707 43.3733 140.794C42.9962 139.881 42.8982 138.877 43.0917 137.908C43.2852 136.94 43.7615 136.05 44.4604 135.352C45.1594 134.654 46.0495 134.179 47.0184 133.987C47.9873 133.794 48.9915 133.894 49.9039 134.272C50.8164 134.65 51.5962 135.291 52.1449 136.112C52.6935 136.933 52.9864 137.899 52.9864 138.887C52.9872 139.544 52.8584 140.194 52.6072 140.801C52.3561 141.408 51.9875 141.959 51.5228 142.424C51.058 142.888 50.5062 143.256 49.8989 143.506C49.2916 143.756 48.6409 143.884 47.9841 143.883Z" fill="#EBEBEB"/>
<path d="M424.031 89.3236L420.988 84.065L419.377 84.9787C419.143 85.1122 418.877 85.178 418.607 85.1687C418.338 85.1594 418.077 85.0754 417.852 84.9261C417.599 84.7594 417.335 84.608 417.064 84.4725C416.82 84.3505 416.616 84.1626 416.474 83.9302C416.332 83.6977 416.259 83.4301 416.262 83.1578V81.291H410.175V83.1578C410.178 83.4301 410.104 83.6977 409.962 83.9302C409.82 84.1626 409.616 84.3505 409.373 84.4725C409.1 84.6094 408.834 84.7608 408.577 84.9261C408.354 85.0756 408.094 85.1597 407.826 85.169C407.557 85.1783 407.292 85.1124 407.059 84.9787L405.442 84.0452L402.398 89.3039L404.022 90.2373C404.253 90.3753 404.441 90.574 404.566 90.8116C404.691 91.0493 404.748 91.3168 404.732 91.5849C404.732 91.736 404.732 91.8872 404.732 92.0318C404.732 92.1765 404.732 92.3342 404.732 92.4854C404.745 92.7485 404.686 93.0102 404.561 93.2421C404.436 93.4739 404.249 93.6669 404.022 93.8001L402.398 94.7401L405.442 99.9987L407.066 99.0653C407.298 98.9316 407.564 98.8657 407.832 98.875C408.101 98.8843 408.361 98.9684 408.584 99.1179C408.843 99.2844 409.105 99.4356 409.373 99.5715C409.616 99.6934 409.82 99.8813 409.962 100.114C410.104 100.346 410.178 100.614 410.175 100.886V102.753H416.268V100.886C416.265 100.614 416.339 100.346 416.481 100.114C416.622 99.8813 416.827 99.6934 417.07 99.5715C417.342 99.4312 417.605 99.28 417.859 99.1179C418.082 98.9684 418.342 98.8843 418.611 98.875C418.879 98.8657 419.145 98.9316 419.377 99.0653L421.001 99.9987L424.044 94.7401L422.421 93.8066C422.195 93.6721 422.011 93.4786 421.887 93.2469C421.763 93.0153 421.704 92.7543 421.717 92.492C421.717 92.3408 421.717 92.1896 421.717 92.0384C421.717 91.8872 421.717 91.7426 421.717 91.5914C421.7 91.3232 421.757 91.0555 421.883 90.8177C422.008 90.5799 422.196 90.3813 422.427 90.2439L424.031 89.3236ZM418.201 92.0253C418.201 93.0136 417.908 93.9797 417.358 94.8014C416.809 95.6231 416.028 96.2634 415.115 96.6413C414.202 97.0193 413.197 97.1178 412.228 96.9245C411.259 96.7312 410.369 96.2548 409.67 95.5555C408.972 94.8561 408.496 93.9654 408.304 92.9959C408.112 92.0263 408.212 91.0217 408.591 90.1089C408.971 89.1962 409.612 88.4164 410.434 87.8683C411.257 87.3201 412.223 87.0282 413.212 87.0295C413.867 87.0295 414.517 87.1588 415.122 87.4099C415.728 87.6611 416.278 88.0292 416.742 88.4931C417.205 88.9571 417.573 89.5079 417.823 90.114C418.073 90.7201 418.202 91.3695 418.201 92.0253Z" fill="#EBEBEB"/>
<path d="M64.7485 196.589C60.5481 187.958 53.1992 183.528 44.9168 185.98C36.6344 188.432 35.3526 199.974 41.5315 202.893C47.7104 205.811 53.9025 197.292 57.1892 195.544C60.4758 193.795 64.7485 196.589 64.7485 196.589Z" fill="#407BFF"/>
<path d="M68.8104 219.549C68.8104 218.51 68.7512 217.465 68.7118 216.426C68.6416 214.349 68.5671 212.272 68.4883 210.195C68.3634 206.402 67.9427 202.682 66.3914 199.171C65.0016 195.996 62.6793 193.319 59.7326 191.494C58.6332 190.823 57.4449 190.309 56.2027 189.969C55.088 188.837 53.6669 188.056 52.1141 187.721C50.1963 187.331 48.2249 187.282 46.2901 187.576C46.2785 187.58 46.2685 187.588 46.2613 187.598C46.2542 187.608 46.2504 187.62 46.2504 187.632C46.2504 187.644 46.2542 187.656 46.2613 187.666C46.2685 187.676 46.2785 187.684 46.2901 187.688C48.1337 187.448 50.0068 187.58 51.7986 188.076C52.5668 188.288 53.3112 188.579 54.0204 188.943C54.4783 189.182 54.9178 189.454 55.335 189.758C53.0531 189.253 50.6706 189.472 48.5185 190.383C48.0652 190.285 47.6014 190.245 47.1381 190.265C46.5323 190.284 45.9305 190.37 45.3436 190.521C44.1454 190.859 42.9996 191.361 41.9386 192.013C41.8794 192.046 41.9386 192.138 41.9977 192.105C43.0408 191.535 44.158 191.112 45.3173 190.85C45.88 190.724 46.4512 190.641 47.0263 190.6C47.3465 190.592 47.6668 190.601 47.986 190.626C45.6282 191.718 43.7328 193.609 42.6353 195.964C42.6353 196.029 42.7011 196.082 42.7274 196.016C43.3808 194.651 44.3336 193.45 45.5148 192.503C46.696 191.556 48.0754 190.888 49.5505 190.547C49.7345 190.501 49.9186 190.475 50.1092 190.442C50.0423 190.719 49.9918 191 49.958 191.283C49.9054 191.704 49.8331 192.118 49.7477 192.532C49.5811 193.389 49.3616 194.234 49.0904 195.063C48.8085 195.899 48.4726 196.716 48.0846 197.508C47.7137 198.35 47.2436 199.144 46.6845 199.875C46.6319 199.934 46.7305 200.006 46.77 199.94C47.2695 199.158 47.848 198.442 48.3016 197.633C48.7426 196.862 49.1228 196.058 49.4387 195.227C49.7558 194.388 50.0021 193.524 50.175 192.644C50.267 192.177 50.3393 191.711 50.3919 191.237C50.4486 190.956 50.4663 190.669 50.4445 190.383C51.419 190.233 52.409 190.211 53.3893 190.317C53.0212 192.381 52.6268 194.524 51.4699 196.312C51.4305 196.371 51.5356 196.43 51.5685 196.365C52.1074 195.416 52.5818 194.432 52.9883 193.42C53.3714 192.438 53.6105 191.407 53.6983 190.357C55.4091 190.583 57.0605 191.137 58.5625 191.987C61.3912 193.632 63.6501 196.102 65.0373 199.066C66.4941 202.26 67.3093 205.708 67.4365 209.215C67.7126 213.633 67.7718 218.07 68.2122 222.467C68.2122 222.757 68.692 222.855 68.7512 222.526C68.8648 221.538 68.8846 220.541 68.8104 219.549Z" fill="#263238"/>
<path d="M59.107 190.811C58.8277 190.476 58.5049 190.18 58.1473 189.931C57.8055 189.648 57.4505 189.372 57.0824 189.122C56.3565 188.615 55.5496 188.235 54.6963 187.998C54.6306 187.998 54.6043 188.09 54.6963 188.103C55.5492 188.336 56.3425 188.749 57.0232 189.313C57.3782 189.569 57.6806 189.845 58.0421 190.134C58.3331 190.441 58.6572 190.714 59.0084 190.949C59.0267 190.963 59.0494 190.968 59.0716 190.964C59.0938 190.96 59.1136 190.948 59.1267 190.93C59.1398 190.911 59.1451 190.889 59.1414 190.867C59.1377 190.844 59.1253 190.825 59.107 190.811Z" fill="#263238"/>
<path d="M45.7066 193.914C45.0108 194.722 44.3674 195.574 43.7806 196.465C43.2033 197.357 42.7229 198.309 42.3477 199.304C42.3477 199.337 42.3477 199.35 42.3937 199.304C43.3542 197.425 44.4898 195.64 45.7855 193.973C45.8315 193.967 45.7461 193.914 45.7066 193.914Z" fill="#263238"/>
<path d="M54.7362 193.085C54.6478 193.625 54.4886 194.151 54.2629 194.649C54.0316 195.13 53.7635 195.591 53.4609 196.03C53.4609 196.03 53.4609 196.089 53.5135 196.069C54.234 195.235 54.6914 194.205 54.8282 193.111C54.8545 193.046 54.7493 193.019 54.7362 193.085Z" fill="#263238"/>
<path d="M68.2266 196.805C68.2266 196.805 74.1426 189.331 85.6525 191.98C96.5576 194.498 101.593 214.501 90.5693 216.893C79.5458 219.286 81.4915 200.775 77.4752 197.633C74.5238 195.333 70.284 195.826 68.2266 196.805Z" fill="#407BFF"/>
<path d="M94.5129 202.906C93.7667 202.248 92.976 201.642 92.1465 201.092C91.3705 200.557 90.523 200.135 89.629 199.836C89.1821 199.155 88.6809 198.511 88.1302 197.91C87.1206 196.822 85.9528 195.891 84.6661 195.15H85.0079C85.6144 195.117 86.2222 195.117 86.8287 195.15C88.0533 195.227 89.2537 195.525 90.3717 196.031C90.4375 196.031 90.4835 195.958 90.4178 195.932C89.2833 195.444 88.0968 195.086 86.8813 194.867C86.2889 194.762 85.6884 194.709 85.0868 194.709C84.7647 194.709 84.4295 194.709 84.1271 194.768H83.943C82.8969 194.24 81.7943 193.832 80.6564 193.552L80.9784 193.467C81.5406 193.343 82.1089 193.249 82.6809 193.184C83.8232 193.064 84.9761 193.088 86.1122 193.257C86.1845 193.257 86.2042 193.158 86.1122 193.151C84.9608 193.013 83.8002 192.967 82.6415 193.013C81.6692 193.037 80.702 193.163 79.7558 193.388C79.0652 193.261 78.3669 193.18 77.6655 193.145C73.6623 192.98 69.2976 194.459 66.8326 197.746C64.3676 201.033 63.8878 205.43 63.4539 209.407C62.7817 214.94 62.6342 220.524 63.0135 226.084C63.0135 226.412 63.5 226.353 63.5131 226.044C63.6643 221.325 63.8286 216.612 64.2822 211.912C64.486 209.729 64.7226 207.547 65.0841 205.391C65.3468 203.536 65.8783 201.729 66.6617 200.027C67.512 198.284 68.8621 196.833 70.54 195.86C72.2207 194.9 74.0927 194.323 76.0222 194.17C77.7552 194.028 79.4998 194.193 81.1756 194.657C81.1234 194.992 81.1234 195.334 81.1756 195.669C81.2157 196.095 81.2994 196.516 81.4254 196.924C81.5526 197.308 81.7132 197.68 81.9053 198.035C82.1222 198.43 82.3851 198.785 82.6284 199.159C82.6284 199.219 82.7598 199.159 82.7138 199.094C82.2427 198.421 81.9385 197.646 81.8264 196.832C81.7538 196.446 81.7076 196.055 81.6884 195.662C81.6884 195.367 81.6884 195.071 81.6884 194.775C83.51 195.33 85.2113 196.222 86.7038 197.404C86.9799 197.628 87.2494 197.864 87.5123 198.108C87.1326 198.456 86.805 198.856 86.5395 199.297C86.1213 199.878 85.7582 200.496 85.4549 201.145C84.9235 202.421 84.5654 203.763 84.39 205.135C84.394 205.146 84.4016 205.156 84.4116 205.163C84.4216 205.17 84.4336 205.174 84.4459 205.174C84.4582 205.174 84.4701 205.17 84.4802 205.163C84.4902 205.156 84.4977 205.146 84.5018 205.135C84.7174 203.808 85.1622 202.529 85.8164 201.355C86.1215 200.774 86.4617 200.212 86.8353 199.672C87.0325 199.396 87.2297 199.12 87.44 198.857C87.5518 198.719 87.6767 198.574 87.7818 198.417C89.1315 199.745 90.2334 201.303 91.0357 203.018C90.491 203.59 90.0366 204.242 89.6881 204.951C89.2755 205.69 88.9174 206.459 88.6167 207.251C88.0596 208.778 87.6007 210.339 87.2428 211.925C87.2469 211.936 87.2544 211.947 87.2644 211.954C87.2744 211.961 87.2864 211.965 87.2987 211.965C87.311 211.965 87.323 211.961 87.333 211.954C87.343 211.947 87.3505 211.936 87.3546 211.925C87.7051 210.33 88.2504 208.785 88.9782 207.324C89.32 206.607 89.6881 205.897 90.0694 205.2C90.4647 204.552 90.8246 203.883 91.1474 203.195C91.9132 204.868 92.3591 206.67 92.4621 208.507C92.4621 208.579 92.5738 208.572 92.5738 208.507C92.362 205.624 91.4796 202.831 89.9971 200.349C90.6938 200.645 91.3972 200.934 92.0742 201.296C92.9353 201.755 93.7367 202.318 94.4604 202.972C94.4932 203.038 94.5655 202.952 94.5129 202.906Z" fill="#263238"/>
<path d="M93.3436 200.52C92.8915 200.083 92.3777 199.715 91.8186 199.428C91.2518 199.174 90.6647 198.967 90.0635 198.811C89.9977 198.811 89.9714 198.903 90.0635 198.916C90.655 199.072 91.2231 199.306 91.7528 199.612C92.2974 199.893 92.8204 200.214 93.3173 200.572C93.3436 200.598 93.4027 200.546 93.3436 200.52Z" fill="#263238"/>
<path d="M73.8789 186.821C73.8789 186.821 74.9767 173.398 84.955 169.073C93.29 165.438 98.0622 174.805 92.1856 180.537C87.4265 185.151 79.762 183.054 73.8789 186.821Z" fill="#407BFF"/>
<path d="M90.3239 171.642C88.8053 172.256 87.3238 172.959 85.8869 173.746C84.6894 174.434 83.5368 175.198 82.4359 176.033C82.6003 175.698 82.7449 175.336 82.9158 175.008C83.1726 174.488 83.4556 173.981 83.7637 173.489C84.3754 172.474 85.1131 171.539 85.9592 170.709C86.0118 170.656 85.9592 170.584 85.8803 170.63C85.0394 171.466 84.2658 172.367 83.5665 173.325C83.2211 173.812 82.9051 174.319 82.62 174.843C82.3278 175.324 82.1064 175.844 81.9626 176.388C81.9232 176.421 81.8838 176.441 81.8509 176.474C80.1088 177.862 78.5121 179.423 77.0852 181.134C77.0852 181.003 77.1378 180.871 77.1707 180.753C77.3613 180.096 77.5651 179.438 77.7754 178.781C78.2023 177.393 78.8101 176.067 79.5831 174.837C79.6225 174.778 79.5239 174.725 79.4845 174.784C78.6995 176.007 78.001 177.283 77.3942 178.603C77.1301 179.245 76.9105 179.904 76.7368 180.575C76.595 181.016 76.4873 181.466 76.4148 181.923C75.9809 182.475 75.5536 183.034 75.1461 183.606C70.8669 189.706 68.7108 197.081 68.1981 204.463C68.0458 206.666 68.0085 208.875 68.0863 211.082C68.1001 213.305 68.2958 215.524 68.6714 217.715C68.6714 217.853 68.9146 217.813 68.9146 217.675C68.862 215.736 68.6648 213.804 68.6254 211.864C68.5859 209.925 68.6254 207.973 68.8094 206.034C69.1244 202.158 69.8561 198.328 70.9918 194.609C72.1518 190.803 73.8614 187.187 76.0664 183.875C76.4871 183.79 76.9012 183.678 77.3153 183.566C77.7294 183.454 78.3144 183.31 78.8074 183.172C79.7669 182.929 80.6987 182.587 81.588 182.153C81.594 182.149 81.5993 182.145 81.6036 182.139C81.6078 182.134 81.611 182.128 81.6128 182.121C81.6146 182.114 81.6151 182.107 81.6142 182.1C81.6134 182.093 81.6111 182.087 81.6077 182.081C81.6042 182.075 81.5996 182.069 81.5941 182.065C81.5886 182.061 81.5823 182.058 81.5756 182.056C81.5689 182.054 81.5619 182.053 81.555 182.054C81.5481 182.055 81.5414 182.057 81.5354 182.061C80.653 182.538 79.6981 182.867 78.7088 183.034C77.9332 183.192 77.1181 183.29 76.3359 183.468C77.0589 182.416 77.828 181.397 78.6563 180.418C80.5596 180.591 82.4785 180.449 84.3356 179.997C85.3226 179.757 86.2931 179.454 87.241 179.09C88.2402 178.709 89.213 178.209 90.1727 177.775C90.2516 177.742 90.1727 177.631 90.1333 177.67C88.3456 178.646 86.3938 179.286 84.3751 179.556C82.5942 179.84 80.7947 179.989 78.9915 180.003C79.7014 179.188 80.4311 178.393 81.2133 177.65C83.8426 175.152 86.9452 172.858 90.416 171.662C90.4225 171.728 90.3897 171.616 90.3239 171.642Z" fill="#263238"/>
<path d="M82.2011 171.689C81.7512 172.255 81.3426 172.852 80.9785 173.477C80.6071 174.136 80.3116 174.835 80.0977 175.561H80.1371C80.4723 174.903 80.755 174.246 81.0902 173.589C81.4216 172.943 81.8205 172.335 82.28 171.774C82.326 171.709 82.2471 171.63 82.2011 171.689Z" fill="#263238"/>
<path d="M66.1174 184.408C66.0583 184.987 64.6121 179.531 56.172 174.693C48.5075 170.295 39.3574 158.851 46.8707 151.627C52.9379 145.796 68.9177 158.509 66.1174 184.408Z" fill="#407BFF"/>
<path d="M71.9281 215.678C71.8121 210.001 71.3731 204.334 70.6134 198.706C69.948 193.536 68.7541 188.448 67.0507 183.522C66.3933 181.747 65.736 179.998 64.9275 178.263C64.9803 177.594 64.9803 176.921 64.9275 176.252C64.8815 175.39 64.8026 174.536 64.7237 173.681C64.6448 172.827 64.5594 171.966 64.4608 171.111C64.3622 170.257 64.1716 169.402 64.1387 168.548C64.1387 168.475 64.0138 168.488 64.0335 168.548C64.2002 169.444 64.3012 170.351 64.3359 171.262C64.4016 172.091 64.4476 172.919 64.4739 173.754C64.5002 174.588 64.4739 175.41 64.4739 176.245C64.4739 176.541 64.4739 176.863 64.4739 177.178C63.6786 175.502 62.8306 173.852 61.9103 172.242C62.4822 168.745 61.7394 165.09 61.0229 161.665C61.0229 161.6 60.9046 161.632 60.9178 161.698C61.2682 163.485 61.4552 165.3 61.4765 167.121C61.4765 168.561 61.437 169.994 61.437 171.433C61.2333 171.085 61.0295 170.743 60.8191 170.401C59.728 168.613 58.5601 166.86 57.3156 165.143C57.4176 164.313 57.391 163.473 57.2367 162.651C57.0961 161.731 56.8919 160.822 56.6254 159.93C56.3584 159.038 56.0469 158.161 55.692 157.301C55.3238 156.413 54.8374 155.572 54.4825 154.671C54.4825 154.599 54.3444 154.671 54.3839 154.717C54.8339 155.551 55.1889 156.433 55.4422 157.347C55.7208 158.21 55.9512 159.087 56.1324 159.976C56.3098 160.87 56.4545 161.757 56.5794 162.658C56.6648 163.249 56.7174 163.867 56.816 164.466C55.0088 162.037 53.0318 159.739 50.9 157.59C50.854 157.537 50.7817 157.59 50.8277 157.669C54.0312 161.285 56.892 165.191 59.373 169.336C59.465 169.494 59.5571 169.652 59.6425 169.81C59.1824 169.52 58.65 169.284 58.2095 169.041C57.3944 168.587 56.5728 168.14 55.7511 167.726L53.3584 166.411C52.9509 166.181 52.5433 165.945 52.1292 165.754C51.6224 165.541 51.1342 165.286 50.6699 164.991C50.6108 164.945 50.5385 165.044 50.6042 165.083C51.4193 165.53 52.1358 166.194 52.9246 166.694C53.7134 167.193 54.5153 167.68 55.3304 168.133C56.8291 168.975 58.4593 169.573 59.9318 170.441C60.9572 172.235 61.9038 174.076 62.7714 175.949C61.8775 175.371 60.9572 174.832 60.0304 174.306C59.4322 173.971 58.834 173.648 58.2293 173.326C57.6264 173.046 57.0574 172.697 56.5333 172.288C56.4808 172.242 56.4084 172.288 56.4545 172.367C57.4383 173.253 58.5292 174.013 59.7017 174.628C60.7863 175.285 61.8775 175.87 62.9884 176.422C63.8911 178.399 64.704 180.412 65.4271 182.463C68.9832 192.521 70.2848 203.196 70.9092 213.805C71.0998 216.967 71.1919 220.122 71.2313 223.29C71.2708 226.459 71.1064 229.614 71.113 232.769C71.113 232.868 71.2642 232.887 71.2773 232.769C71.6586 229.969 71.7243 227.116 71.8492 224.289C71.9741 221.463 71.9938 218.551 71.9281 215.678Z" fill="#263238"/>
<path d="M56.5911 170.145C55.0515 169.462 53.5545 168.687 52.1081 167.825C50.6419 166.999 49.2201 166.098 47.8486 165.123C47.8486 165.123 47.8026 165.123 47.8486 165.162C49.1429 166.207 50.5068 167.162 51.9306 168.022C53.4158 168.861 54.9526 169.605 56.5319 170.25C56.6043 170.25 56.6568 170.171 56.5911 170.145Z" fill="#263238"/>
<path d="M59.0349 158.773C58.91 158.28 58.7588 157.8 58.5945 157.321C58.5991 157.313 58.6015 157.303 58.6015 157.294C58.6015 157.285 58.5991 157.276 58.5945 157.268C58.4893 156.992 58.3776 156.722 58.2658 156.453L58.2264 156.354C58.2264 156.302 58.1804 156.256 58.1606 156.203C58.1278 156.203 58.1409 156.15 58.1606 156.203C58.1935 156.203 58.2132 156.387 58.2461 156.486C58.2562 156.537 58.2694 156.587 58.2855 156.637C58.8427 158.512 59.2601 160.426 59.5345 162.362C59.5345 162.421 59.6331 162.421 59.6331 162.362C59.5486 161.15 59.3483 159.948 59.0349 158.773Z" fill="#263238"/>
<path d="M80.8466 217.715L80.2418 224.853L78.4013 246.624H58.6484L56.8079 224.853L56.2031 217.715H80.8466Z" fill="#37474F"/>
<path d="M80.8466 217.715L80.2418 224.853H56.8079L56.2031 217.715H80.8466Z" fill="#263238"/>
<path d="M82.7847 214.855H54.2695V221.705H82.7847V214.855Z" fill="#37474F"/>
<path d="M33.3398 246.626L86.6299 246.468L139.92 246.409L246.5 246.297L353.08 246.409L406.37 246.468L459.66 246.626L406.37 246.79L353.08 246.842L246.5 246.954L139.92 246.842L86.6299 246.783L33.3398 246.626Z" fill="#263238"/>
<path d="M400.941 55.2676H90.9492V262.63H400.941V55.2676Z" fill="#EBEBEB"/>
<path d="M398.686 57.7988H93.2031V260.1H398.686V57.7988Z" fill="#263238"/>
<path d="M441.313 278.176H50.5742V292.407H441.313V278.176Z" fill="#DBDBDB"/>
<path d="M50.5742 278.177L90.9542 262.631H400.939L441.319 278.177H50.5742Z" fill="#EBEBEB"/>
<path d="M94.5547 272.662L120.611 262.631H371.279L397.336 272.662H94.5547Z" fill="#263238"/>
<path d="M381.428 73.166H110.469V244.73H381.428V73.166Z" fill="white"/>
<path d="M381.432 73.166H110.242V79.7656H381.432V73.166Z" fill="#455A64"/>
<path d="M115.484 76.4668C115.484 76.7906 115.388 77.107 115.209 77.3762C115.029 77.6453 114.773 77.8551 114.474 77.979C114.175 78.1029 113.846 78.1353 113.528 78.0722C113.211 78.009 112.919 77.8531 112.69 77.6242C112.461 77.3953 112.306 77.1037 112.242 76.7862C112.179 76.4687 112.212 76.1396 112.336 75.8405C112.459 75.5414 112.669 75.2858 112.938 75.1059C113.208 74.9261 113.524 74.8301 113.848 74.8301C114.282 74.8301 114.698 75.0025 115.005 75.3095C115.312 75.6164 115.484 76.0327 115.484 76.4668Z" fill="#C7C7C7"/>
<path d="M122.172 76.4669C122.172 76.7906 122.076 77.107 121.896 77.3762C121.716 77.6454 121.461 77.8551 121.162 77.979C120.862 78.1029 120.533 78.1353 120.216 78.0722C119.898 78.009 119.607 77.8531 119.378 77.6242C119.149 77.3953 118.993 77.1037 118.93 76.7862C118.867 76.4687 118.899 76.1396 119.023 75.8405C119.147 75.5414 119.357 75.2858 119.626 75.1059C119.895 74.9261 120.211 74.8301 120.535 74.8301C120.75 74.8292 120.964 74.871 121.163 74.9529C121.362 75.0349 121.542 75.1554 121.695 75.3075C121.847 75.4597 121.967 75.6405 122.049 75.8395C122.131 76.0384 122.173 76.2517 122.172 76.4669Z" fill="white"/>
<path d="M128.836 76.4669C128.836 76.7906 128.74 77.107 128.56 77.3762C128.38 77.6454 128.125 77.8551 127.826 77.979C127.527 78.1029 127.197 78.1353 126.88 78.0722C126.562 78.009 126.271 77.8531 126.042 77.6242C125.813 77.3953 125.657 77.1037 125.594 76.7862C125.531 76.4687 125.563 76.1396 125.687 75.8405C125.811 75.5414 126.021 75.2858 126.29 75.1059C126.559 74.9261 126.876 74.8301 127.199 74.8301C127.414 74.8292 127.628 74.871 127.827 74.9529C128.026 75.0349 128.206 75.1554 128.359 75.3075C128.511 75.4597 128.631 75.6405 128.713 75.8395C128.795 76.0384 128.837 76.2517 128.836 76.4669Z" fill="#407BFF"/>
<path d="M381.429 79.7656H376.617V244.723H381.429V79.7656Z" fill="#DBDBDB"/>
<path d="M379.016 136.954C378.686 136.954 378.37 136.823 378.137 136.59C377.904 136.357 377.773 136.041 377.773 135.712V81.9748C377.773 81.6453 377.904 81.3293 378.137 81.0963C378.37 80.8633 378.686 80.7324 379.016 80.7324C379.345 80.7324 379.661 80.8633 379.894 81.0963C380.127 81.3293 380.258 81.6453 380.258 81.9748V135.712C380.258 136.041 380.127 136.357 379.894 136.59C379.661 136.823 379.345 136.954 379.016 136.954Z" fill="#A6A6A6"/>
<path d="M343.507 122.553H149.488V151.962H343.507V122.553Z" fill="white"/>
<path d="M343.836 152.284H149.16V122.225H343.836V152.284ZM149.817 151.627H343.179V122.882H149.817V151.627Z" fill="#DBDBDB"/>
<path d="M166.618 130.52C166.995 131.61 167.253 132.739 167.387 133.885C167.672 136.122 167.672 138.386 167.387 140.623C167.25 141.769 166.99 142.898 166.611 143.988C166.229 142.898 165.969 141.77 165.835 140.623C165.555 138.386 165.555 136.122 165.835 133.885C165.977 132.739 166.239 131.611 166.618 130.52Z" fill="#37474F"/>
<path d="M173.352 137.252C172.263 137.64 171.134 137.905 169.986 138.041C168.87 138.183 167.746 138.253 166.62 138.251C165.495 138.257 164.371 138.187 163.255 138.041C162.106 137.908 160.975 137.648 159.883 137.265C160.976 136.889 162.107 136.629 163.255 136.49C164.371 136.347 165.495 136.277 166.62 136.279C167.746 136.283 168.87 136.355 169.986 136.496C171.132 136.625 172.261 136.879 173.352 137.252Z" fill="#37474F"/>
<path d="M171.376 132.492C170.872 133.53 170.257 134.511 169.542 135.417C168.856 136.309 168.112 137.154 167.314 137.948C166.519 138.746 165.674 139.493 164.783 140.183C163.875 140.898 162.892 141.513 161.852 142.017C162.356 140.977 162.971 139.994 163.686 139.085C164.376 138.195 165.122 137.35 165.92 136.555C166.717 135.76 167.562 135.016 168.451 134.326C169.358 133.613 170.339 132.998 171.376 132.492Z" fill="#37474F"/>
<path d="M171.378 142.016C170.34 141.511 169.36 140.896 168.453 140.182C167.562 139.492 166.717 138.746 165.922 137.948C165.117 137.152 164.366 136.305 163.674 135.41C162.959 134.502 162.344 133.519 161.84 132.479C162.881 132.981 163.864 133.596 164.772 134.312C166.555 135.691 168.155 137.292 169.531 139.078C170.251 139.988 170.87 140.973 171.378 142.016Z" fill="#37474F"/>
<path d="M192.873 130.52C193.25 131.61 193.508 132.739 193.642 133.885C193.783 135.001 193.855 136.125 193.859 137.251C193.861 138.378 193.791 139.504 193.649 140.623C193.509 141.769 193.249 142.897 192.873 143.988C192.491 142.898 192.231 141.77 192.097 140.623C191.952 139.505 191.882 138.378 191.887 137.251C191.885 136.125 191.955 135.001 192.097 133.885C192.233 132.738 192.493 131.61 192.873 130.52Z" fill="#37474F"/>
<path d="M199.605 137.252C198.516 137.634 197.387 137.894 196.24 138.027C195.124 138.169 194 138.239 192.874 138.238C191.747 138.243 190.62 138.173 189.502 138.027C188.355 137.894 187.227 137.634 186.137 137.252C187.228 136.876 188.356 136.616 189.502 136.476C190.621 136.334 191.747 136.264 192.874 136.266C194 136.269 195.124 136.342 196.24 136.483C197.386 136.616 198.515 136.874 199.605 137.252Z" fill="#37474F"/>
<path d="M197.63 132.492C197.126 133.53 196.511 134.511 195.796 135.417C195.11 136.309 194.365 137.154 193.568 137.948C192.773 138.746 191.928 139.493 191.037 140.183C190.129 140.898 189.146 141.513 188.105 142.017C188.61 140.977 189.225 139.994 189.939 139.085C190.63 138.195 191.376 137.35 192.174 136.555C192.968 135.757 193.814 135.013 194.705 134.326C195.611 133.611 196.592 132.997 197.63 132.492Z" fill="#37474F"/>
<path d="M197.631 142.016C196.593 141.512 195.612 140.897 194.706 140.182C193.813 139.496 192.967 138.749 192.175 137.948C191.384 137.151 190.646 136.304 189.967 135.41C189.252 134.502 188.637 133.519 188.133 132.479C189.174 132.981 190.157 133.596 191.065 134.312C192.848 135.691 194.448 137.292 195.824 139.078C196.53 139.99 197.136 140.975 197.631 142.016Z" fill="#37474F"/>
<path d="M219.119 130.52C219.501 131.609 219.762 132.738 219.894 133.885C220.036 135.001 220.107 136.125 220.105 137.251C220.11 138.378 220.04 139.505 219.894 140.623C219.761 141.77 219.501 142.898 219.119 143.988C218.742 142.897 218.484 141.769 218.35 140.623C218.205 139.504 218.133 138.378 218.133 137.251C218.136 136.125 218.209 135.001 218.35 133.885C218.483 132.739 218.741 131.61 219.119 130.52Z" fill="#37474F"/>
<path d="M225.859 137.252C224.77 137.634 223.641 137.894 222.494 138.027C221.375 138.169 220.249 138.24 219.122 138.238C217.996 138.243 216.872 138.172 215.756 138.027C214.609 137.894 213.48 137.634 212.391 137.252C213.482 136.875 214.61 136.615 215.756 136.476C216.872 136.334 217.997 136.264 219.122 136.266C220.249 136.269 221.375 136.342 222.494 136.483C223.64 136.617 224.769 136.875 225.859 137.252Z" fill="#37474F"/>
<path d="M223.884 132.492C223.38 133.53 222.765 134.511 222.05 135.417C221.364 136.309 220.619 137.154 219.822 137.948C219.027 138.746 218.181 139.493 217.291 140.183C216.382 140.898 215.4 141.513 214.359 142.017C214.861 140.975 215.476 139.992 216.193 139.085C216.883 138.196 217.627 137.351 218.422 136.555C219.219 135.759 220.067 135.014 220.959 134.326C221.865 133.611 222.846 132.997 223.884 132.492Z" fill="#37474F"/>
<path d="M223.884 142.016C222.846 141.512 221.865 140.897 220.959 140.182C220.065 139.494 219.218 138.747 218.422 137.948C217.625 137.15 216.881 136.303 216.193 135.41C215.476 134.503 214.861 133.52 214.359 132.479C215.401 132.981 216.384 133.596 217.291 134.312C219.075 135.691 220.674 137.292 222.05 139.078C222.766 139.989 223.381 140.974 223.884 142.016Z" fill="#37474F"/>
<path d="M245.373 130.52C245.752 131.61 246.012 132.738 246.148 133.885C246.429 136.122 246.429 138.386 246.148 140.623C246.015 141.77 245.755 142.898 245.373 143.988C244.994 142.898 244.734 141.769 244.597 140.623C244.455 139.504 244.385 138.378 244.387 137.251C244.39 136.125 244.463 135.001 244.604 133.885C244.737 132.739 244.995 131.61 245.373 130.52Z" fill="#37474F"/>
<path d="M252.113 137.252C251.024 137.634 249.895 137.894 248.748 138.027C247.629 138.169 246.503 138.24 245.376 138.238C244.25 138.243 243.126 138.172 242.01 138.027C240.863 137.894 239.734 137.634 238.645 137.252C239.736 136.875 240.864 136.615 242.01 136.476C243.126 136.334 244.25 136.264 245.376 136.266C246.503 136.269 247.629 136.342 248.748 136.483C249.894 136.617 251.022 136.875 252.113 137.252Z" fill="#37474F"/>
<path d="M250.138 132.492C249.634 133.53 249.019 134.511 248.304 135.417C247.615 136.309 246.869 137.154 246.069 137.948C245.277 138.749 244.432 139.496 243.538 140.183C242.632 140.898 241.651 141.513 240.613 142.017C241.113 140.974 241.728 139.991 242.447 139.085C243.135 138.195 243.88 137.35 244.676 136.555C245.472 135.76 246.318 135.016 247.206 134.326C248.116 133.613 249.099 132.998 250.138 132.492Z" fill="#37474F"/>
<path d="M250.138 142.017C249.099 141.511 248.116 140.896 247.206 140.183C246.316 139.493 245.471 138.746 244.676 137.948C243.878 137.157 243.134 136.313 242.447 135.424C241.728 134.519 241.113 133.535 240.613 132.492C241.653 132.994 242.634 133.609 243.538 134.326C244.432 135.011 245.277 135.755 246.069 136.555C246.867 137.352 247.614 138.199 248.304 139.092C249.019 139.998 249.634 140.979 250.138 142.017Z" fill="#37474F"/>
<path d="M271.626 130.52C272.002 131.611 272.262 132.739 272.402 133.885C272.682 136.122 272.682 138.386 272.402 140.623C272.268 141.77 272.008 142.898 271.626 143.988C271.247 142.898 270.987 141.769 270.85 140.623C270.566 138.386 270.566 136.122 270.85 133.885C270.986 132.738 271.246 131.61 271.626 130.52Z" fill="#37474F"/>
<path d="M278.365 137.252C277.273 137.634 276.142 137.894 274.992 138.027C273.876 138.17 272.752 138.24 271.627 138.238C270.502 138.243 269.377 138.173 268.261 138.027C267.116 137.895 265.99 137.635 264.902 137.252C265.994 136.875 267.122 136.615 268.268 136.476C269.384 136.334 270.508 136.264 271.633 136.266C272.759 136.269 273.883 136.341 274.999 136.483C276.145 136.617 277.274 136.875 278.365 137.252Z" fill="#37474F"/>
<path d="M276.392 132.492C275.888 133.532 275.271 134.513 274.551 135.417C273.171 137.199 271.572 138.8 269.792 140.183C268.886 140.898 267.905 141.513 266.867 142.017C267.367 140.974 267.982 139.991 268.701 139.085C269.389 138.195 270.133 137.35 270.93 136.555C271.726 135.76 272.571 135.016 273.46 134.326C274.369 133.611 275.352 132.997 276.392 132.492Z" fill="#37474F"/>
<path d="M276.392 142.017C275.352 141.513 274.369 140.898 273.46 140.183C272.57 139.493 271.725 138.746 270.93 137.948C270.132 137.157 269.387 136.313 268.701 135.424C267.982 134.519 267.367 133.535 266.867 132.492C267.907 132.994 268.888 133.609 269.792 134.326C270.685 135.011 271.531 135.755 272.323 136.555C273.121 137.35 273.865 138.198 274.551 139.092C275.271 139.996 275.888 140.977 276.392 142.017Z" fill="#37474F"/>
<path d="M297.883 130.52C298.261 131.61 298.519 132.739 298.652 133.885C298.937 136.122 298.937 138.386 298.652 140.623C298.516 141.769 298.255 142.898 297.877 143.988C297.495 142.898 297.235 141.77 297.101 140.623C296.821 138.386 296.821 136.122 297.101 133.885C297.242 132.739 297.505 131.611 297.883 130.52Z" fill="#37474F"/>
<path d="M304.613 137.252C303.524 137.635 302.395 137.895 301.248 138.027C300.132 138.169 299.007 138.24 297.882 138.238C296.757 138.243 295.632 138.173 294.517 138.027C293.367 137.894 292.236 137.634 291.145 137.252C292.238 136.875 293.368 136.615 294.517 136.476C295.633 136.334 296.757 136.263 297.882 136.266C299.007 136.269 300.131 136.342 301.248 136.483C302.394 136.616 303.523 136.874 304.613 137.252Z" fill="#37474F"/>
<path d="M302.639 132.492C302.14 133.533 301.525 134.514 300.805 135.417C300.121 136.31 299.376 137.156 298.577 137.948C297.782 138.746 296.937 139.493 296.046 140.183C295.139 140.896 294.158 141.511 293.121 142.017C293.621 140.976 294.234 139.992 294.948 139.085C296.332 137.306 297.933 135.707 299.714 134.326C300.621 133.613 301.602 132.998 302.639 132.492Z" fill="#37474F"/>
<path d="M302.639 142.017C301.602 141.511 300.621 140.896 299.714 140.183C297.937 138.798 296.336 137.199 294.948 135.424C294.234 134.517 293.621 133.534 293.121 132.492C294.16 132.996 295.141 133.611 296.046 134.326C296.937 135.014 297.782 135.758 298.577 136.555C299.375 137.35 300.119 138.198 300.805 139.092C301.525 139.995 302.14 140.976 302.639 142.017Z" fill="#37474F"/>
<path d="M279.675 131.309V167.107H269.559V131.309C269.559 117.696 259.219 106.626 246.5 106.626C233.78 106.626 223.441 117.696 223.441 131.309V167.107H213.324V131.309C213.324 111.812 228.206 95.9707 246.5 95.9707C264.793 95.9707 279.675 111.812 279.675 131.309Z" fill="#455A64"/>
<path d="M213.324 140.617L223.441 141.025V167.108H213.324V140.617Z" fill="#263238"/>
<path d="M279.679 143.318V167.107H269.562V142.904L279.679 143.318Z" fill="#263238"/>
<path d="M292.646 146.723H200.363V230.447H292.646V146.723Z" fill="#407BFF"/>
<path opacity="0.1" d="M292.638 146.723H246.5V230.447H292.638V146.723Z" fill="black"/>
<path d="M250.406 191.652L254.265 209.972H237.871L241.736 191.652C240.225 190.71 239.061 189.302 238.422 187.64C237.782 185.978 237.701 184.153 238.191 182.44C238.68 180.728 239.714 179.222 241.136 178.15C242.558 177.078 244.291 176.498 246.071 176.498C247.852 176.498 249.585 177.078 251.006 178.15C252.428 179.222 253.462 180.728 253.952 182.44C254.442 184.153 254.361 185.978 253.721 187.64C253.081 189.302 251.918 190.71 250.406 191.652Z" fill="#263238"/>
<path d="M219.693 191.619C219.693 191.619 214.869 230.244 206.941 238.947C197.423 249.373 190.508 247.848 186.669 253.225C182.83 247.841 175.922 249.373 166.39 238.941C158.463 230.244 153.645 191.613 153.645 191.613C174.535 181.477 186.682 170.111 186.682 170.111C187.044 170.466 199.125 181.641 219.693 191.619Z" fill="#EBEBEB"/>
<path d="M186.681 170.118V253.218C182.842 247.834 175.933 249.366 166.402 238.934C158.475 230.238 153.656 191.606 153.656 191.606C174.533 181.477 186.681 170.111 186.681 170.111V170.118Z" fill="#DBDBDB"/>
<path d="M214.573 194.736C214.573 194.736 210.498 227.359 203.8 234.708C195.747 243.53 189.91 242.235 186.663 246.777C183.416 242.235 177.579 243.53 169.533 234.708C162.835 227.359 158.766 194.736 158.766 194.736C176.415 186.19 186.663 176.561 186.663 176.561C186.663 176.561 196.924 186.164 214.573 194.736Z" fill="#DBDBDB"/>
<path d="M158.773 194.734C158.773 194.734 162.849 227.358 169.547 234.707C177.586 243.522 183.397 242.233 186.684 246.762V176.572C186.362 176.861 176.166 186.294 158.773 194.734Z" fill="#C7C7C7"/>
<path d="M195.817 220.815C200.869 215.763 200.869 207.573 195.817 202.521C190.765 197.469 182.574 197.469 177.522 202.521C172.47 207.573 172.47 215.763 177.522 220.815C182.574 225.867 190.765 225.867 195.817 220.815Z" fill="#407BFF"/>
<path d="M185.198 220.074L179.434 214.079L181.57 212.022L184.745 215.328L191.594 204.824L194.079 206.441L185.198 220.074Z" fill="white"/>
<path d="M142.039 256.328L143.574 248.47L235.365 266.396C236.203 266.56 236.943 267.05 237.42 267.758C237.897 268.467 238.073 269.336 237.909 270.174L237.609 271.71C237.445 272.548 236.955 273.287 236.247 273.764C235.538 274.241 234.669 274.417 233.831 274.254L142.039 256.328Z" fill="#407BFF"/>
<path opacity="0.1" d="M143.567 248.462L142.031 256.326L153.115 258.491L154.651 250.626L143.567 248.462Z" fill="black"/>
<path d="M108.46 238.44L105.758 252.415C105.301 254.758 105.31 257.168 105.784 259.507C106.259 261.847 107.189 264.07 108.522 266.049C109.856 268.029 111.566 269.727 113.556 271.046C115.545 272.365 117.775 273.279 120.118 273.736C122.46 274.193 124.87 274.184 127.21 273.71C129.549 273.236 131.772 272.305 133.752 270.972C135.732 269.638 137.43 267.928 138.748 265.939C140.067 263.949 140.981 261.719 141.438 259.376L144.16 245.434C145.087 240.7 144.096 235.792 141.404 231.788C138.713 227.785 134.541 225.015 129.807 224.087C125.073 223.16 120.164 224.151 116.161 226.843C112.157 229.534 109.387 233.706 108.46 238.44ZM138.428 241.931C137.619 246.079 133.997 249.069 129.521 249.786C133.399 252.146 135.634 256.267 134.819 260.415C133.741 265.963 127.621 269.447 121.16 268.185C114.698 266.923 110.353 261.394 111.438 255.853C112.246 251.705 115.868 248.714 120.351 247.965C116.466 245.618 114.238 241.484 115.046 237.336C116.131 231.782 122.238 228.311 128.693 229.573C135.148 230.835 139.539 236.383 138.454 241.931H138.428Z" fill="#407BFF"/>
<path d="M144.259 244.92L141.339 259.868C141.182 260.673 141.707 261.454 142.513 261.611L143.222 261.749C144.028 261.907 144.808 261.381 144.965 260.576L147.884 245.628C148.042 244.823 147.516 244.043 146.711 243.885L146.001 243.747C145.196 243.59 144.416 244.115 144.259 244.92Z" fill="#407BFF"/>
<path d="M147.884 245.629L144.964 260.577C144.807 261.382 145.332 262.163 146.138 262.32L146.847 262.458C147.653 262.616 148.433 262.09 148.59 261.285L151.509 246.337C151.667 245.532 151.141 244.752 150.336 244.594L149.626 244.456C148.821 244.299 148.041 244.824 147.884 245.629Z" fill="#407BFF"/>
<path d="M213.428 258.739L216.162 259.272L217.707 251.331L220.047 251.785L219.239 255.926L221.966 256.458L222.775 252.317L224.846 252.718L223.564 259.265L226.298 259.804L227.58 253.257L230.512 253.829L228.809 262.572L231.544 263.104L233.253 254.361L236.027 254.907L233.844 266.082L209.418 261.309L211.594 250.135L214.972 250.792L213.428 258.739Z" fill="#407BFF"/>
<path d="M307.632 217.809L289.72 232.27C286.282 235.018 283.317 237.489 281.904 238.916C281.539 239.216 281.245 239.593 281.043 240.02C281.043 240.02 281.043 240.02 281.043 240.059C281.168 241.63 302.334 269.744 303.392 270.474C304.451 271.204 306.633 268.219 306.679 266.478C306.725 264.736 303.438 250.34 303.438 250.34L321.186 235.708L307.632 217.809Z" fill="#C95F50"/>
<path d="M293.375 229.318L289.7 232.283C286.262 235.031 283.298 237.502 281.885 238.929C281.555 239.261 281.266 239.632 281.023 240.033C281.023 240.033 281.023 240.033 281.023 240.072C281.148 241.643 302.314 269.758 303.373 270.487C304.431 271.217 306.613 268.233 306.659 266.491C306.705 264.749 303.419 250.353 303.419 250.353L307.192 247.388L293.375 229.318Z" fill="#EBEBEB"/>
<path d="M303.354 270.506C302.282 269.777 281.123 241.669 281.005 240.085C280.945 239.487 284.863 236.141 289.708 232.289L289.865 232.164L303.689 250.149L303.38 250.372C303.38 250.372 306.667 264.755 306.621 266.51C306.575 268.265 304.419 271.243 303.354 270.506Z" fill="#407BFF"/>
<path d="M304.201 269.369C300.75 264.545 286.381 245.41 282.601 240.9C282.549 240.9 282.601 240.861 282.601 240.9C285.888 245.758 300.442 264.781 304.155 269.409C304.208 269.507 304.28 269.507 304.201 269.369Z" fill="#263238"/>
<path d="M304.492 251.937C303.434 249.814 301.436 247.743 299.03 247.336C298.938 247.336 298.918 247.448 298.984 247.5C300.897 248.841 302.66 250.384 304.243 252.102C304.267 252.129 304.3 252.146 304.336 252.151C304.372 252.155 304.408 252.147 304.438 252.127C304.469 252.107 304.491 252.077 304.501 252.042C304.511 252.007 304.508 251.97 304.492 251.937Z" fill="#263238"/>
<path d="M304.693 253.896C303.635 251.766 301.63 249.702 299.231 249.295C299.139 249.295 299.119 249.413 299.178 249.459C301.09 250.801 302.853 252.343 304.437 254.061C304.448 254.077 304.462 254.092 304.478 254.103C304.494 254.115 304.513 254.123 304.532 254.127C304.552 254.131 304.572 254.132 304.592 254.128C304.612 254.125 304.63 254.117 304.647 254.107C304.664 254.096 304.679 254.082 304.69 254.065C304.701 254.049 304.709 254.03 304.714 254.011C304.718 253.991 304.718 253.971 304.715 253.952C304.711 253.932 304.704 253.913 304.693 253.896Z" fill="#263238"/>
<path d="M304.893 255.847C303.841 253.724 301.836 251.66 299.437 251.246C299.345 251.246 299.318 251.364 299.384 251.41C301.295 252.753 303.058 254.296 304.643 256.012C304.654 256.028 304.668 256.042 304.684 256.053C304.7 256.064 304.718 256.072 304.738 256.076C304.757 256.08 304.777 256.08 304.796 256.076C304.815 256.073 304.834 256.065 304.85 256.054C304.866 256.044 304.88 256.03 304.891 256.014C304.902 255.997 304.91 255.979 304.914 255.96C304.918 255.941 304.918 255.921 304.915 255.901C304.911 255.882 304.903 255.864 304.893 255.847Z" fill="#263238"/>
<path d="M317.296 200.573C316.027 206.838 290.043 231.823 290.043 231.823L308.159 252.733C308.159 252.733 345.049 215.922 343.123 202.072C341.446 190.036 323.403 141.637 323.403 141.637H302.644C302.644 141.637 318.538 194.414 317.296 200.573Z" fill="#37474F"/>
<path d="M317.296 200.573C316.027 206.838 290.043 231.823 290.043 231.823L308.159 252.733C308.159 252.733 345.049 215.922 343.123 202.072C341.446 190.036 323.403 141.637 323.403 141.637H302.644C302.644 141.637 318.538 194.414 317.296 200.573Z" fill="#37474F"/>
<path d="M310.217 247.763C307.811 244.766 308.547 245.594 306.109 242.623C304.912 241.17 297.057 231.632 295.703 230.469C295.703 230.469 295.624 230.469 295.644 230.521C296.551 232.053 304.57 241.453 305.793 242.886C308.291 245.804 307.607 244.943 310.131 247.836C310.184 247.888 310.263 247.816 310.217 247.763Z" fill="#263238"/>
<path d="M319.879 197.523C319.577 195.959 319.222 194.401 318.913 192.843C318.234 189.662 317.517 186.491 316.764 183.332C315.265 177.061 313.637 170.825 311.88 164.624C310.111 158.405 308.238 152.194 306.075 146.094C305.813 145.338 305.536 144.588 305.26 143.839C305.26 143.827 305.256 143.815 305.247 143.806C305.238 143.798 305.227 143.793 305.214 143.793C305.202 143.793 305.19 143.798 305.182 143.806C305.173 143.815 305.168 143.827 305.168 143.839C307.042 149.952 308.968 156.046 310.716 162.185C312.465 168.325 314.075 174.464 315.6 180.643C316.363 183.746 317.073 186.861 317.769 189.977C318.111 191.509 318.427 193.047 318.769 194.579C319.174 196.137 319.467 197.723 319.643 199.324C319.69 200.841 319.263 202.335 318.42 203.597C317.638 204.872 316.724 206.069 315.837 207.272C314.062 209.677 297.142 228.536 296.597 229.049C296.551 229.089 296.597 229.148 296.662 229.108C298.93 227.071 313.286 211.531 315.107 209.125C316.014 207.936 316.889 206.733 317.737 205.51C318.6 204.407 319.295 203.182 319.801 201.875C320.2 200.455 320.227 198.957 319.879 197.523Z" fill="#263238"/>
<path d="M319.834 141.637L316.061 191.167C312.459 174.214 302.645 141.637 302.645 141.637H319.834Z" fill="#263238"/>
<path d="M310.918 243.615C310.918 243.615 315.408 265.465 315.408 265.485C315.467 269.882 315.598 273.741 315.848 275.733C315.854 276.205 315.971 276.668 316.19 277.087C317.504 277.954 352.691 278.5 353.927 278.106C355.163 277.711 354.138 274.162 352.784 273.057C351.429 271.953 338.059 265.715 338.059 265.715L333.353 243.878L310.918 243.615Z" fill="#C95F50"/>
<path d="M353.962 278.165C352.733 278.559 317.546 278.014 316.225 277.146C316.01 276.726 315.893 276.263 315.883 275.792C315.88 275.779 315.88 275.765 315.883 275.752C315.626 273.78 315.502 269.915 315.436 265.511L314.66 261.705H337.213L338.094 265.794C338.094 265.794 351.471 272.032 352.832 273.143C354.192 274.254 355.204 277.777 353.962 278.165Z" fill="#EBEBEB"/>
<path d="M353.963 278.164C352.727 278.559 317.547 278.013 316.225 277.145C315.713 276.823 315.496 271.69 315.41 265.484V265.287L338.108 265.386V265.774C338.108 265.774 351.478 272.005 352.832 273.116C354.186 274.227 355.199 277.776 353.963 278.164Z" fill="#407BFF"/>
<path d="M353.586 276.797C347.67 276.561 323.724 276.14 317.847 276.377C317.801 276.377 317.801 276.409 317.847 276.416C323.717 276.778 347.65 276.981 353.586 276.896C353.711 276.889 353.711 276.804 353.586 276.797Z" fill="#263238"/>
<path d="M340 265.872C337.673 265.399 334.813 265.715 332.999 267.351C332.933 267.41 332.999 267.509 333.098 267.489C335.34 266.805 337.65 266.364 339.987 266.175C340.006 266.176 340.026 266.172 340.045 266.166C340.064 266.159 340.081 266.148 340.095 266.135C340.11 266.122 340.122 266.105 340.13 266.087C340.139 266.069 340.143 266.05 340.144 266.03C340.145 266.01 340.142 265.99 340.135 265.972C340.129 265.953 340.118 265.936 340.105 265.921C340.091 265.907 340.075 265.895 340.057 265.886C340.039 265.878 340.02 265.873 340 265.872Z" fill="#263238"/>
<path d="M341.665 266.911C339.345 266.438 336.479 266.754 334.671 268.39C334.605 268.456 334.671 268.555 334.77 268.528C337.01 267.845 339.317 267.404 341.652 267.214C341.692 267.215 341.731 267.201 341.761 267.174C341.79 267.147 341.808 267.109 341.81 267.069C341.811 267.029 341.797 266.99 341.77 266.96C341.743 266.931 341.705 266.913 341.665 266.911Z" fill="#263238"/>
<path d="M343.332 267.956C341.005 267.483 338.146 267.799 336.338 269.429C336.266 269.495 336.338 269.593 336.437 269.573C338.678 268.893 340.985 268.452 343.319 268.259C343.339 268.26 343.358 268.257 343.377 268.25C343.396 268.243 343.413 268.233 343.428 268.219C343.442 268.206 343.454 268.19 343.463 268.172C343.471 268.154 343.476 268.134 343.477 268.114C343.477 268.094 343.474 268.074 343.468 268.056C343.461 268.037 343.45 268.02 343.437 268.005C343.424 267.991 343.407 267.979 343.389 267.97C343.371 267.962 343.352 267.957 343.332 267.956Z" fill="#263238"/>
<path d="M321.436 141.637C320.626 145.054 320.029 148.518 319.648 152.009C319.22 156.361 318.675 160.213 318.096 160.693C317.518 161.173 314.152 163.322 313.048 163.979C313.048 163.979 323.289 195.032 325.932 205.391C329.764 220.392 338.94 265.413 338.94 265.413H314.488C314.488 265.413 307.053 222.561 303.799 208.271C301.012 196.024 290.337 159.286 290.337 159.286C289.211 156.454 288.705 153.413 288.853 150.368C289.002 147.323 289.802 144.346 291.198 141.637C291.198 141.637 321.436 141.624 321.436 141.637Z" fill="#37474F"/>
<path d="M338.048 260.679C334.203 260.679 335.307 260.613 331.475 260.633C329.595 260.633 317.237 260.725 315.489 261.047C315.478 261.047 315.468 261.051 315.461 261.058C315.453 261.066 315.449 261.076 315.449 261.086C315.449 261.097 315.453 261.107 315.461 261.114C315.468 261.121 315.478 261.126 315.489 261.126C317.25 261.389 329.602 261.086 331.482 261.04C335.327 260.942 334.223 260.928 338.055 260.79C338.066 260.786 338.076 260.778 338.083 260.767C338.089 260.757 338.092 260.744 338.092 260.732C338.091 260.72 338.086 260.708 338.079 260.698C338.071 260.689 338.06 260.682 338.048 260.679Z" fill="#263238"/>
<path d="M319.813 159.464C317.439 160.771 315.182 162.282 313.069 163.979C313.056 163.994 313.049 164.012 313.047 164.031C313.046 164.05 313.051 164.069 313.061 164.085C313.072 164.1 313.087 164.112 313.106 164.118C313.124 164.124 313.143 164.124 313.161 164.118C315.449 162.685 317.763 161.291 319.991 159.733C320.018 159.706 320.035 159.671 320.04 159.633C320.044 159.595 320.034 159.557 320.013 159.525C319.992 159.493 319.961 159.47 319.925 159.458C319.888 159.447 319.849 159.449 319.813 159.464Z" fill="#263238"/>
<path d="M317.946 142.569C317.946 142.484 317.775 142.491 317.788 142.569C318.214 145.303 318.501 148.056 318.649 150.819C318.735 152.094 318.8 159.226 316.532 159.055C316.151 159.055 315.875 158.7 315.763 158.155C315.661 157.432 315.648 156.699 315.724 155.972C315.724 154.474 315.724 152.982 315.606 151.483C315.431 148.715 314.973 145.973 314.238 143.299C314.238 143.28 314.231 143.262 314.217 143.248C314.204 143.234 314.185 143.227 314.166 143.227C314.147 143.227 314.128 143.234 314.115 143.248C314.101 143.262 314.094 143.28 314.094 143.299C314.75 147.096 315.119 150.937 315.198 154.789C315.198 156.65 314.718 159.522 316.657 159.502C318.596 159.483 319.175 154.717 319.214 153.435C319.264 149.774 318.837 146.121 317.946 142.569Z" fill="#263238"/>
<path d="M316.618 159.252C316.497 159.752 316.409 160.259 316.355 160.771C316.283 161.175 316.283 161.589 316.355 161.993C316.361 162.009 316.372 162.022 316.386 162.032C316.4 162.041 316.417 162.046 316.434 162.046C316.451 162.046 316.467 162.041 316.481 162.032C316.495 162.022 316.506 162.009 316.513 161.993C316.689 161.602 316.8 161.185 316.841 160.758C316.94 160.284 317.045 159.818 317.131 159.338C317.142 159.27 317.126 159.2 317.086 159.144C317.046 159.088 316.985 159.05 316.917 159.039C316.849 159.027 316.779 159.043 316.723 159.084C316.667 159.124 316.629 159.184 316.618 159.252Z" fill="#263238"/>
<path d="M293.827 159.128C295.934 159.011 298.016 158.618 300.019 157.958C302.295 157.231 304.357 155.958 306.027 154.251C306.973 153.312 307.753 152.221 308.335 151.023C308.335 150.977 308.427 151.023 308.414 151.063C308.056 152.223 307.505 153.314 306.783 154.29C306.036 155.257 305.15 156.107 304.154 156.814C302.182 158.26 299.861 159.156 297.43 159.411C296.23 159.597 295.008 159.579 293.814 159.358C293.624 159.332 293.676 159.141 293.827 159.128Z" fill="#263238"/>
<path d="M311.631 247.204C311.572 246.639 311.493 246.074 311.414 245.508C311.263 244.43 311.079 243.346 310.908 242.268C310.58 240.092 310.205 237.923 309.817 235.76C309.055 231.441 308.167 227.136 307.234 222.85C306.701 220.431 306.09 218.038 305.439 215.619C305.4 215.448 305.163 215.534 305.19 215.692C305.584 217.887 305.965 220.076 306.412 222.265C306.859 224.454 307.306 226.61 307.727 228.786C308.581 233.085 309.377 237.403 310.231 241.702C310.468 242.918 310.691 244.134 310.928 245.35C311.046 245.955 311.165 246.567 311.296 247.165C311.428 247.763 311.612 248.361 311.71 248.966C311.71 249.025 311.809 248.999 311.802 248.966C311.71 248.381 311.704 247.815 311.631 247.204Z" fill="#263238"/>
<path d="M328.496 214.712C327.681 210.656 326.584 206.653 325.479 202.663C323.257 194.644 320.641 186.736 318.032 178.828C317.278 176.554 316.524 174.277 315.77 171.998C315.396 170.861 313.555 164.715 313.325 164.11C313.321 164.1 313.315 164.092 313.306 164.086C313.297 164.079 313.287 164.076 313.276 164.076C313.265 164.076 313.255 164.079 313.246 164.086C313.237 164.092 313.23 164.1 313.227 164.11C313.759 166.201 314.482 169.251 315.093 171.341C315.705 173.431 316.355 175.423 316.993 177.454C318.242 181.457 319.511 185.461 320.72 189.47C323.119 197.404 325.499 205.338 327.445 213.397C327.99 215.659 328.536 217.913 329.029 220.181C329.522 222.449 329.956 224.723 330.429 226.991C330.429 227.057 330.547 227.037 330.541 226.991C330.133 222.876 329.325 218.787 328.496 214.712Z" fill="#263238"/>
<path d="M313.294 235.938C311.947 228.201 310.336 220.504 308.549 212.853C306.761 205.201 304.756 197.524 302.554 189.945C300.352 182.366 297.913 174.826 295.323 167.398C294.004 163.894 292.895 160.314 292.003 156.677C291.195 153.062 290.787 149.15 291.629 145.502C291.834 144.577 292.113 143.669 292.464 142.788C292.464 142.728 292.398 142.676 292.372 142.735C289.433 149.591 291.34 157.085 293.581 163.842C294.804 167.543 296.112 171.217 297.328 174.925C298.544 178.632 299.753 182.55 300.897 186.388C303.152 193.994 305.249 201.645 307.122 209.349C308.996 217.053 310.672 224.81 312.144 232.606C313.617 240.401 314.859 248.283 316.121 256.138C316.285 257.164 316.41 258.189 316.548 259.214C316.548 259.274 316.64 259.274 316.634 259.214C315.661 251.425 314.635 243.668 313.294 235.938Z" fill="#263238"/>
<path d="M312.791 109.171C315.671 119.688 323.966 132.374 327.91 134.149C331.341 135.674 347.262 129.785 353.27 125.959C354.979 124.868 347.913 115.027 345.855 115.711C339.131 117.953 331.815 121.266 331.249 121.075C330.106 120.687 322.967 111.931 317.767 106.042C311.937 99.4224 311.648 104.983 312.791 109.171Z" fill="#C95F50"/>
<path d="M364.625 117.038C365.979 116.473 376.398 116.144 376.398 113.883C376.398 111.622 363.133 112.253 363.133 112.253L364.625 117.038Z" fill="#C95F50"/>
<path d="M344.641 117.301C346.461 115.04 348.065 112.601 349.65 112.154C350.741 111.845 362.54 112.351 364.38 112.24C366.221 112.128 372.801 112.299 372.926 113.916C373.143 116.197 365.36 116.177 364.532 117.347C361.659 121.377 350.728 127.339 350.728 127.339L344.641 117.301Z" fill="#C95F50"/>
<path d="M373.129 113.95C373.008 113.53 372.74 113.168 372.373 112.931C371.511 112.46 370.542 112.222 369.56 112.241C368.121 112.111 366.675 112.1 365.234 112.208C365.234 112.208 365.234 112.254 365.234 112.26C366.319 112.26 367.39 112.26 368.468 112.379C369.457 112.416 370.439 112.566 371.394 112.826C371.822 112.936 372.211 113.164 372.518 113.483C372.623 113.603 372.696 113.749 372.73 113.905C372.763 114.062 372.756 114.224 372.708 114.377C372.399 115.37 370.434 115.692 369.527 115.869C368.344 116.132 367.114 116.362 365.925 116.605C365.872 116.605 365.925 116.697 365.925 116.684C367.16 116.441 368.462 116.349 369.704 116.126C370.742 116.024 371.736 115.662 372.597 115.074C372.784 114.957 372.933 114.789 373.028 114.59C373.122 114.391 373.157 114.168 373.129 113.95Z" fill="#263238"/>
<path d="M344.188 115.908L353.522 129.574C353.522 129.574 339.061 136.804 333.526 136.693C328.268 136.568 326.355 135.792 324.692 134.221C323.66 133.248 317.803 124.972 313.024 111.214C309.014 99.6847 314.95 101.354 320.255 107.77C322.884 110.951 331.324 120.437 331.745 120.404C332.166 120.371 344.188 115.908 344.188 115.908Z" fill="#407BFF"/>
<path d="M341.315 118.131C342.715 120.156 344.056 122.22 345.377 124.297C346.035 125.309 348.454 129.45 349.157 130.627C349.157 130.673 349.058 130.752 349.026 130.706C348.296 129.667 345.66 125.533 345.022 124.507C343.708 122.41 342.465 120.307 341.256 118.171C341.253 118.167 341.252 118.162 341.251 118.158C341.25 118.153 341.25 118.148 341.251 118.144C341.252 118.139 341.253 118.135 341.256 118.131C341.259 118.127 341.262 118.124 341.266 118.121C341.27 118.119 341.274 118.117 341.279 118.116C341.283 118.115 341.288 118.115 341.293 118.116C341.297 118.117 341.301 118.119 341.305 118.121C341.309 118.124 341.313 118.127 341.315 118.131Z" fill="#263238"/>
<path opacity="0.1" d="M336.327 136.345C335.41 136.571 334.47 136.688 333.526 136.694C328.268 136.569 326.355 135.793 324.692 134.222C323.666 133.249 317.803 124.98 313.031 111.216C312.281 109.31 311.837 107.298 311.716 105.254C311.716 105.129 311.716 104.997 311.716 104.879C311.709 104.763 311.709 104.646 311.716 104.53C311.727 104.436 311.742 104.341 311.762 104.248C311.829 103.819 312.032 103.423 312.341 103.117C315.607 107.495 330.923 128.181 336.327 136.345Z" fill="black"/>
<path d="M370.594 110.301H335.203V112.2H370.594V110.301Z" fill="#C7C7C7"/>
<path d="M370.592 110.301V112.2H349.098L350.55 110.301H370.592Z" fill="#A6A6A6"/>
<path d="M352.113 112.202H375.784L388.102 91.2852H364.432L352.113 112.202Z" fill="#C7C7C7"/>
<path d="M369.224 101.729C368.784 102.695 369.106 103.701 369.947 104.003C370.418 104.112 370.913 104.048 371.34 103.822C371.767 103.596 372.099 103.224 372.274 102.774C372.715 101.808 372.393 100.802 371.551 100.5C371.081 100.392 370.587 100.457 370.16 100.683C369.733 100.908 369.401 101.28 369.224 101.729Z" fill="white"/>
<path d="M288.917 148.841C289.003 148.933 325.971 148.67 326.306 148.289C326.766 147.75 318.011 107.784 314.165 102.874C313.344 101.822 310.662 101.559 308.387 101.861C307.795 101.935 307.21 102.06 306.639 102.236H306.58C306.118 102.38 305.684 102.603 305.298 102.893C299.02 108.014 293.873 125.736 292.684 131.054C290.712 139.822 288.608 148.493 288.917 148.841Z" fill="#EBEBEB"/>
<path d="M306.186 102.328C306.186 102.328 308.598 118.761 309.17 123.047C309.742 127.333 309.17 149.834 309.17 149.834L285.973 151.806C285.973 151.806 290.837 136.845 290.883 135.898C290.883 135.898 294.728 117.92 298.699 110.499C300.472 107.192 303.046 104.383 306.186 102.328Z" fill="#407BFF"/>
<path d="M313.91 102.617C313.91 102.617 317.046 119.261 317.322 120.635C317.598 122.009 321.614 149.058 321.614 149.058L327.418 149.183L324.27 136.825C324.27 136.825 317.532 105.174 313.91 102.617Z" fill="#407BFF"/>
<path d="M312.601 107.934C310.84 108.138 307.5 105.686 306.567 103.09C306.508 102.906 307.034 101.217 307.573 99.1459C307.895 97.8773 308.23 96.464 308.434 95.1493C308.473 94.8798 316.361 98.436 316.361 98.436C315.629 100.003 315.093 101.655 314.764 103.353C314.748 103.537 314.748 103.721 314.764 103.905V103.997C314.738 105.055 314.494 107.724 312.601 107.934Z" fill="#C95F50"/>
<path d="M314.738 103.919C314.742 103.949 314.742 103.98 314.738 104.011C314.454 104.001 314.171 103.97 313.891 103.919C309.059 103.045 308.737 96.7671 308.73 95.1895C310.163 95.6299 316.369 98.4761 316.369 98.4761C315.637 100.046 315.101 101.699 314.771 103.4C314.749 103.572 314.738 103.745 314.738 103.919Z" fill="#263238"/>
<path d="M308.528 84.665C307.259 87.4915 307.746 96.1683 309.593 98.3178C312.275 101.44 317.198 102.328 319.985 98.9751C322.687 95.7345 321.859 84.4349 319.742 82.4234C316.626 79.4654 310.395 80.4975 308.528 84.665Z" fill="#C95F50"/>
<path d="M314.915 90.8105C314.915 90.8105 314.869 90.8105 314.876 90.8631C314.922 91.4482 314.876 92.1186 314.363 92.3421C314.363 92.3421 314.363 92.3816 314.363 92.375C315.007 92.2501 315.053 91.3693 314.915 90.8105Z" fill="#263238"/>
<path d="M314.364 90.2266C313.424 90.2266 313.443 92.0934 314.318 92.1131C315.192 92.1328 315.152 90.2463 314.364 90.2266Z" fill="#263238"/>
<path d="M318.52 90.7793C318.52 90.7793 318.566 90.8122 318.566 90.8319C318.566 91.4169 318.638 92.094 319.17 92.278C319.17 92.278 319.17 92.3174 319.17 92.3109C318.52 92.232 318.415 91.3709 318.52 90.7793Z" fill="#263238"/>
<path d="M319.033 90.1669C319.973 90.0814 320.072 91.968 319.197 92.0469C318.323 92.1257 318.244 90.2326 319.033 90.1669Z" fill="#263238"/>
<path d="M313.61 89.3989C313.866 89.3266 314.09 89.2214 314.34 89.1294C314.61 89.0727 314.853 88.9269 315.03 88.7153C315.073 88.6391 315.089 88.5509 315.078 88.4643C315.066 88.3777 315.026 88.2973 314.964 88.2354C314.82 88.1321 314.65 88.0692 314.474 88.053C314.297 88.0368 314.119 88.068 313.958 88.1434C313.61 88.2513 313.314 88.4858 313.13 88.8007C313.096 88.873 313.083 88.9534 313.093 89.0326C313.102 89.1119 313.134 89.1869 313.184 89.2492C313.234 89.3115 313.3 89.3585 313.376 89.385C313.451 89.4114 313.532 89.4163 313.61 89.3989Z" fill="#263238"/>
<path d="M319.756 88.5769C319.501 88.5288 319.249 88.4674 319 88.3929C318.727 88.3626 318.471 88.2451 318.27 88.0577C318.217 87.9868 318.188 87.9002 318.188 87.8112C318.188 87.7221 318.217 87.6356 318.27 87.5647C318.403 87.4482 318.564 87.3686 318.737 87.334C318.91 87.2994 319.089 87.3109 319.256 87.3675C319.611 87.4336 319.929 87.6278 320.15 87.913C320.196 87.9801 320.221 88.0587 320.223 88.1395C320.225 88.2204 320.205 88.3002 320.163 88.3698C320.122 88.4393 320.062 88.4957 319.99 88.5324C319.918 88.569 319.837 88.5845 319.756 88.5769Z" fill="#263238"/>
<path d="M314.724 96.222C314.862 96.36 315.007 96.544 315.217 96.5638C315.445 96.5603 315.67 96.5065 315.874 96.406C315.874 96.406 315.907 96.406 315.874 96.4389C315.791 96.5541 315.678 96.6448 315.547 96.7015C315.416 96.7581 315.273 96.7787 315.131 96.761C315.012 96.7324 314.904 96.669 314.821 96.5789C314.738 96.4888 314.684 96.376 314.665 96.2548C314.658 96.2154 314.698 96.2022 314.724 96.222Z" fill="#263238"/>
<path d="M315.316 94.466C315.464 94.6932 315.657 94.8875 315.883 95.0368C316.109 95.1861 316.364 95.2871 316.631 95.3337C316.868 95.3697 317.11 95.3697 317.347 95.3337C317.393 95.3405 317.44 95.3405 317.485 95.3337H317.61C317.642 95.3279 317.67 95.3119 317.692 95.2881C317.713 95.2643 317.726 95.2341 317.728 95.2022C317.732 95.1826 317.732 95.1626 317.728 95.143V95.0905C317.728 94.6369 317.682 93.9533 317.682 93.9533C317.847 94.0321 318.695 94.4002 318.675 94.1636C318.598 92.1334 318.316 90.1161 317.834 88.1424C317.834 88.1285 317.828 88.1151 317.818 88.1053C317.808 88.0954 317.795 88.0898 317.781 88.0898C317.767 88.0898 317.754 88.0954 317.744 88.1053C317.734 88.1151 317.728 88.1285 317.728 88.1424C317.788 90.0158 318.175 91.8695 318.268 93.7561C317.966 93.6204 317.648 93.5274 317.321 93.48C317.255 93.48 317.446 94.7946 317.426 95.005C317.058 95.0474 316.684 95.0152 316.329 94.9101C315.973 94.8051 315.642 94.6295 315.356 94.3937C315.329 94.3805 315.283 94.42 315.316 94.466Z" fill="#263238"/>
<path d="M317.107 95.1375C316.862 95.4593 316.542 95.7147 316.173 95.8803C315.964 95.963 315.734 95.979 315.516 95.9263C315.049 95.8079 315.036 95.3807 315.115 95.0126C315.16 94.8167 315.229 94.627 315.319 94.4473C315.826 94.8618 316.452 95.1037 317.107 95.1375Z" fill="#263238"/>
<path d="M316.177 95.8794C315.968 95.9621 315.738 95.9782 315.52 95.9254C315.053 95.8071 315.04 95.3798 315.119 95.0117C315.367 95.0175 315.606 95.106 315.797 95.2632C315.989 95.4205 316.123 95.6374 316.177 95.8794Z" fill="#FF9BBC"/>
<path d="M307.803 92.1656C307.803 92.1656 305.706 86.9595 306.423 84.2776C306.745 83.0615 308.566 82.5028 308.566 82.5028C308.516 81.9799 308.613 81.4536 308.845 80.9825C309.077 80.5113 309.436 80.1138 309.88 79.834C311.57 78.6903 315.067 79.5777 315.067 79.5777C315.067 79.5777 317.906 76.6328 320.943 78.4799C323.98 80.327 321.259 83.6663 321.259 83.6663C321.259 83.6663 322.179 85.5528 319.043 86.4008C315.908 87.2488 310.406 85.0138 310.406 85.0138C310.348 87.0542 309.987 89.0746 309.335 91.0087C309.209 91.3225 308.999 91.5961 308.73 91.7999C308.46 92.0038 308.139 92.1302 307.803 92.1656Z" fill="#263238"/>
<path d="M315.647 79.702C314.967 79.2903 314.211 79.0198 313.425 78.9066C312.726 78.7916 312.013 78.7916 311.315 78.9066C310.691 78.9802 310.099 79.2213 309.601 79.6044C309.104 79.9875 308.719 80.4982 308.488 81.0824C308.389 81.3897 308.352 81.7139 308.38 82.0357C308.409 82.3575 308.501 82.6704 308.653 82.9557C308.653 82.9557 308.699 82.9557 308.685 82.9557C308.087 81.8974 308.685 80.517 309.619 79.8663C310.706 79.1951 312.001 78.9427 313.26 79.1564C314.069 79.2791 314.859 79.4999 315.614 79.8137C315.621 79.8159 315.629 79.8165 315.636 79.8157C315.644 79.8149 315.651 79.8126 315.658 79.809C315.665 79.8053 315.671 79.8003 315.675 79.7944C315.68 79.7884 315.684 79.7816 315.686 79.7743C315.688 79.7669 315.689 79.7592 315.688 79.7516C315.687 79.744 315.685 79.7367 315.681 79.7299C315.678 79.7232 315.673 79.7173 315.667 79.7125C315.661 79.7077 315.654 79.7041 315.647 79.702Z" fill="#263238"/>
<path d="M323.033 80.4125C322.955 79.9566 322.764 79.5274 322.478 79.1637C322.193 78.7999 321.821 78.513 321.396 78.3287C320.438 77.8525 319.347 77.7135 318.3 77.9343C317.248 78.159 316.274 78.6605 315.48 79.387C315.48 79.4331 315.48 79.387 315.48 79.387C316.192 78.7486 317.063 78.314 318.001 78.1289C318.94 77.9438 319.91 78.0151 320.811 78.3353C321.231 78.4481 321.616 78.6631 321.932 78.9611C322.248 79.2591 322.486 79.6308 322.623 80.043C322.761 80.4552 322.794 80.895 322.72 81.3231C322.645 81.7512 322.466 82.1542 322.198 82.4962C321.569 83.2983 320.726 83.9066 319.766 84.2513C319.766 84.2513 319.766 84.2973 319.766 84.2842C320.665 84.0124 321.48 83.5197 322.139 82.8512C322.453 82.5314 322.695 82.1486 322.849 81.7281C323.003 81.3076 323.066 80.8591 323.033 80.4125Z" fill="#263238"/>
<path d="M309.79 91.9416C309.79 91.9416 308.16 88.9902 306.839 89.5489C305.517 90.1076 306.543 94.2357 307.95 94.939C308.124 95.0406 308.318 95.1059 308.518 95.1311C308.719 95.1563 308.923 95.1408 309.117 95.0856C309.311 95.0304 309.493 94.9366 309.65 94.8098C309.808 94.6829 309.938 94.5257 310.033 94.3474L309.79 91.9416Z" fill="#C95F50"/>
<path d="M307.16 90.7129C307.16 90.7129 307.16 90.7129 307.16 90.7523C307.607 91.0354 307.989 91.4094 308.281 91.85C308.573 92.2906 308.769 92.7879 308.856 93.3094C308.807 93.2009 308.735 93.1043 308.645 93.0262C308.556 92.948 308.45 92.8901 308.336 92.8564C308.222 92.8227 308.102 92.8141 307.984 92.831C307.866 92.8479 307.753 92.89 307.653 92.9544C307.653 92.9544 307.653 93.0201 307.653 93.0136C307.841 92.975 308.035 92.9953 308.211 93.0718C308.386 93.1483 308.533 93.2772 308.633 93.4408C308.79 93.7173 308.923 94.0077 309.027 94.3085C309.066 94.4071 309.237 94.3742 309.211 94.2625C309.375 92.9478 308.554 91.0087 307.16 90.7129Z" fill="#263238"/>
<path d="M301.524 106.114C292.217 116.566 285.216 131.284 285.282 134.754C285.374 138.567 290.225 151.996 294.846 158.307C295.444 159.115 299.046 158.773 302.077 157.097C305.291 155.329 307.927 152.174 307.296 151.234C304.923 147.704 299.303 134.031 299.355 131.895C299.401 129.923 304.009 117.815 305.764 110.814C307.48 104.077 305.856 101.23 301.524 106.114Z" fill="#C95F50"/>
<path d="M289.228 157.261L306.562 148.794C306.562 148.794 299.745 133.584 299.745 131.94C299.745 130.297 304.228 117.439 305.918 111.497C307.607 105.555 306.956 98.8764 299.555 107.862C292.153 116.848 285.685 130.211 284.949 133.761C284.213 137.311 289.228 157.261 289.228 157.261Z" fill="#407BFF"/>
<path d="M300.614 127.577C300.969 126.451 301.337 125.327 301.718 124.205C302.145 122.949 302.586 121.7 303.033 120.458C303.48 119.216 303.986 118.059 304.472 116.862C304.472 116.777 304.656 116.862 304.63 116.921C304.051 118.519 303.512 120.136 302.973 121.753C303.381 121.017 303.788 120.287 304.222 119.564C304.231 119.556 304.243 119.55 304.255 119.549C304.267 119.547 304.279 119.549 304.29 119.555C304.301 119.561 304.31 119.57 304.315 119.581C304.321 119.592 304.323 119.604 304.321 119.616C303.834 120.51 303.322 121.385 302.802 122.246C302.678 122.634 302.546 123.028 302.415 123.416C301.685 125.585 300.988 127.767 300.364 129.989C300.209 130.481 300.105 130.988 300.055 131.501C300.028 132.086 300.115 132.671 300.311 133.223C300.627 134.242 300.969 135.248 301.337 136.247C302.06 138.265 302.848 140.25 303.67 142.222C304.61 144.47 305.682 146.685 306.746 148.874C306.746 148.874 306.089 149.045 306.089 149.058C306.089 149.072 306.037 149.058 306.05 149.026C306.063 148.993 306.457 148.809 306.47 148.809C305.386 146.916 304.354 145.055 303.44 143.064C302.526 141.072 301.731 139.12 301.001 137.056C300.627 136.004 300.265 134.952 299.937 133.887C299.564 132.9 299.461 131.831 299.641 130.791C299.884 129.7 300.278 128.635 300.614 127.577Z" fill="#263238"/>
<path d="M288.932 152.378C289.546 152.046 290.178 151.748 290.825 151.484C291.39 151.221 291.949 150.952 292.521 150.695C293.757 150.137 294.993 149.571 296.235 149.019C297.477 148.467 298.713 147.908 299.956 147.369C301.198 146.83 302.421 146.252 303.683 145.785C303.729 145.785 303.762 145.838 303.722 145.864C302.572 146.574 301.343 147.179 300.133 147.764C298.924 148.349 297.734 148.914 296.518 149.46C295.302 150.005 294.026 150.538 292.771 151.044C292.166 151.287 291.555 151.511 290.937 151.741C290.296 152.018 289.637 152.253 288.965 152.444C288.957 152.445 288.949 152.443 288.942 152.439C288.935 152.435 288.93 152.429 288.926 152.422C288.922 152.415 288.921 152.407 288.922 152.399C288.923 152.391 288.927 152.384 288.932 152.378Z" fill="#263238"/>
</svg>
