<svg width="23" height="25" viewBox="0 0 23 25" fill="none" xmlns="http://www.w3.org/2000/svg">
<path d="M11.5003 13.167C11.1581 13.1685 10.8257 13.2921 10.5544 13.5188C10.283 13.7456 10.0877 14.0629 9.99841 14.4221C9.90913 14.7812 9.93085 15.1623 10.0602 15.5067C10.1896 15.8512 10.4195 16.1399 10.7145 16.3285V18.7504H12.3053V16.3285C12.5388 16.1784 12.7325 15.9652 12.8677 15.7097C13.0028 15.4541 13.0749 15.1649 13.0768 14.8701C13.0768 14.6456 13.036 14.4233 12.9566 14.216C12.8773 14.0087 12.761 13.8204 12.6145 13.6622C12.468 13.5039 12.2941 13.3786 12.1029 13.2937C11.9117 13.2087 11.7069 13.1657 11.5003 13.167Z" stroke="#949494" stroke-width="2.08333" stroke-linecap="round" stroke-linejoin="round"/>
<path d="M17.3888 9.25488H5.60613C4.4629 9.25488 3.53613 10.2622 3.53613 11.5049V20.4059C3.53613 21.6486 4.4629 22.6559 5.60613 22.6559H17.3888C18.5321 22.6559 19.4588 21.6486 19.4588 20.4059V11.5049C19.4588 10.2622 18.5321 9.25488 17.3888 9.25488Z" stroke="#949494" stroke-width="2.08333" stroke-linecap="round" stroke-linejoin="round"/>
<path d="M6.39648 9.25521V7.89583C6.39648 6.42333 6.93464 5.01113 7.89256 3.96992C8.85048 2.9287 10.1497 2.34375 11.5044 2.34375C12.8591 2.34375 14.1583 2.9287 15.1162 3.96992C16.0742 5.01113 16.6123 6.42333 16.6123 7.89583V9.25521" stroke="#949494" stroke-width="2.08333" stroke-linecap="round" stroke-linejoin="round"/>
</svg>
