<svg width="20" height="24" viewBox="0 0 20 24" fill="none" xmlns="http://www.w3.org/2000/svg">
<path d="M3.88845 3.99935H12.7773V10.5327H13.8885V3.99935C13.8885 3.64573 13.7714 3.30659 13.563 3.05654C13.3546 2.80649 13.072 2.66602 12.7773 2.66602H3.88845C3.59377 2.66602 3.31115 2.80649 3.10278 3.05654C2.89441 3.30659 2.77734 3.64573 2.77734 3.99935V19.9993C2.77734 20.353 2.89441 20.6921 3.10278 20.9422C3.31115 21.1922 3.59377 21.3327 3.88845 21.3327H12.7773C13.072 21.3327 13.3546 21.1922 13.563 20.9422C13.7714 20.6921 13.8885 20.353 13.8885 19.9993H3.88845V3.99935Z" fill="white"/>
<path d="M15.6436 11.5197C15.5373 11.4105 15.4006 11.3534 15.2608 11.3599C15.121 11.3664 14.9884 11.4359 14.8894 11.5546C14.7905 11.6734 14.7325 11.8325 14.7271 12.0003C14.7217 12.1681 14.7693 12.3321 14.8603 12.4597L16.7381 14.6663H8.68251C8.53517 14.6663 8.39386 14.7366 8.28967 14.8616C8.18548 14.9866 8.12695 15.1562 8.12695 15.333C8.12695 15.5098 8.18548 15.6794 8.28967 15.8044C8.39386 15.9294 8.53517 15.9997 8.68251 15.9997H16.7381L14.8603 18.3063C14.8021 18.3661 14.7549 18.4397 14.7215 18.5224C14.6882 18.6051 14.6695 18.6952 14.6665 18.787C14.6636 18.8788 14.6764 18.9703 14.7044 19.0559C14.7323 19.1414 14.7747 19.2191 14.8288 19.2841C14.883 19.3491 14.9477 19.3999 15.019 19.4334C15.0903 19.467 15.1666 19.4824 15.2431 19.4789C15.3196 19.4753 15.3947 19.4528 15.4636 19.4128C15.5325 19.3728 15.5938 19.3161 15.6436 19.2463L18.8881 15.3797L15.6436 11.5197Z" fill="white"/>
</svg>
